<?xml version="1.0" encoding="utf-8"?>
<!-- Generator: Adobe Illustrator 16.0.0, SVG Export Plug-In . SVG Version: 6.00 Build 0)  -->
<!DOCTYPE svg PUBLIC "-//W3C//DTD SVG 1.1//EN" "http://www.w3.org/Graphics/SVG/1.1/DTD/svg11.dtd">
<svg version="1.1" id="katman_1" xmlns="http://www.w3.org/2000/svg" xmlns:xlink="http://www.w3.org/1999/xlink" x="0px" y="0px"
	 width="170px" height="170.002px" viewBox="0 0 170 170.002" enable-background="new 0 0 170 170.002" xml:space="preserve">
<g id="men_6">
	<g>
		<circle fill="#827978" cx="85" cy="84.999" r="84.999"/>
		<path fill="#7C7371" d="M169.999,84.999C169.999,38.056,131.943,0,85,0v169.999C131.943,169.999,169.999,131.943,169.999,84.999z"
			/>
	</g>
	<g>
		<circle fill="#2AA79C" cx="85" cy="85" r="85"/>
		<g>
			<defs>
				<circle id="SVGID_1_" cx="85" cy="85" r="85"/>
			</defs>
			<clipPath id="SVGID_2_">
				<use xlink:href="#SVGID_1_"  overflow="visible"/>
			</clipPath>
			<g clip-path="url(#SVGID_2_)">
				<polygon fill="#DAA88D" points="97.446,133.732 85.296,163.225 72.554,133.732 72.554,106.438 97.446,106.438 				"/>
				<path fill="#F1F2F2" d="M72.554,122.703c0,0-26.688,3.459-30.184,7.1c-3.044,3.172-9.371,33.535-10.835,40.199
					c41.552,0,53.463,0,53.463,0v-16.01L72.554,122.703z"/>
				<path fill="#E6E7E9" d="M97.446,122.703c0,0,26.687,3.459,30.182,7.1c3.043,3.172,9.371,33.535,10.834,40.199
					c-41.551,0-53.464,0-53.464,0v-16.01L97.446,122.703z"/>
				<g>
					<path fill="#EAC0A8" d="M84.999,28.334c12.086,0,31.199,6.871,31.199,39.067c0,18.589-6.061,30.767-8.701,34.136
						c-2.43,3.1-16.089,9.705-22.498,9.705C84.999,78.703,84.999,28.334,84.999,28.334z"/>
					<path fill="#EAC0A8" d="M122.211,75.078c0.532-5.145-1.918-9.709-5.474-10.197c-3.557-0.488-6.871,3.287-7.404,8.432
						c-0.534,5.143,1.918,9.707,5.475,10.195C118.363,83.994,121.677,80.221,122.211,75.078z"/>
				</g>
				<g>
					<path fill="#F2D7BC" d="M84.999,28.334c-12.086,0-31.199,6.871-31.199,39.067c0,18.589,6.061,30.767,8.701,34.136
						c2.43,3.1,16.089,9.705,22.498,9.705C84.999,78.703,84.999,28.334,84.999,28.334z"/>
					<path fill="#F2D7BC" d="M47.788,75.078c-0.533-5.145,1.918-9.709,5.473-10.197c3.558-0.488,6.871,3.287,7.405,8.432
						c0.533,5.143-1.919,9.707-5.475,10.195C51.636,83.994,48.32,80.221,47.788,75.078z"/>
				</g>
				<path fill="#30353B" d="M57.954,75.643h2.154c0,0-1.311-8.385,2.533-11.092c0-4.192,0-5.416,0-5.416s-1.485-0.174-1.485-6.549
					c0-6.377,7.599-10.918,23.843-10.918c0-9.083,0-23.322,0-23.322s-32.111,0.684-32.111,23.989c0,9.681,0,22.565,0,22.565
					s2.344-0.416,4.018,0.99C58.711,67.404,57.954,75.643,57.954,75.643z"/>
				<path fill="#30353B" d="M112.045,75.643h-2.154c0,0,1.31-8.385-2.532-11.092c0-4.192,0-5.416,0-5.416s1.484-0.174,1.484-6.549
					c0-6.377-7.599-10.918-23.844-10.918c0-9.083,0-23.322,0-23.322s32.111-0.732,32.111,22.572c0,9.682,0,23.982,0,23.982
					s-2.343-0.416-4.018,0.99C111.288,67.404,112.045,75.643,112.045,75.643z"/>
				<g>
					<polygon fill="#A1B3BF" points="84.999,153.992 76.54,125.086 73.417,138.113 					"/>
					<polygon fill="#FFFFFF" points="72.202,119.711 76.643,125.482 73.417,138.113 66.596,128.912 					"/>
				</g>
				<g>
					<polygon fill="#A1B3BF" points="85,153.992 92.66,124.746 96.583,138.113 					"/>
					<polygon fill="#FFFFFF" points="97.796,119.711 92.558,125.141 96.583,138.113 103.995,128.912 					"/>
				</g>
				<path fill="#FFFFFF" d="M84.998,97.375c5.634,0,10.2-1.859,10.2-4.156h-20.4C74.798,95.516,79.364,97.375,84.998,97.375z"/>
			</g>
		</g>
	</g>
</g>
</svg>
