<?xml version="1.0" encoding="utf-8"?>
<!-- Generator: Adobe Illustrator 15.1.0, SVG Export Plug-In . SVG Version: 6.00 Build 0)  -->
<!DOCTYPE svg PUBLIC "-//W3C//DTD SVG 1.1//EN" "http://www.w3.org/Graphics/SVG/1.1/DTD/svg11.dtd">
<svg version="1.1" id="Layer_3" xmlns="http://www.w3.org/2000/svg" xmlns:xlink="http://www.w3.org/1999/xlink" x="0px" y="0px"
	 width="600px" height="600px" viewBox="0 0 600 600" enable-background="new 0 0 600 600" xml:space="preserve">
<g>
	<path fill="#9FADB5" d="M211.521,238.765h80.44c11.104,0,20.104-9.164,20.104-20.271c0-11.106-9.001-20.267-20.104-20.267h-80.44
		c-11.103,0-20.112,9.161-20.112,20.267C191.408,229.6,200.418,238.765,211.521,238.765z"/>
	<path fill="#9FADB5" d="M211.521,327.172h168.91c11.111,0,20.113-9.164,20.113-20.271c0-11.107-9.002-20.269-20.113-20.269h-168.91
		c-11.103,0-20.112,9.161-20.112,20.269C191.408,318.008,200.418,327.172,211.521,327.172z"/>
	<path fill="#9FADB5" d="M388.479,367.272H211.521c-11.103,0-20.112,8.947-20.112,20.053c0,11.106,9.01,20.057,20.112,20.057
		h176.957c11.103,0,20.113-8.95,20.113-20.057C408.591,376.22,399.581,367.272,388.479,367.272z"/>
	<path fill="#9FADB5" d="M384.188,115H180.234c-24.888,0-44.968,20.172-44.968,45.051v279.755c0,24.883,20.08,45.194,44.968,45.194
		h239.531c24.887,0,44.968-20.312,44.968-45.194V197.522L384.188,115z M419.766,452.659H180.234c-7.14,0-13.062-5.71-13.062-12.853
		V160.051c0-7.143,5.922-13.145,13.062-13.145h188.331v36.214c0,15.921,12.9,28.875,28.818,29.038l35.442,0.362v227.286
		C432.826,446.949,426.904,452.659,419.766,452.659z"/>
</g>
</svg>
