<?xml version="1.0" encoding="utf-8"?>
<!-- Generator: Adobe Illustrator 15.1.0, SVG Export Plug-In . SVG Version: 6.00 Build 0)  -->
<!DOCTYPE svg PUBLIC "-//W3C//DTD SVG 1.1//EN" "http://www.w3.org/Graphics/SVG/1.1/DTD/svg11.dtd">
<svg version="1.1" id="Layer_3" xmlns="http://www.w3.org/2000/svg" xmlns:xlink="http://www.w3.org/1999/xlink" x="0px" y="0px"
	 width="600px" height="600px" viewBox="0 0 600 600" enable-background="new 0 0 600 600" xml:space="preserve">
<g>
	<g>
		<path fill="#9FADB5" d="M167.701,429.422V321H115v159.978c0,2.222,1.801,4.022,4.021,4.022H279v-52.701H170.578
			C168.989,432.299,167.701,431.011,167.701,429.422z"/>
		<path fill="#9FADB5" d="M167.701,279V170.578c0-1.589,1.288-2.877,2.877-2.877h258.844c1.589,0,2.877,1.288,2.877,2.877v258.844
			c0,1.588-1.288,2.876-2.877,2.876H321V485h159.979c2.222,0,4.021-1.801,4.021-4.022V119.021c0-2.222-1.801-4.021-4.021-4.021
			H119.023c-2.223,0-4.022,1.801-4.022,4.021V279H167.701z"/>
	</g>
	<path fill="#9FADB5" d="M152.756,446.147c-9.832-9.831-11.786-23.816-4.366-31.236l131.522-131.521
		c7.42-7.421,21.404-5.467,31.235,4.364l3.748,3.749c9.829,9.83,11.784,23.814,4.364,31.234L187.738,454.26
		c-7.419,7.419-21.404,5.466-31.234-4.364L152.756,446.147z"/>
</g>
</svg>
