<?xml version="1.0" encoding="utf-8"?>
<!-- Generator: Adobe Illustrator 15.1.0, SVG Export Plug-In . SVG Version: 6.00 Build 0)  -->
<!DOCTYPE svg PUBLIC "-//W3C//DTD SVG 1.1//EN" "http://www.w3.org/Graphics/SVG/1.1/DTD/svg11.dtd">
<svg version="1.1" id="Layer_1" xmlns="http://www.w3.org/2000/svg" xmlns:xlink="http://www.w3.org/1999/xlink" x="0px" y="0px"
	 width="318px" height="26px" viewBox="0 0 318 26" enable-background="new 0 0 318 26" xml:space="preserve">
<g>
	<g>
		<g>
			<path fill="#D1D3D4" d="M141,1c6.617,0,12,5.383,12,12c0,6.617-5.383,12-12,12H13C6.383,25,1,19.617,1,13C1,6.383,6.383,1,13,1
				H141 M141,0H13C5.82,0,0,5.82,0,13s5.82,13,13,13h128c7.18,0,13-5.82,13-13S148.18,0,141,0L141,0z"/>
		</g>
	</g>
	<text transform="matrix(1 0 0 1 12.9282 17.6914)" fill="#778D9B" font-family="'Dosis-Medium'" font-size="14">Filter by Country</text>
	<g>
		<path fill="#778D9B" d="M133.647,10.693h10.288c0.199,0,0.372,0.072,0.518,0.219c0.146,0.146,0.218,0.317,0.218,0.517
			s-0.072,0.372-0.218,0.517l-5.145,5.145c-0.146,0.145-0.317,0.217-0.518,0.217c-0.199,0-0.371-0.072-0.516-0.217l-5.144-5.145
			c-0.146-0.145-0.22-0.317-0.22-0.517s0.073-0.371,0.22-0.517C133.275,10.765,133.448,10.693,133.647,10.693z"/>
	</g>
	<g>
		<g>
			<path fill="#D1D3D4" d="M305,1c6.617,0,12,5.383,12,12c0,6.617-5.383,12-12,12H177c-6.617,0-12-5.383-12-12
				c0-6.617,5.383-12,12-12H305 M305,0H177c-7.18,0-13,5.82-13,13s5.82,13,13,13h128c7.18,0,13-5.82,13-13S312.18,0,305,0L305,0z"/>
		</g>
	</g>
	<text transform="matrix(1 0 0 1 176.9277 17.6914)" fill="#778D9B" font-family="'Dosis-Medium'" font-size="14">Filter by City</text>
	<g>
		<path fill="#778D9B" d="M297.647,10.693h10.288c0.199,0,0.372,0.072,0.518,0.219c0.146,0.146,0.218,0.317,0.218,0.517
			s-0.072,0.372-0.218,0.517l-5.145,5.145c-0.146,0.145-0.317,0.217-0.518,0.217c-0.199,0-0.371-0.072-0.516-0.217l-5.144-5.145
			c-0.146-0.145-0.22-0.317-0.22-0.517s0.073-0.371,0.22-0.517C297.275,10.765,297.448,10.693,297.647,10.693z"/>
	</g>
</g>
</svg>
