<?xml version="1.0" encoding="utf-8"?>
<!-- Generator: Adobe Illustrator 15.1.0, SVG Export Plug-In . SVG Version: 6.00 Build 0)  -->
<!DOCTYPE svg PUBLIC "-//W3C//DTD SVG 1.1//EN" "http://www.w3.org/Graphics/SVG/1.1/DTD/svg11.dtd">
<svg version="1.1" id="Layer_3" xmlns="http://www.w3.org/2000/svg" xmlns:xlink="http://www.w3.org/1999/xlink" x="0px" y="0px"
	 width="600px" height="600px" viewBox="0 0 600 600" enable-background="new 0 0 600 600" xml:space="preserve">
<path fill="#546E7A" d="M393.854,421.783c8.229,0,17.888-5.32,21.404-12.574l68.441-129.519c4.097-7.88-1.858-12.576-12.573-12.576
	h-69.115v-30.947c0-10.681-8.688-19.371-19.369-19.371H213.444l-12.553-32.951c-1.306-3.421-4.588-5.685-8.253-5.685h-68.64
	c-2.35,0-4.605,0.936-6.266,2.604c-1.656,1.668-2.578,3.924-2.565,6.278l0.168,49.124L115,402.469
	c0,10.682,8.691,19.371,19.372,19.371 M384.349,267.118H233.647c-6.947,0-13.517,5.615-16.993,12.576l-61.535,124.483h-20.748
	c-0.94,0-1.709-0.768-1.709-1.709v-166.35l-0.009-40.292h53.901l12.552,32.949c1.309,3.421,4.588,5.688,8.253,5.688h175.282
	c0.939,0,1.707,0.768,1.707,1.708L384.349,267.118L384.349,267.118z"/>
</svg>
