<?xml version="1.0" encoding="utf-8"?>
<!-- Generator: Adobe Illustrator 15.1.0, SVG Export Plug-In . SVG Version: 6.00 Build 0)  -->
<!DOCTYPE svg PUBLIC "-//W3C//DTD SVG 1.1//EN" "http://www.w3.org/Graphics/SVG/1.1/DTD/svg11.dtd">
<svg version="1.1" id="Layer_3" xmlns="http://www.w3.org/2000/svg" xmlns:xlink="http://www.w3.org/1999/xlink" x="0px" y="0px"
	 width="600px" height="600px" viewBox="0 0 600 600" enable-background="new 0 0 600 600" xml:space="preserve">
<g>
	<path fill="#9FADB5" d="M473.074,395.655L359.953,282.534L322.688,319.8l49.002,49.002H216.748c-10.493,0.001-19,11.271-19,25.174
		l-0.001,5.301c0,13.903,8.507,25.174,19,25.174h158.689l-52.75,52.75l37.266,37.266l113.121-113.121
		C474.645,399.773,474.645,397.227,473.074,395.655z"/>
	<path fill="#9FADB5" d="M126.926,198.655L240.047,85.534l37.266,37.266l-49.002,49.002h154.941c10.493,0.001,19,11.271,19,25.174
		v5.301c0,13.903-8.506,25.174-19,25.174H224.562l52.75,52.75l-37.266,37.266L126.926,204.345
		C125.355,202.773,125.355,200.227,126.926,198.655z"/>
</g>
</svg>
