<?xml version="1.0" encoding="utf-8"?>
<!-- Generator: Adobe Illustrator 15.1.0, SVG Export Plug-In . SVG Version: 6.00 Build 0)  -->
<!DOCTYPE svg PUBLIC "-//W3C//DTD SVG 1.1//EN" "http://www.w3.org/Graphics/SVG/1.1/DTD/svg11.dtd">
<svg version="1.1" id="Layer_1" xmlns="http://www.w3.org/2000/svg" xmlns:xlink="http://www.w3.org/1999/xlink" x="0px" y="0px"
	 width="600px" height="600px" viewBox="0 0 600 600" enable-background="new 0 0 600 600" xml:space="preserve">
<g>
	<path fill="#F1F6F9" d="M215.908,274.774v50.455c0,7.008-2.455,12.967-7.358,17.867c-4.905,4.91-10.864,7.358-17.868,7.358h-50.454
		c-7.01,0-12.967-2.448-17.87-7.358c-4.907-4.9-7.358-10.859-7.358-17.867v-50.455c0-7.006,2.451-12.963,7.358-17.87
		c4.903-4.903,10.86-7.358,17.87-7.358h50.454c7.004,0,12.963,2.455,17.868,7.358C213.454,261.811,215.908,267.768,215.908,274.774z
		 M350.454,274.774v50.455c0,7.008-2.454,12.967-7.358,17.867c-4.906,4.91-10.863,7.358-17.869,7.358h-50.455
		c-7.008,0-12.967-2.448-17.868-7.358c-4.907-4.9-7.358-10.859-7.358-17.867v-50.455c0-7.006,2.451-12.963,7.358-17.87
		c4.901-4.903,10.86-7.358,17.868-7.358h50.455c7.006,0,12.963,2.455,17.869,7.358C348,261.811,350.454,267.768,350.454,274.774z
		 M485,274.774v50.455c0,7.008-2.457,12.967-7.357,17.867c-4.908,4.91-10.866,7.358-17.871,7.358h-50.453
		c-7.009,0-12.967-2.448-17.871-7.358c-4.904-4.9-7.357-10.859-7.357-17.867v-50.455c0-7.006,2.453-12.963,7.357-17.87
		c4.904-4.903,10.862-7.358,17.871-7.358h50.453c7.005,0,12.963,2.455,17.871,7.358C482.543,261.811,485,267.768,485,274.774z"/>
</g>
</svg>
