<?xml version="1.0" encoding="utf-8"?>
<!-- Generator: Adobe Illustrator 15.1.0, SVG Export Plug-In . SVG Version: 6.00 Build 0)  -->
<!DOCTYPE svg PUBLIC "-//W3C//DTD SVG 1.1//EN" "http://www.w3.org/Graphics/SVG/1.1/DTD/svg11.dtd">
<svg version="1.1" id="Layer_3" xmlns="http://www.w3.org/2000/svg" xmlns:xlink="http://www.w3.org/1999/xlink" x="0px" y="0px"
	 width="100px" height="100px" viewBox="0 0 100 100" enable-background="new 0 0 100 100" xml:space="preserve">
<g>
	<g>
		<path fill="#FFFFFF" d="M91.645,52.086L57.223,86.497c-0.58,0.588-1.283,0.882-2.086,0.882c-0.81,0-1.505-0.294-2.078-0.882
			l-7.699-7.699c-0.595-0.588-0.882-1.282-0.882-2.086c0-0.803,0.287-1.505,0.882-2.093L69.982,50L45.359,25.377
			c-0.595-0.588-0.882-1.283-0.882-2.086c0-0.811,0.287-1.502,0.882-2.09l7.698-7.698c0.574-0.588,1.271-0.882,2.079-0.882
			c0.804,0,1.507,0.294,2.087,0.882l34.422,34.411c0.572,0.588,0.877,1.286,0.877,2.086C92.521,50.803,92.218,51.501,91.645,52.086z
			"/>
	</g>
	<g>
		<path fill="#FFFFFF" d="M54.645,52.086L20.223,86.497c-0.58,0.588-1.283,0.882-2.086,0.882c-0.81,0-1.505-0.294-2.079-0.882
			L8.36,78.798c-0.595-0.588-0.882-1.282-0.882-2.086c0-0.803,0.287-1.505,0.882-2.093L32.982,50L8.359,25.377
			c-0.595-0.588-0.882-1.283-0.882-2.086c0-0.811,0.287-1.502,0.882-2.09l7.698-7.698c0.574-0.588,1.27-0.882,2.079-0.882
			c0.803,0,1.506,0.294,2.086,0.882l34.422,34.411c0.571,0.588,0.877,1.286,0.877,2.086C55.521,50.803,55.218,51.501,54.645,52.086z
			"/>
	</g>
</g>
</svg>
