<?xml version="1.0" encoding="utf-8"?>
<!-- Generator: Adobe Illustrator 15.1.0, SVG Export Plug-In . SVG Version: 6.00 Build 0)  -->
<!DOCTYPE svg PUBLIC "-//W3C//DTD SVG 1.1//EN" "http://www.w3.org/Graphics/SVG/1.1/DTD/svg11.dtd">
<svg version="1.1" id="Layer_3" xmlns="http://www.w3.org/2000/svg" xmlns:xlink="http://www.w3.org/1999/xlink" x="0px" y="0px"
	 width="600px" height="600px" viewBox="0 0 600 600" enable-background="new 0 0 600 600" xml:space="preserve">
<g>
	<path fill="#9FADB5" d="M414.538,310.324l-170.362,170.32c-2.848,2.891-6.366,4.355-10.302,4.355
		c-4.021,0-7.456-1.465-10.304-4.355l-38.108-38.111c-2.933-2.931-4.355-6.365-4.355-10.301c0-4.021,1.423-7.455,4.355-10.386
		L307.328,300L185.462,178.132c-2.933-2.909-4.355-6.344-4.355-10.322c0-3.999,1.423-7.435,4.355-10.344l38.11-38.089
		c2.848-2.91,6.281-4.377,10.303-4.377c3.936,0,7.453,1.467,10.301,4.377l170.362,170.301c2.848,2.909,4.355,6.365,4.355,10.322
		C418.894,303.979,417.386,307.435,414.538,310.324z"/>
</g>
</svg>
