<?xml version="1.0" encoding="utf-8"?>
<!-- Generator: Adobe Illustrator 15.1.0, SVG Export Plug-In . SVG Version: 6.00 Build 0)  -->
<!DOCTYPE svg PUBLIC "-//W3C//DTD SVG 1.1//EN" "http://www.w3.org/Graphics/SVG/1.1/DTD/svg11.dtd">
<svg version="1.1" id="Layer_1" xmlns="http://www.w3.org/2000/svg" xmlns:xlink="http://www.w3.org/1999/xlink" x="0px" y="0px"
	 width="20.75px" height="13px" viewBox="0 0 20.75 13" enable-background="new 0 0 20.75 13" xml:space="preserve">
<g>
	<path fill="#A7B8C1" d="M13,12c0,0.271-0.1,0.505-0.297,0.703C12.505,12.9,12.271,13,12,13c-0.281,0-0.516-0.1-0.703-0.297
		l-2.68-2.672C7.686,10.678,6.646,11,5.5,11c-0.745,0-1.457-0.145-2.137-0.434c-0.68-0.289-1.266-0.681-1.758-1.172
		C1.113,8.902,0.723,8.316,0.434,7.637C0.145,6.958,0,6.245,0,5.5s0.145-1.457,0.434-2.137c0.289-0.68,0.68-1.266,1.172-1.758
		c0.492-0.492,1.078-0.883,1.758-1.172C4.044,0.144,4.755,0,5.5,0s1.457,0.145,2.137,0.434s1.266,0.68,1.758,1.172
		c0.492,0.492,0.883,1.078,1.172,1.758C10.855,4.044,11,4.755,11,5.5c0,1.146-0.323,2.186-0.969,3.117l2.68,2.68
		C12.902,11.489,13,11.725,13,12z M7.973,7.973C8.657,7.288,9,6.464,9,5.5c0-0.963-0.343-1.788-1.027-2.473
		C7.288,2.343,6.464,2,5.5,2S3.712,2.343,3.027,3.027C2.343,3.712,2,4.537,2,5.5c0,0.964,0.343,1.788,1.027,2.473
		C3.712,8.658,4.536,9,5.5,9S7.288,8.658,7.973,7.973z"/>
</g>
</svg>
