<?xml version="1.0" encoding="utf-8"?>
<!-- Generator: Adobe Illustrator 15.1.0, SVG Export Plug-In . SVG Version: 6.00 Build 0)  -->
<!DOCTYPE svg PUBLIC "-//W3C//DTD SVG 1.1//EN" "http://www.w3.org/Graphics/SVG/1.1/DTD/svg11.dtd">
<svg version="1.1" id="Layer_1" xmlns="http://www.w3.org/2000/svg" xmlns:xlink="http://www.w3.org/1999/xlink" x="0px" y="0px"
	 width="600px" height="600px" viewBox="0 0 600 600" enable-background="new 0 0 600 600" xml:space="preserve">
<g>
	<path fill="#88E59D" d="M363.637,432.604v-265.21c0-5.304,1.858-9.812,5.568-13.521c3.713-3.716,8.222-5.568,13.521-5.568h18.182
		c5.305,0,9.812,1.854,13.523,5.568c3.713,3.709,5.567,8.218,5.567,13.521v265.21c0,5.302-1.854,9.81-5.567,13.522
		c-3.712,3.711-8.22,5.568-13.523,5.568h-18.182c-5.301,0-9.81-1.857-13.521-5.568C365.495,442.412,363.637,437.904,363.637,432.604
		z M271.818,432.604l0-265.21c0-5.304,1.857-9.812,5.569-13.521c3.713-3.716,8.221-5.568,13.522-5.568h18.181
		c5.305,0,9.812,1.854,13.521,5.568c3.715,3.709,5.568,8.218,5.568,13.521v265.21c0,5.302-1.854,9.81-5.568,13.522
		c-3.709,3.711-8.217,5.568-13.521,5.568h-18.18c-5.302,0-9.81-1.857-13.522-5.568C273.676,442.412,271.818,437.904,271.818,432.604
		z M180,432.604v-265.21c0-5.304,1.859-9.812,5.568-13.521c3.714-3.716,8.223-5.568,13.523-5.568h18.181
		c5.304,0,9.813,1.854,13.524,5.568c3.711,3.709,5.567,8.218,5.567,13.521l0,265.21c0,5.302-1.856,9.81-5.567,13.522
		c-3.711,3.711-8.22,5.568-13.524,5.568h-18.181c-5.301,0-9.81-1.857-13.524-5.568C181.859,442.412,180,437.904,180,432.604z"/>
</g>
</svg>
