<?xml version="1.0" encoding="utf-8"?>
<!-- Generator: Adobe Illustrator 15.1.0, SVG Export Plug-In . SVG Version: 6.00 Build 0)  -->
<!DOCTYPE svg PUBLIC "-//W3C//DTD SVG 1.1//EN" "http://www.w3.org/Graphics/SVG/1.1/DTD/svg11.dtd">
<svg version="1.1" id="Capa_1" xmlns="http://www.w3.org/2000/svg" xmlns:xlink="http://www.w3.org/1999/xlink" x="0px" y="0px"
	 width="32.218px" height="30.861px" viewBox="0 0 32.218 30.861" enable-background="new 0 0 32.218 30.861" xml:space="preserve">
<g>
	<path fill="#FBB040" d="M32.144,11.725c-0.494-1.545-3.213-1.898-6.092-2.279c-1.578-0.207-3.371-0.441-3.912-0.842
		c-0.545-0.398-1.305-2.035-1.977-3.482c-1.224-2.631-2.379-5.113-3.999-5.117L16.136,0c-1.604,0.027-2.773,2.479-4.016,5.082
		c-0.685,1.439-1.464,3.07-2.007,3.465C9.564,8.938,7.771,9.158,6.188,9.35c-2.876,0.35-5.599,0.678-6.107,2.215
		s1.479,3.426,3.585,5.422c1.156,1.098,2.465,2.342,2.671,2.98c0.206,0.642-0.143,2.416-0.448,3.979
		c-0.558,2.844-1.085,5.537,0.219,6.5c0.312,0.223,0.704,0.336,1.167,0.326c1.331-0.021,3.246-1.059,5.097-2.062
		c1.387-0.758,2.96-1.611,3.66-1.621c0.676,0,2.254,0.879,3.647,1.654c1.893,1.051,3.852,2.139,5.186,2.117
		c0.416-0.006,0.77-0.113,1.061-0.322c1.312-0.945,0.812-3.637,0.285-6.492c-0.291-1.562-0.614-3.344-0.41-3.982
		c0.213-0.639,1.535-1.865,2.703-2.955C30.628,15.131,32.634,13.27,32.144,11.725z"/>
</g>
</svg>
