<?xml version="1.0" encoding="utf-8"?>
<!-- Generator: Adobe Illustrator 15.1.0, SVG Export Plug-In . SVG Version: 6.00 Build 0)  -->
<!DOCTYPE svg PUBLIC "-//W3C//DTD SVG 1.1//EN" "http://www.w3.org/Graphics/SVG/1.1/DTD/svg11.dtd">
<svg version="1.1" id="Layer_3" xmlns="http://www.w3.org/2000/svg" xmlns:xlink="http://www.w3.org/1999/xlink" x="0px" y="0px"
	 width="600px" height="600px" viewBox="0 0 600 600" enable-background="new 0 0 600 600" xml:space="preserve">
<g>
	<g>
		<path fill="#F1F6F9" d="M299.983,249.546c3.997,0,7.457,1.534,10.382,4.392l171.246,171.279c2.927,2.891,4.389,6.382,4.389,10.373
			c0,4.036-1.462,7.494-4.389,10.346l-38.306,38.309c-2.93,2.925-6.388,4.393-10.418,4.393c-3.994,0-7.455-1.468-10.382-4.393
			l-122.522-122.52l-122.52,122.52c-2.936,2.925-6.394,4.393-10.385,4.393c-3.997,0-7.466-1.468-10.385-4.393l-38.303-38.303
			c-2.93-2.852-4.392-6.304-4.392-10.34c0-3.991,1.468-7.488,4.392-10.385l171.213-171.279
			C292.528,251.08,295.986,249.546,299.983,249.546z"/>
	</g>
	<g>
		<path fill="#F1F6F9" d="M114,187.455V136.72c0-7.045,2.456-13.02,7.392-17.954c4.924-4.925,10.94-7.402,17.954-7.402h321.302
			c7.046,0,13.021,2.468,17.955,7.402C483.526,123.7,486,129.675,486,136.72v50.735c0,7.045-2.463,13.03-7.397,17.965
			c-4.935,4.925-10.909,7.397-17.954,7.397H139.346c-7.014,0-13.03-2.463-17.954-7.397C116.456,200.485,114,194.5,114,187.455z"/>
	</g>
</g>
</svg>
