<?xml version="1.0" encoding="utf-8"?>
<!-- Generator: Adobe Illustrator 15.1.0, SVG Export Plug-In . SVG Version: 6.00 Build 0)  -->
<!DOCTYPE svg PUBLIC "-//W3C//DTD SVG 1.1//EN" "http://www.w3.org/Graphics/SVG/1.1/DTD/svg11.dtd">
<svg version="1.1" id="Layer_3" xmlns="http://www.w3.org/2000/svg" xmlns:xlink="http://www.w3.org/1999/xlink" x="0px" y="0px"
	 width="100px" height="100px" viewBox="0 0 100 100" enable-background="new 0 0 100 100" xml:space="preserve">
<g>
	<g>
		<path fill="#63BCE2" d="M50,26.729c1.934,0,3.859,1.224,5.33,3.666l20.398,33.998c2.931,4.883,0.666,8.879-5.027,8.879H29.299
			c-5.693,0-7.961-4-5.024-8.879l20.398-33.998C46.139,27.953,48.065,26.729,50,26.729 M50,19.829
			c-4.471,0-8.563,2.554-11.244,7.009L18.358,60.844c-2.712,4.516-3.009,9.334-0.812,13.215c2.198,3.883,6.484,6.113,11.753,6.113
			h41.402c5.27,0,9.556-2.23,11.753-6.113c2.196-3.881,1.899-8.693-0.81-13.215L61.247,26.847
			C58.564,22.382,54.475,19.829,50,19.829z"/>
	</g>
	<g>
		<circle fill="#63BCE2" cx="50" cy="62.92" r="4.484"/>
	</g>
	<g>
		<path fill="#63BCE2" d="M55.175,42.218c0-2.864-2.312-5.175-5.174-5.175c-2.86,0-5.176,2.312-5.176,5.175
			c0,0.688,0.142,1.341,0.383,1.941C47.12,48.903,50,56.02,50,56.02s2.883-7.114,4.797-11.858
			C55.033,43.56,55.175,42.906,55.175,42.218z"/>
	</g>
</g>
<g>
	<path fill="#63BCE2" d="M216.866,202.846c-0.022,0.008-2.118,0.704-3.939,0.704c-1,0-1.407-0.208-1.536-0.301
		c-0.638-0.44-1.82-1.272,0.203-5.308l3.791-7.561c2.252-4.492,2.585-8.832,0.934-12.23c-1.354-2.777-3.938-4.687-7.282-5.367
		c-1.202-0.246-2.425-0.369-3.634-0.369c-7.012,0-11.73,4.095-11.93,4.27c-0.678,0.601-0.837,1.592-0.387,2.375
		c0.455,0.78,1.393,1.137,2.257,0.842c0.019-0.008,2.12-0.709,3.94-0.709c0.996,0,1.396,0.209,1.523,0.297
		c0.641,0.445,1.826,1.289-0.195,5.316l-3.791,7.562c-2.252,4.495-2.581,8.836-0.928,12.23c1.35,2.776,3.935,4.685,7.283,5.365
		c1.19,0.241,2.412,0.37,3.618,0.37c7.013,0,11.738-4.096,11.938-4.271c0.674-0.596,0.838-1.592,0.386-2.373
		C218.666,202.912,217.719,202.564,216.866,202.846z"/>
	<path fill="#63BCE2" d="M213.689,149.667c5.235,0,9.479,4.244,9.479,9.479s-4.243,9.479-9.479,9.479
		c-5.238,0-9.481-4.244-9.481-9.479S208.451,149.667,213.689,149.667z"/>
</g>
</svg>
