<?xml version="1.0" encoding="utf-8"?>
<!-- Generator: Adobe Illustrator 15.1.0, SVG Export Plug-In . SVG Version: 6.00 Build 0)  -->
<!DOCTYPE svg PUBLIC "-//W3C//DTD SVG 1.1//EN" "http://www.w3.org/Graphics/SVG/1.1/DTD/svg11.dtd">
<svg version="1.1" id="Layer_3" xmlns="http://www.w3.org/2000/svg" xmlns:xlink="http://www.w3.org/1999/xlink" x="0px" y="0px"
	 width="100px" height="100px" viewBox="0 0 100 100" enable-background="new 0 0 100 100" xml:space="preserve">
<g>
	<path fill="#FFFFFF" d="M71.092,19.83H37.944c-2.359,0-4.279,1.92-4.279,4.282v2.733h-3.896c-2.36,0-4.28,1.921-4.28,4.279v44.441
		c0,2.359,1.92,4.278,4.28,4.278h33.148c2.358,0,4.279-1.919,4.279-4.278v-2.737h3.896c2.359,0,4.281-1.921,4.281-4.279V24.112
		C75.373,21.75,73.451,19.83,71.092,19.83z M63.772,75.564c0,0.47-0.384,0.855-0.855,0.855H29.769c-0.473,0-0.856-0.386-0.856-0.855
		V31.124c0-0.472,0.384-0.854,0.856-0.854h3.896v38.279c0,2.358,1.92,4.279,4.279,4.279h25.831v2.737H63.772z M71.947,68.548
		c0,0.475-0.383,0.86-0.855,0.86H37.944c-0.473,0-0.855-0.386-0.855-0.86V24.112c0-0.472,0.382-0.858,0.855-0.858h33.148
		c0.473,0,0.855,0.386,0.855,0.858V68.548z"/>
	<path fill="#FFFFFF" d="M67.072,30.464H41.964c-0.946,0-1.712,0.768-1.712,1.712c0,0.947,0.766,1.712,1.712,1.712h25.108
		c0.945,0,1.713-0.768,1.713-1.712C68.785,31.231,68.018,30.464,67.072,30.464z"/>
	<path fill="#FFFFFF" d="M67.072,38.613H41.964c-0.946,0-1.712,0.765-1.712,1.712c0,0.944,0.766,1.712,1.712,1.712h25.108
		c0.945,0,1.713-0.768,1.713-1.712C68.785,39.378,68.018,38.613,67.072,38.613z"/>
	<path fill="#FFFFFF" d="M67.072,46.759H41.964c-0.946,0-1.712,0.768-1.712,1.715c0,0.942,0.766,1.707,1.712,1.707h25.108
		c0.945,0,1.713-0.764,1.713-1.707C68.785,47.527,68.018,46.759,67.072,46.759z"/>
	<path fill="#FFFFFF" d="M67.072,54.909H41.964c-0.946,0-1.712,0.765-1.712,1.71c0,0.949,0.766,1.715,1.712,1.715h25.108
		c0.945,0,1.713-0.766,1.713-1.715C68.785,55.674,68.018,54.909,67.072,54.909z"/>
</g>
</svg>
