<?xml version="1.0" encoding="utf-8"?>
<!-- Generator: Adobe Illustrator 16.0.0, SVG Export Plug-In . SVG Version: 6.00 Build 0)  -->
<!DOCTYPE svg PUBLIC "-//W3C//DTD SVG 1.1//EN" "http://www.w3.org/Graphics/SVG/1.1/DTD/svg11.dtd">
<svg version="1.1" id="katman_1" xmlns="http://www.w3.org/2000/svg" xmlns:xlink="http://www.w3.org/1999/xlink" x="0px" y="0px"
	 width="170px" height="170.002px" viewBox="0 0 170 170.002" enable-background="new 0 0 170 170.002" xml:space="preserve">
<g id="women_6">
	<g>
		<circle fill="#B5342C" cx="85.49" cy="85.226" r="84.999"/>
		<path fill="#A32D27" d="M170.489,85.226c0-46.943-38.057-84.998-85-84.998v169.998C132.433,170.226,170.489,132.17,170.489,85.226
			z"/>
	</g>
	<g>
		<defs>
			<circle id="SVGID_1_" cx="85.49" cy="85.227" r="85"/>
		</defs>
		<clipPath id="SVGID_2_">
			<use xlink:href="#SVGID_1_"  overflow="visible"/>
		</clipPath>
		<g clip-path="url(#SVGID_2_)">
			<path fill="#87181A" d="M85.647,147.742H55.238c0,0-14.035-13.568-7.018-33.686c7.018-20.115,13.1-28.068,13.567-49.588
				c21.052,0,23.859,0,23.859,0V147.742z"/>
			<path fill="#87181A" d="M84.862,147.742h30.408c0,0,14.035-13.568,7.018-33.686c-7.018-20.115-13.099-28.068-13.566-49.588
				c-21.053,0-23.859,0-23.859,0V147.742z"/>
			<circle fill="#87181A" cx="85.647" cy="55.355" r="37.201"/>
			<polygon fill="#EAC8AD" points="98.094,135.021 85.49,170.377 73.201,135.021 73.201,107.727 98.094,107.727 			"/>
			<g>
				<path fill="#F2D7BC" d="M85.647,32.079c-12.086,0-31.199,6.871-31.199,39.067c0,18.588,7.246,27.352,9.886,30.721
					c2.431,3.1,14.904,13.119,21.313,13.119C85.647,82.448,85.647,32.079,85.647,32.079z"/>
				<path fill="#F2D7BC" d="M48.435,78.822c-0.533-5.145,1.919-9.709,5.474-10.197c3.558-0.487,6.872,3.288,7.405,8.432
					c0.533,5.143-1.919,9.707-5.475,10.195C52.283,87.738,48.968,83.965,48.435,78.822z"/>
			</g>
			<g>
				<g>
					<g>
						<path fill="#EAC0A8" d="M85.549,32.079c12.086,0,31.199,6.871,31.199,39.067c0,18.588-7.245,27.352-9.886,30.721
							c-2.432,3.1-14.904,13.119-21.313,13.119C85.549,82.448,85.549,32.079,85.549,32.079z"/>
					</g>
					<g>
						<path fill="#EAC0A8" d="M122.858,78.822c0.533-5.145-1.918-9.709-5.473-10.197c-3.557-0.487-6.871,3.288-7.405,8.432
							c-0.533,5.143,1.919,9.707,5.476,10.195C119.011,87.738,122.326,83.965,122.858,78.822z"/>
					</g>
				</g>
			</g>
			<path fill="#87181A" d="M85.237,24.281c-0.58-0.074-1.184-0.125-1.833-0.131c0,0-20.415,1.528-26.096,28.116
				c-2.727,2.045-7.726,9.999-1.136,18.861c0.908-7.499,3.656-12.931,8.407-14.999c8.433-3.668,11.905-0.26,21.676-7.758
				c5.707-4.38,7.759-13.186,6.498-18.107C90.483,24.15,84.688,24.379,85.237,24.281z"/>
			<path fill="#87181A" d="M91.461,31.668c0,0-7.358,27.451,24.769,38.945C123.928,45.484,109.866,29.093,91.461,31.668z"/>
			
				<rect x="53.458" y="84.727" transform="matrix(0.707 -0.7072 0.7072 0.707 -44.843 64.0452)" fill="#FAEA27" width="2.834" height="2.832"/>
			
				<rect x="115.43" y="84.727" transform="matrix(0.7071 -0.7071 0.7071 0.7071 -26.6891 107.8539)" fill="#FAEA27" width="2.834" height="2.833"/>
			<path fill="#F7A421" d="M85.49,170.377v-34c0,0-9.286-2.301-11.333-9.824c-0.983-3.615-0.956-6.516-0.956-6.516
				s-20.305,6.857-24.838,13.941c-3.772,11.229-4.807,36.398-4.807,36.398H85.49z"/>
			<path fill="#F28D24" d="M85.49,170.377v-34c0,0,9.287-2.301,11.333-9.824c0.983-3.615,0.955-6.516,0.955-6.516
				s20.306,6.857,24.838,13.941c3.773,11.229,4.807,36.398,4.807,36.398H85.49z"/>
			<path fill="#FFFFFF" d="M85.647,103.646c4.711,0,8.531-2.893,8.531-6.461H77.117C77.117,100.754,80.936,103.646,85.647,103.646z"
				/>
		</g>
	</g>
</g>
</svg>
