<?xml version="1.0" encoding="utf-8"?>
<!-- Generator: Adobe Illustrator 15.1.0, SVG Export Plug-In . SVG Version: 6.00 Build 0)  -->
<!DOCTYPE svg PUBLIC "-//W3C//DTD SVG 1.1//EN" "http://www.w3.org/Graphics/SVG/1.1/DTD/svg11.dtd">
<svg version="1.1" id="Layer_1" xmlns="http://www.w3.org/2000/svg" xmlns:xlink="http://www.w3.org/1999/xlink" x="0px" y="0px"
	 width="1920px" height="1080px" viewBox="0 0 1920 1080" enable-background="new 0 0 1920 1080" xml:space="preserve">
<path fill="#DFEBF8" stroke="#DFEBF8" stroke-width="1.51" d="M-165-236l421,84l380,2L-165-236z"/>
<path fill="#BBD8EB" stroke="#BBD8EB" stroke-width="1.51" d="M636-150l143-10l241-36L636-150z"/>
<path fill="#D3E5F3" stroke="#D3E5F3" stroke-width="1.51" d="M-165-236l801,86l384-46L-165-236z"/>
<path fill="#677FAB" stroke="#677FAB" stroke-width="1.51" d="M276,1289l-371,13l1369,1L276,1289z"/>
<path fill="#3D6DA4" stroke="#3D6DA4" stroke-width="1.51" d="M995,1260l-230,3l509,40L995,1260z"/>
<path fill="#5277A7" stroke="#5277A7" stroke-width="1.51" d="M765,1263l-489,26l998,14L765,1263z"/>
<path fill="#C6DFEE" stroke="#C6DFEE" stroke-width="1.51" d="M-165-236l1185,40l275-40H-165z"/>
<path fill="#BEDAED" stroke="#BEDAED" stroke-width="1.51" d="M-165-236h1460l71-2L-165-236z"/>
<path fill="#1D5694" stroke="#1D5694" stroke-width="1.51" d="M1454,1281l-180,22l404,9L1454,1281z"/>
<path fill="#96ADD6" stroke="#96ADD6" stroke-width="1.51" d="M1366-238l392,22l76-10L1366-238z"/>
<path fill="#8B99C4" stroke="#8B99C4" stroke-width="1.51" d="M1834-226l146,62l70-10L1834-226z"/>
<path fill="#5D7FAE" stroke="#5D7FAE" stroke-width="1.51" d="M2052,277l-47,48l85,113L2052,277z"/>
<path fill="#1D5999" stroke="#1D5999" stroke-width="1.51" d="M2088,737l-109,207l166,1L2088,737z"/>
<path fill="#094488" stroke="#094488" stroke-width="1.51" d="M2049,1151l71,108l25-314L2049,1151z"/>
<path fill="#104C8F" stroke="#104C8F" stroke-width="1.51" d="M2046,1015l3,136l96-206L2046,1015z"/>
<path fill="#255D9A" stroke="#255D9A" stroke-width="1.51" d="M2099,677l-11,60l57,208L2099,677z"/>
<path fill="#3C6EA5" stroke="#3C6EA5" stroke-width="1.51" d="M1955,596l144,81l59-192L1955,596z"/>
<path fill="#4674A8" stroke="#4674A8" stroke-width="1.51" d="M2090,438l-135,158l203-111L2090,438z"/>
<path fill="#607DAA" stroke="#607DAA" stroke-width="1.51" d="M2115,143l-63,134l106,208L2115,143z"/>
<path fill="#5478A8" stroke="#5478A8" stroke-width="1.51" d="M2052,277l38,161l68,47L2052,277z"/>
<path fill="#687FAC" stroke="#687FAC" stroke-width="1.51" d="M2103,35l12,108l43,342L2103,35z"/>
<path fill="#7082AF" stroke="#7082AF" stroke-width="1.51" d="M2092-70l11,105l55,450L2092-70z"/>
<path fill="#2D639B" stroke="#2D639B" stroke-width="1.51" d="M2099,677l46,268l13-460L2099,677z"/>
<path fill="#2461A0" stroke="#2461A0" stroke-width="1.51" d="M2006,727l-27,217l109-207L2006,727z"/>
<path fill="#145296" stroke="#145296" stroke-width="1.51" d="M1979,944l67,71l99-70L1979,944z"/>
<path fill="#7C8CB6" stroke="#7C8CB6" stroke-width="1.51" d="M2092-70l-77,20l88,85L2092-70z"/>
<path fill="#7487B3" stroke="#7487B3" stroke-width="1.51" d="M2103,35l-94,81l106,27L2103,35z"/>
<path fill="#6F85B3" stroke="#6F85B3" stroke-width="1.51" d="M2009,116l43,161l63-134L2009,116z"/>
<path fill="#093F81" stroke="#093F81" stroke-width="1.51" d="M2049,1151l-47,43l118,65L2049,1151z"/>
<path fill="#093D7E" stroke="#093D7E" stroke-width="1.51" d="M2002,1194l-75,117l193-52L2002,1194z"/>
<path fill="#0E4C92" stroke="#0E4C92" stroke-width="1.51" d="M2046,1015l-49,17l52,119L2046,1015z"/>
<path fill="#8290B9" stroke="#8290B9" stroke-width="1.51" d="M2050-174l-35,124l77-20L2050-174z"/>
<path fill="#2D66A0" stroke="#2D66A0" stroke-width="1.51" d="M2006,727l82,10l11-60L2006,727z"/>
<path fill="#346CA6" stroke="#346CA6" stroke-width="1.51" d="M1955,596l51,131l93-50L1955,596z"/>
<path fill="#798CB8" stroke="#798CB8" stroke-width="1.51" d="M2015-50l-6,166l94-81L2015-50z"/>
<path fill="#2464A5" stroke="#2464A5" stroke-width="1.51" d="M1905,758l74,186l27-217L1905,758z"/>
<path fill="#5B80B0" stroke="#5B80B0" stroke-width="1.51" d="M2005,325l-74,35l159,78L2005,325z"/>
<path fill="#4E7BAF" stroke="#4E7BAF" stroke-width="1.51" d="M1931,360l24,236l135-158L1931,360z"/>
<path fill="#7189B8" stroke="#7189B8" stroke-width="1.51" d="M2009,116l-70,23l113,138L2009,116z"/>
<path fill="#4F80B7" stroke="#4F80B7" stroke-width="1.51" d="M1931,360l-95,92l119,144L1931,360z"/>
<path fill="#1E62A5" stroke="#1E62A5" stroke-width="1.51" d="M1905,758l-17,143l91,43L1905,758z"/>
<path fill="#336EAA" stroke="#336EAA" stroke-width="1.51" d="M1955,596l-5,111l56,20L1955,596z"/>
<path fill="#7C90BE" stroke="#7C90BE" stroke-width="1.51" d="M1898,32l111,84l6-166L1898,32z"/>
<path fill="#135398" stroke="#135398" stroke-width="1.51" d="M1979,944l18,88l49-17L1979,944z"/>
<path fill="#09488F" stroke="#09488F" stroke-width="1.51" d="M1997,1032l5,162l47-43L1997,1032z"/>
<path fill="#8593BD" stroke="#8593BD" stroke-width="1.51" d="M1980-164l35,114l35-124L1980-164z"/>
<path fill="#6986B6" stroke="#6986B6" stroke-width="1.51" d="M1939,139l66,186l47-48L1939,139z"/>
<path fill="#094B93" stroke="#094B93" stroke-width="1.51" d="M1997,1032l-113,125l118,37L1997,1032z"/>
<path fill="#7290C2" stroke="#7290C2" stroke-width="1.51" d="M1838,172l-5,129l106-162L1838,172z"/>
<path fill="#487EB8" stroke="#487EB8" stroke-width="1.51" d="M1836,452l-3,69l122,75L1836,452z"/>
<path fill="#094285" stroke="#094285" stroke-width="1.51" d="M1888,1242l39,69l75-117L1888,1242z"/>
<path fill="#6B8BBC" stroke="#6B8BBC" stroke-width="1.51" d="M1939,139l-106,162l172,24L1939,139z"/>
<path fill="#6287B9" stroke="#6287B9" stroke-width="1.51" d="M1833,301l98,59l74-35L1833,301z"/>
<path fill="#2C6BA9" stroke="#2C6BA9" stroke-width="1.51" d="M1950,707l-45,51l101-31L1950,707z"/>
<path fill="#798FBE" stroke="#798FBE" stroke-width="1.51" d="M1898,32l41,107l70-23L1898,32z"/>
<path fill="#8696C2" stroke="#8696C2" stroke-width="1.51" d="M1980-164l-103,63l138,51L1980-164z"/>
<path fill="#8295C3" stroke="#8295C3" stroke-width="1.51" d="M1877-101l21,133l117-82L1877-101z"/>
<path fill="#3873AE" stroke="#3873AE" stroke-width="1.51" d="M1917,612l33,95l5-111L1917,612z"/>
<path fill="#09478D" stroke="#09478D" stroke-width="1.51" d="M1884,1157l4,85l114-48L1884,1157z"/>
<path fill="#165FA5" stroke="#165FA5" stroke-width="1.51" d="M1888,901l-87,66l178-23L1888,901z"/>
<path fill="#14599F" stroke="#14599F" stroke-width="1.51" d="M1979,944l-178,23l196,65L1979,944z"/>
<path fill="#0F559D" stroke="#0F559D" stroke-width="1.51" d="M1801,967l83,190l113-125L1801,967z"/>
<path fill="#1159A2" stroke="#1159A2" stroke-width="1.51" d="M1801,967l-31,61l114,129L1801,967z"/>
<path fill="#4079B4" stroke="#4079B4" stroke-width="1.51" d="M1833,521l84,91l38-16L1833,521z"/>
<path fill="#8B9CC9" stroke="#8B9CC9" stroke-width="1.51" d="M1834-226l43,125l103-63L1834-226z"/>
<path fill="#0D468A" stroke="#0D468A" stroke-width="1.51" d="M1732,1264l-54,48l249-1L1732,1264z"/>
<path fill="#3170AD" stroke="#3170AD" stroke-width="1.51" d="M1917,612l-12,146l45-51L1917,612z"/>
<path fill="#3576B4" stroke="#3576B4" stroke-width="1.51" d="M1734,653l171,105l12-146L1734,653z"/>
<path fill="#7992C3" stroke="#7992C3" stroke-width="1.51" d="M1898,32l-60,140l101-33L1898,32z"/>
<path fill="#246AAD" stroke="#246AAD" stroke-width="1.51" d="M1765,813l123,88l17-143L1765,813z"/>
<path fill="#5F88BD" stroke="#5F88BD" stroke-width="1.51" d="M1833,301l3,151l95-92L1833,301z"/>
<path fill="#5E8BBF" stroke="#5E8BBF" stroke-width="1.51" d="M1833,301l-53,103l56,48L1833,301z"/>
<path fill="#0D56A0" stroke="#0D56A0" stroke-width="1.51" d="M1770,1028l-8,92l122,37L1770,1028z"/>
<path fill="#09458A" stroke="#09458A" stroke-width="1.51" d="M1888,1242l-156,22l195,47L1888,1242z"/>
<path fill="#3F7CB8" stroke="#3F7CB8" stroke-width="1.51" d="M1833,521l-99,132l183-41L1833,521z"/>
<path fill="#7D97C8" stroke="#7D97C8" stroke-width="1.51" d="M1693,86l145,86l60-140L1693,86z"/>
<path fill="#869DCB" stroke="#869DCB" stroke-width="1.51" d="M1877-101l-178,5l199,128L1877-101z"/>
<path fill="#2D73B3" stroke="#2D73B3" stroke-width="1.51" d="M1734,653l31,160l140-55L1734,653z"/>
<path fill="#849ECC" stroke="#849ECC" stroke-width="1.51" d="M1699-96l-6,182l205-54L1699-96z"/>
<path fill="#8EA1CE" stroke="#8EA1CE" stroke-width="1.51" d="M1834-226l-76,10l119,115L1834-226z"/>
<path fill="#0A4E96" stroke="#0A4E96" stroke-width="1.51" d="M1884,1157l-122-37l126,122L1884,1157z"/>
<path fill="#0D4D94" stroke="#0D4D94" stroke-width="1.51" d="M1762,1120l-30,144l156-22L1762,1120z"/>
<path fill="#1D66AB" stroke="#1D66AB" stroke-width="1.51" d="M1765,813l36,154l87-66L1765,813z"/>
<path fill="#6E91C4" stroke="#6E91C4" stroke-width="1.51" d="M1768,277l65,24l5-129L1768,277z"/>
<path fill="#98B2DA" stroke="#98B2DA" stroke-width="1.51" d="M1366-238l149,77l243-55L1366-238z"/>
<path fill="#8DA3CF" stroke="#8DA3CF" stroke-width="1.51" d="M1758-216l-59,120l178-5L1758-216z"/>
<path fill="#87A3D0" stroke="#87A3D0" stroke-width="1.51" d="M1641-6l52,92l6-182L1641-6z"/>
<path fill="#1F68AE" stroke="#1F68AE" stroke-width="1.51" d="M1765,813l-48,102l84,52L1765,813z"/>
<path fill="#5087BE" stroke="#5087BE" stroke-width="1.51" d="M1780,404l-93,115l146,2L1780,404z"/>
<path fill="#4482BC" stroke="#4482BC" stroke-width="1.51" d="M1687,519l47,134l99-132L1687,519z"/>
<path fill="#6690C2" stroke="#6690C2" stroke-width="1.51" d="M1768,277l12,127l53-103L1768,277z"/>
<path fill="#5386BD" stroke="#5386BD" stroke-width="1.51" d="M1780,404l53,117l3-69L1780,404z"/>
<path fill="#7295C7" stroke="#7295C7" stroke-width="1.51" d="M1684,221l84,56l70-105L1684,221z"/>
<path fill="#7A99CA" stroke="#7A99CA" stroke-width="1.51" d="M1693,86l-9,135l154-49L1693,86z"/>
<path fill="#10549B" stroke="#10549B" stroke-width="1.51" d="M1657,1150l75,114l30-144L1657,1150z"/>
<path fill="#558BC1" stroke="#558BC1" stroke-width="1.51" d="M1674,459l13,60l93-115L1674,459z"/>
<path fill="#1862AA" stroke="#1862AA" stroke-width="1.51" d="M1717,915l53,113l31-61L1717,915z"/>
<path fill="#347BB8" stroke="#347BB8" stroke-width="1.51" d="M1734,653l-109,16l140,144L1734,653z"/>
<path fill="#2E78B7" stroke="#2E78B7" stroke-width="1.51" d="M1625,669l-13,160l153-16L1625,669z"/>
<path fill="#6694C5" stroke="#6694C5" stroke-width="1.51" d="M1768,277l-187,74l199,53L1768,277z"/>
<path fill="#5E91C5" stroke="#5E91C5" stroke-width="1.51" d="M1581,351l93,108l106-55L1581,351z"/>
<path fill="#93ADD6" stroke="#93ADD6" stroke-width="1.51" d="M1515-161l68,34l175-89L1515-161z"/>
<path fill="#246EB2" stroke="#246EB2" stroke-width="1.51" d="M1634,872l83,43l48-102L1634,872z"/>
<path fill="#6E97C8" stroke="#6E97C8" stroke-width="1.51" d="M1684,221l-103,130l187-74L1684,221z"/>
<path fill="#1B66AD" stroke="#1B66AD" stroke-width="1.51" d="M1717,915l-113,53l166,60L1717,915z"/>
<path fill="#115AA3" stroke="#115AA3" stroke-width="1.51" d="M1657,1150l105-30l8-92L1657,1150z"/>
<path fill="#1760A8" stroke="#1760A8" stroke-width="1.51" d="M1604,968l53,182l113-122L1604,968z"/>
<path fill="#2872B4" stroke="#2872B4" stroke-width="1.51" d="M1612,829l22,43l131-59L1612,829z"/>
<path fill="#90A8D3" stroke="#90A8D3" stroke-width="1.51" d="M1583-127l116,31l59-120L1583-127z"/>
<path fill="#7C9ECD" stroke="#7C9ECD" stroke-width="1.51" d="M1611,180l73,41l9-135L1611,180z"/>
<path fill="#125094" stroke="#125094" stroke-width="1.51" d="M1657,1150l21,162l54-48L1657,1150z"/>
<path fill="#4486BF" stroke="#4486BF" stroke-width="1.51" d="M1687,519l-93,52l140,82L1687,519z"/>
<path fill="#3F83BE" stroke="#3F83BE" stroke-width="1.51" d="M1594,571l31,98l109-16L1594,571z"/>
<path fill="#1A65AC" stroke="#1A65AC" stroke-width="1.51" d="M1604,968l-52,29l105,153L1604,968z"/>
<path fill="#206DB1" stroke="#206DB1" stroke-width="1.51" d="M1634,872l-30,96l113-53L1634,872z"/>
<path fill="#3368A0" stroke="#3368A0" stroke-width="1.51" d="M1151,1269l-156-9l279,43L1151,1269z"/>
<path fill="#1963AA" stroke="#1963AA" stroke-width="1.51" d="M1552,997l-27,107l132,46L1552,997z"/>
<path fill="#83A3D1" stroke="#83A3D1" stroke-width="1.51" d="M1641-6l-40,106l92-14L1641-6z"/>
<path fill="#7FA1D0" stroke="#7FA1D0" stroke-width="1.51" d="M1601,100l10,80l82-94L1601,100z"/>
<path fill="#8CA8D3" stroke="#8CA8D3" stroke-width="1.51" d="M1583-127l58,121l58-90L1583-127z"/>
<path fill="#155497" stroke="#155497" stroke-width="1.51" d="M1657,1150l-203,131l224,31L1657,1150z"/>
<path fill="#739CCC" stroke="#739CCC" stroke-width="1.51" d="M1611,180l-30,171l103-130L1611,180z"/>
<path fill="#4E8BC2" stroke="#4E8BC2" stroke-width="1.51" d="M1674,459l-80,112l93-52L1674,459z"/>
<path fill="#185DA2" stroke="#185DA2" stroke-width="1.51" d="M1525,1104l-71,177l203-131L1525,1104z"/>
<path fill="#5591C6" stroke="#5591C6" stroke-width="1.51" d="M1515,407l79,164l80-112L1515,407z"/>
<path fill="#6096C8" stroke="#6096C8" stroke-width="1.51" d="M1581,351l-66,56l159,52L1581,351z"/>
<path fill="#3380BD" stroke="#3380BD" stroke-width="1.51" d="M1489,731l123,98l13-160L1489,731z"/>
<path fill="#719FCE" stroke="#719FCE" stroke-width="1.51" d="M1454,320l127,31l30-171L1454,320z"/>
<path fill="#4288C1" stroke="#4288C1" stroke-width="1.51" d="M1594,571l-59,50l90,48L1594,571z"/>
<path fill="#87A7D4" stroke="#87A7D4" stroke-width="1.51" d="M1482,19l119,81l40-106L1482,19z"/>
<path fill="#8BABD6" stroke="#8BABD6" stroke-width="1.51" d="M1583-127L1482,19l159-25L1583-127z"/>
<path fill="#5494C8" stroke="#5494C8" stroke-width="1.51" d="M1515,407l-63,105l142,59L1515,407z"/>
<path fill="#80A3D2" stroke="#80A3D2" stroke-width="1.51" d="M1601,100l-47,27l57,53L1601,100z"/>
<path fill="#2674B7" stroke="#2674B7" stroke-width="1.51" d="M1612,829l-139,121l161-78L1612,829z"/>
<path fill="#2170B4" stroke="#2170B4" stroke-width="1.51" d="M1473,950l131,18l30-96L1473,950z"/>
<path fill="#90AFD8" stroke="#90AFD8" stroke-width="1.51" d="M1470-108l12,127l101-146L1470-108z"/>
<path fill="#3C86C1" stroke="#3C86C1" stroke-width="1.51" d="M1535,621l-46,110l136-62L1535,621z"/>
<path fill="#84A8D4" stroke="#84A8D4" stroke-width="1.51" d="M1482,19l72,108l47-27L1482,19z"/>
<path fill="#206EB3" stroke="#206EB3" stroke-width="1.51" d="M1473,950l79,47l52-29L1473,950z"/>
<path fill="#7AA3D1" stroke="#7AA3D1" stroke-width="1.51" d="M1554,127l-100,193l157-140L1554,127z"/>
<path fill="#2D7BBA" stroke="#2D7BBA" stroke-width="1.51" d="M1489,731l-16,219l139-121L1489,731z"/>
<path fill="#4A8FC6" stroke="#4A8FC6" stroke-width="1.51" d="M1452,512l83,109l59-50L1452,512z"/>
<path fill="#93B1D9" stroke="#93B1D9" stroke-width="1.51" d="M1515-161l-45,53l113-19L1515-161z"/>
<path fill="#699ECC" stroke="#699ECC" stroke-width="1.51" d="M1454,320l61,87l66-56L1454,320z"/>
<path fill="#3381BE" stroke="#3381BE" stroke-width="1.51" d="M1414,738l59,212l16-219L1414,738z"/>
<path fill="#206CB0" stroke="#206CB0" stroke-width="1.51" d="M1473,950l52,154l27-107L1473,950z"/>
<path fill="#87ACD6" stroke="#87ACD6" stroke-width="1.51" d="M1482,19l-145,116l217-8L1482,19z"/>
<path fill="#7EA9D4" stroke="#7EA9D4" stroke-width="1.51" d="M1337,135l117,185l100-193L1337,135z"/>
<path fill="#1F5EA0" stroke="#1F5EA0" stroke-width="1.51" d="M1386,1262l68,19l71-177L1386,1262z"/>
<path fill="#2264A6" stroke="#2264A6" stroke-width="1.51" d="M1338,1152l48,110l139-158L1338,1152z"/>
<path fill="#2570B3" stroke="#2570B3" stroke-width="1.51" d="M1473,950l-149,42l201,112L1473,950z"/>
<path fill="#4D93C8" stroke="#4D93C8" stroke-width="1.51" d="M1452,512l-107,77l190,32L1452,512z"/>
<path fill="#3D88C2" stroke="#3D88C2" stroke-width="1.51" d="M1414,738l75-7l46-110L1414,738z"/>
<path fill="#448EC5" stroke="#448EC5" stroke-width="1.51" d="M1345,589l69,149l121-117L1345,589z"/>
<path fill="#235D99" stroke="#235D99" stroke-width="1.51" d="M1386,1262l-112,41l180-22L1386,1262z"/>
<path fill="#2B77B8" stroke="#2B77B8" stroke-width="1.51" d="M1367,951l-43,41l149-42L1367,951z"/>
<path fill="#2F7CBB" stroke="#2F7CBB" stroke-width="1.51" d="M1414,738l-47,213l106-1L1414,738z"/>
<path fill="#266DAF" stroke="#266DAF" stroke-width="1.51" d="M1324,992l14,160l187-48L1324,992z"/>
<path fill="#68A1CE" stroke="#68A1CE" stroke-width="1.51" d="M1454,320l-131,120l192-33L1454,320z"/>
<path fill="#5F9CCC" stroke="#5F9CCC" stroke-width="1.51" d="M1323,440l129,72l63-105L1323,440z"/>
<path fill="#99B7DC" stroke="#99B7DC" stroke-width="1.51" d="M1366-238l104,130l45-53L1366-238z"/>
<path fill="#4490C6" stroke="#4490C6" stroke-width="1.51" d="M1345,589l-4,120l73,29L1345,589z"/>
<path fill="#9AB9DD" stroke="#9AB9DD" stroke-width="1.51" d="M1366-238l13,125l91,5L1366-238z"/>
<path fill="#92B4DA" stroke="#92B4DA" stroke-width="1.51" d="M1470-108l-91-5l103,132L1470-108z"/>
<path fill="#8BB1D9" stroke="#8BB1D9" stroke-width="1.51" d="M1325,87l12,48l145-116L1325,87z"/>
<path fill="#7AABD4" stroke="#7AABD4" stroke-width="1.51" d="M1337,135l-17,201l134-16L1337,135z"/>
<path fill="#6EA6D0" stroke="#6EA6D0" stroke-width="1.51" d="M1320,336l3,104l131-120L1320,336z"/>
<path fill="#90B4DA" stroke="#90B4DA" stroke-width="1.51" d="M1379-113l-54,200l157-68L1379-113z"/>
<path fill="#3785C0" stroke="#3785C0" stroke-width="1.51" d="M1269,794l98,157l47-213L1269,794z"/>
<path fill="#589BCC" stroke="#589BCC" stroke-width="1.51" d="M1323,440l22,149l107-77L1323,440z"/>
<path fill="#6882AF" stroke="#6882AF" stroke-width="1.51" d="M425,1251l-149,38l489-26L425,1251z"/>
<path fill="#94BADD" stroke="#94BADD" stroke-width="1.51" d="M1266-98l-28,123l87,62L1266-98z"/>
<path fill="#579DCC" stroke="#579DCC" stroke-width="1.51" d="M1323,440l-19,125l41,24L1323,440z"/>
<path fill="#95BADD" stroke="#95BADD" stroke-width="1.51" d="M1266-98l59,185l54-200L1266-98z"/>
<path fill="#3D8CC3" stroke="#3D8CC3" stroke-width="1.51" d="M1341,709l-72,85l145-56L1341,709z"/>
<path fill="#5EA1CE" stroke="#5EA1CE" stroke-width="1.51" d="M1293,454l11,111l19-125L1293,454z"/>
<path fill="#7CAED6" stroke="#7CAED6" stroke-width="1.51" d="M1250,321l70,15l17-201L1250,321z"/>
<path fill="#84B3D8" stroke="#84B3D8" stroke-width="1.51" d="M1256,142l-6,179l87-186L1256,142z"/>
<path fill="#2C74B4" stroke="#2C74B4" stroke-width="1.51" d="M1324,992l-22,5l36,155L1324,992z"/>
<path fill="#4A95C8" stroke="#4A95C8" stroke-width="1.51" d="M1284,625l57,84l4-120L1284,625z"/>
<path fill="#3683BF" stroke="#3683BF" stroke-width="1.51" d="M1269,794l-57,127l155,30L1269,794z"/>
<path fill="#9EBEDF" stroke="#9EBEDF" stroke-width="1.51" d="M1366-238l-71,2l84,123L1366-238z"/>
<path fill="#9CBFDF" stroke="#9CBFDF" stroke-width="1.51" d="M1295-236l-29,138l113-15L1295-236z"/>
<path fill="#2662A0" stroke="#2662A0" stroke-width="1.51" d="M1338,1152l-64,151l112-41L1338,1152z"/>
<path fill="#2A68A5" stroke="#2A68A5" stroke-width="1.51" d="M1204,1180l70,123l64-151L1204,1180z"/>
<path fill="#2D79B8" stroke="#2D79B8" stroke-width="1.51" d="M1302,997l22-5l43-41L1302,997z"/>
<path fill="#317DBB" stroke="#317DBB" stroke-width="1.51" d="M1212,921l90,76l65-46L1212,921z"/>
<path fill="#69A6D0" stroke="#69A6D0" stroke-width="1.51" d="M1320,336l-27,118l30-14L1320,336z"/>
<path fill="#2C71B1" stroke="#2C71B1" stroke-width="1.51" d="M1302,997l-98,183l134-28L1302,997z"/>
<path fill="#5099CA" stroke="#5099CA" stroke-width="1.51" d="M1304,565l-20,60l61-36L1304,565z"/>
<path fill="#70AAD2" stroke="#70AAD2" stroke-width="1.51" d="M1250,321l43,133l27-118L1250,321z"/>
<path fill="#4995C8" stroke="#4995C8" stroke-width="1.51" d="M1284,625l-86,70l143,14L1284,625z"/>
<path fill="#4291C5" stroke="#4291C5" stroke-width="1.51" d="M1198,695l71,99l72-85L1198,695z"/>
<path fill="#8BB4DA" stroke="#8BB4DA" stroke-width="1.51" d="M1325,87l-69,55l81-7L1325,87z"/>
<path fill="#70ABD3" stroke="#70ABD3" stroke-width="1.51" d="M1250,321l-55,64l98,69L1250,321z"/>
<path fill="#3276B4" stroke="#3276B4" stroke-width="1.51" d="M1111,1108l93,72l98-183L1111,1108z"/>
<path fill="#8EB8DC" stroke="#8EB8DC" stroke-width="1.51" d="M1238,25l18,117l69-55L1238,25z"/>
<path fill="#9FC2E1" stroke="#9FC2E1" stroke-width="1.51" d="M1189-103l77,5l29-138L1189-103z"/>
<path fill="#A8C9E5" stroke="#A8C9E5" stroke-width="1.51" d="M1020-196l91,59l184-99L1020-196z"/>
<path fill="#3780BC" stroke="#3780BC" stroke-width="1.51" d="M1212,921l-110,73l200,3L1212,921z"/>
<path fill="#377CB9" stroke="#377CB9" stroke-width="1.51" d="M1102,994l9,114l191-111L1102,994z"/>
<path fill="#5BA2CE" stroke="#5BA2CE" stroke-width="1.51" d="M1293,454l-137,93l148,18L1293,454z"/>
<path fill="#549DCD" stroke="#549DCD" stroke-width="1.51" d="M1156,547l128,78l20-60L1156,547z"/>
<path fill="#88B6DA" stroke="#88B6DA" stroke-width="1.51" d="M1099,150l151,171l6-179L1099,150z"/>
<path fill="#90BADD" stroke="#90BADD" stroke-width="1.51" d="M1238,25l-54,85l72,32L1238,25z"/>
<path fill="#2F67A2" stroke="#2F67A2" stroke-width="1.51" d="M1204,1180l-53,89l123,34L1204,1180z"/>
<path fill="#67A7D1" stroke="#67A7D1" stroke-width="1.51" d="M1195,385l-39,162l137-93L1195,385z"/>
<path fill="#A2C5E3" stroke="#A2C5E3" stroke-width="1.51" d="M1111-137l78,34l106-133L1111-137z"/>
<path fill="#9AC0E0" stroke="#9AC0E0" stroke-width="1.51" d="M1189-103l49,128l28-123L1189-103z"/>
<path fill="#90BADD" stroke="#90BADD" stroke-width="1.51" d="M1184,110l-85,40l157-8L1184,110z"/>
<path fill="#3E8AC3" stroke="#3E8AC3" stroke-width="1.51" d="M1138,847l74,74l57-127L1138,847z"/>
<path fill="#529CCC" stroke="#529CCC" stroke-width="1.51" d="M1156,547l42,148l86-70L1156,547z"/>
<path fill="#84B6DA" stroke="#84B6DA" stroke-width="1.51" d="M1099,150l-8,173l159-2L1099,150z"/>
<path fill="#4693C7" stroke="#4693C7" stroke-width="1.51" d="M1198,695l-54,49l125,50L1198,695z"/>
<path fill="#B6D5EB" stroke="#B6D5EB" stroke-width="1.51" d="M779-160l62,4l179-40L779-160z"/>
<path fill="#4490C6" stroke="#4490C6" stroke-width="1.51" d="M1144,744l-6,103l131-53L1144,744z"/>
<path fill="#79B1D6" stroke="#79B1D6" stroke-width="1.51" d="M1091,323l104,62l55-64L1091,323z"/>
<path fill="#9CC2E1" stroke="#9CC2E1" stroke-width="1.51" d="M1189-103l-121,62l170,66L1189-103z"/>
<path fill="#98BFE0" stroke="#98BFE0" stroke-width="1.51" d="M1068-41l116,151l54-85L1068-41z"/>
<path fill="#6CACD4" stroke="#6CACD4" stroke-width="1.51" d="M1001,462l155,85l39-162L1001,462z"/>
<path fill="#3D87C1" stroke="#3D87C1" stroke-width="1.51" d="M1138,847l-36,147l110-73L1138,847z"/>
<path fill="#579FCE" stroke="#579FCE" stroke-width="1.51" d="M991,672l153,72l12-197L991,672z"/>
<path fill="#60A5D1" stroke="#60A5D1" stroke-width="1.51" d="M1021,562l-30,110l165-125L1021,562z"/>
<path fill="#529BCB" stroke="#529BCB" stroke-width="1.51" d="M1156,547l-12,197l54-49L1156,547z"/>
<path fill="#3570AC" stroke="#3570AC" stroke-width="1.51" d="M1111,1108l40,161l53-89L1111,1108z"/>
<path fill="#98BFE0" stroke="#98BFE0" stroke-width="1.51" d="M1068-41l31,191l85-40L1068-41z"/>
<path fill="#78B2D7" stroke="#78B2D7" stroke-width="1.51" d="M1091,323l-90,139l194-77L1091,323z"/>
<path fill="#428AC3" stroke="#428AC3" stroke-width="1.51" d="M1046,909l56,85l36-147L1046,909z"/>
<path fill="#A2C6E3" stroke="#A2C6E3" stroke-width="1.51" d="M1111-137l-43,96l121-62L1111-137z"/>
<path fill="#9BC3E2" stroke="#9BC3E2" stroke-width="1.51" d="M1068-41l-61,145l92,46L1068-41z"/>
<path fill="#3E77B2" stroke="#3E77B2" stroke-width="1.51" d="M1015,1108l-20,152l116-152H1015z"/>
<path fill="#4892C7" stroke="#4892C7" stroke-width="1.51" d="M1072,832l66,15l6-103L1072,832z"/>
<path fill="#3970AA" stroke="#3970AA" stroke-width="1.51" d="M1111,1108l-116,152l156,9L1111,1108z"/>
<path fill="#67AAD4" stroke="#67AAD4" stroke-width="1.51" d="M1001,462l20,100l135-15L1001,462z"/>
<path fill="#8EBDDE" stroke="#8EBDDE" stroke-width="1.51" d="M981,180l110,143l8-173L981,180z"/>
<path fill="#478FC5" stroke="#478FC5" stroke-width="1.51" d="M1072,832l-26,77l92-62L1072,832z"/>
<path fill="#4F9ACB" stroke="#4F9ACB" stroke-width="1.51" d="M991,672l81,160l72-88L991,672z"/>
<path fill="#3F7FBA" stroke="#3F7FBA" stroke-width="1.51" d="M1102,994l-92,66l101,48L1102,994z"/>
<path fill="#D2E4F2" stroke="#D2E4F2" stroke-width="1.51" d="M256-152l247,26l133-24L256-152z"/>
<path fill="#A9CCE7" stroke="#A9CCE7" stroke-width="1.51" d="M1020-196l-71,81l119,74L1020-196z"/>
<path fill="#8CBDDD" stroke="#8CBDDD" stroke-width="1.51" d="M981,180l-21,108l131,35L981,180z"/>
<path fill="#3F7DB8" stroke="#3F7DB8" stroke-width="1.51" d="M1010,1060l5,48h96L1010,1060z"/>
<path fill="#A7CAE5" stroke="#A7CAE5" stroke-width="1.51" d="M1020-196l48,155l43-96L1020-196z"/>
<path fill="#549CCB" stroke="#549CCB" stroke-width="1.51" d="M991,672l-66,116l147,44L991,672z"/>
<path fill="#7EB7D9" stroke="#7EB7D9" stroke-width="1.51" d="M934,361l67,101l90-139L934,361z"/>
<path fill="#4385BF" stroke="#4385BF" stroke-width="1.51" d="M1046,909l-36,151l92-66L1046,909z"/>
<path fill="#97C1E1" stroke="#97C1E1" stroke-width="1.51" d="M1007,104l-26,76l118-30L1007,104z"/>
<path fill="#D6E5F4" stroke="#D6E5F4" stroke-width="1.51" d="M256-152l164,28l83-2L256-152z"/>
<path fill="#86BBDC" stroke="#86BBDC" stroke-width="1.51" d="M960,288l-26,73l157-38L960,288z"/>
<path fill="#4875AA" stroke="#4875AA" stroke-width="1.51" d="M913,1228l-148,35l230-3L913,1228z"/>
<path fill="#488AC2" stroke="#488AC2" stroke-width="1.51" d="M896,964l114,96l36-151L896,964z"/>
<path fill="#9FC6E3" stroke="#9FC6E3" stroke-width="1.51" d="M953,92l54,12l61-145L953,92z"/>
<path fill="#A4CAE5" stroke="#A4CAE5" stroke-width="1.51" d="M949-115l4,207l115-133L949-115z"/>
<path fill="#4D94C8" stroke="#4D94C8" stroke-width="1.51" d="M925,788l121,121l26-77L925,788z"/>
<path fill="#5095C9" stroke="#5095C9" stroke-width="1.51" d="M925,788l-17,105l138,16L925,788z"/>
<path fill="#4276AF" stroke="#4276AF" stroke-width="1.51" d="M913,1228l82,32l20-152L913,1228z"/>
<path fill="#64A8D3" stroke="#64A8D3" stroke-width="1.51" d="M950,578l41,94l30-110L950,578z"/>
<path fill="#4D90C6" stroke="#4D90C6" stroke-width="1.51" d="M908,893l-12,71l150-55L908,893z"/>
<path fill="#467AB3" stroke="#467AB3" stroke-width="1.51" d="M864,1187l49,41l102-120L864,1187z"/>
<path fill="#6AADD5" stroke="#6AADD5" stroke-width="1.51" d="M1001,462l-51,116l71-16L1001,462z"/>
<path fill="#B0D2EA" stroke="#B0D2EA" stroke-width="1.51" d="M841-156l108,41l71-81L841-156z"/>
<path fill="#64A8D3" stroke="#64A8D3" stroke-width="1.51" d="M950,578l-33,35l74,59L950,578z"/>
<path fill="#9BC4E3" stroke="#9BC4E3" stroke-width="1.51" d="M953,92l28,88l26-76L953,92z"/>
<path fill="#457EB9" stroke="#457EB9" stroke-width="1.51" d="M1010,1060l-146,127l151-79L1010,1060z"/>
<path fill="#93C1E0" stroke="#93C1E0" stroke-width="1.51" d="M895,230l65,58l21-108L895,230z"/>
<path fill="#4B84BD" stroke="#4B84BD" stroke-width="1.51" d="M896,964l-32,223l146-127L896,964z"/>
<path fill="#5288BF" stroke="#5288BF" stroke-width="1.51" d="M796,1018l68,169l32-223L796,1018z"/>
<path fill="#AACEE7" stroke="#AACEE7" stroke-width="1.51" d="M949-115L751,35l202,57L949-115z"/>
<path fill="#71B1D8" stroke="#71B1D8" stroke-width="1.51" d="M794,539l156,39l51-116L794,539z"/>
<path fill="#7CB6DA" stroke="#7CB6DA" stroke-width="1.51" d="M934,361L794,539l207-77L934,361z"/>
<path fill="#B3D3E9" stroke="#B3D3E9" stroke-width="1.51" d="M777-100L751,35l198-150L777-100z"/>
<path fill="#5DA2CF" stroke="#5DA2CF" stroke-width="1.51" d="M834,737l91,51l66-116L834,737z"/>
<path fill="#62A6D2" stroke="#62A6D2" stroke-width="1.51" d="M917,613l-83,124l157-65L917,613z"/>
<path fill="#5F80AE" stroke="#5F80AE" stroke-width="1.51" d="M698,1236l-273,15l340,12L698,1236z"/>
<path fill="#5587BD" stroke="#5587BD" stroke-width="1.51" d="M796,1018l-23,69l91,100L796,1018z"/>
<path fill="#9BC4E3" stroke="#9BC4E3" stroke-width="1.51" d="M953,92l-58,138l86-50L953,92z"/>
<path fill="#88BDDC" stroke="#88BDDC" stroke-width="1.51" d="M761,380l33,159l108-196L761,380z"/>
<path fill="#84BBDB" stroke="#84BBDB" stroke-width="1.51" d="M902,343L794,539l140-178L902,343z"/>
<path fill="#B5D4EA" stroke="#B5D4EA" stroke-width="1.51" d="M841-156l-64,56l172-15L841-156z"/>
<path fill="#9EC7E3" stroke="#9EC7E3" stroke-width="1.51" d="M810,201l85,29l58-138L810,201z"/>
<path fill="#89BEDD" stroke="#89BEDD" stroke-width="1.51" d="M902,343l32,18l26-73L902,343z"/>
<path fill="#90C0DF" stroke="#90C0DF" stroke-width="1.51" d="M895,230l7,113l58-55L895,230z"/>
<path fill="#6EAFD6" stroke="#6EAFD6" stroke-width="1.51" d="M794,539l123,74l33-35L794,539z"/>
<path fill="#A7CBE6" stroke="#A7CBE6" stroke-width="1.51" d="M751,35l59,166L953,92L751,35z"/>
<path fill="#5B9DCD" stroke="#5B9DCD" stroke-width="1.51" d="M834,737l74,156l17-105L834,737z"/>
<path fill="#94C3DF" stroke="#94C3DF" stroke-width="1.51" d="M895,230l-90,47l97,66L895,230z"/>
<path fill="#609ECD" stroke="#609ECD" stroke-width="1.51" d="M834,737L728,845l180,48L834,737z"/>
<path fill="#68A9D2" stroke="#68A9D2" stroke-width="1.51" d="M780,696l54,41l83-124L780,696z"/>
<path fill="#4D79AD" stroke="#4D79AD" stroke-width="1.51" d="M864,1187l-99,76l148-35L864,1187z"/>
<path fill="#70AED6" stroke="#70AED6" stroke-width="1.51" d="M794,539l-14,157l137-83L794,539z"/>
<path fill="#5B94C8" stroke="#5B94C8" stroke-width="1.51" d="M728,845l68,173l100-54L728,845z"/>
<path fill="#5A97C9" stroke="#5A97C9" stroke-width="1.51" d="M728,845l168,119l12-71L728,845z"/>
<path fill="#92C3DF" stroke="#92C3DF" stroke-width="1.51" d="M805,277l-44,103l141-37L805,277z"/>
<path fill="#9CC6E2" stroke="#9CC6E2" stroke-width="1.51" d="M810,201l-5,76l90-47L810,201z"/>
<path fill="#ADCFE7" stroke="#ADCFE7" stroke-width="1.51" d="M751,35l-60,99l119,67L751,35z"/>
<path fill="#5683B9" stroke="#5683B9" stroke-width="1.51" d="M773,1087l-65,98l156,2L773,1087z"/>
<path fill="#547EB1" stroke="#547EB1" stroke-width="1.51" d="M708,1185l57,78l99-76L708,1185z"/>
<path fill="#8ABEDD" stroke="#8ABEDD" stroke-width="1.51" d="M761,380l-65,44l98,115L761,380z"/>
<path fill="#6399CA" stroke="#6399CA" stroke-width="1.51" d="M728,845l-66,98l134,75L728,845z"/>
<path fill="#68A6D1" stroke="#68A6D1" stroke-width="1.51" d="M780,696l-52,149l106-108L780,696z"/>
<path fill="#BAD8EB" stroke="#BAD8EB" stroke-width="1.51" d="M779-160l-2,60l64-56L779-160z"/>
<path fill="#75B1D7" stroke="#75B1D7" stroke-width="1.51" d="M683,658l97,38l14-157L683,658z"/>
<path fill="#6BA6D0" stroke="#6BA6D0" stroke-width="1.51" d="M681,810l47,35l52-149L681,810z"/>
<path fill="#9AC7E1" stroke="#9AC7E1" stroke-width="1.51" d="M682,302l79,78l44-103L682,302z"/>
<path fill="#9FC8E2" stroke="#9FC8E2" stroke-width="1.51" d="M682,302l123-25l5-76L682,302z"/>
<path fill="#A6CDE5" stroke="#A6CDE5" stroke-width="1.51" d="M691,134l-9,168l128-101L691,134z"/>
<path fill="#6684B3" stroke="#6684B3" stroke-width="1.51" d="M518,1206l-93,45l273-15L518,1206z"/>
<path fill="#7EB6D9" stroke="#7EB6D9" stroke-width="1.51" d="M656,545l27,113l111-119L656,545z"/>
<path fill="#BAD7EB" stroke="#BAD7EB" stroke-width="1.51" d="M636-75L751,35l26-135L636-75z"/>
<path fill="#86BCDC" stroke="#86BCDC" stroke-width="1.51" d="M696,424l-40,121l138-6L696,424z"/>
<path fill="#5C8DC1" stroke="#5C8DC1" stroke-width="1.51" d="M692,1058l81,29l23-69L692,1058z"/>
<path fill="#6193C5" stroke="#6193C5" stroke-width="1.51" d="M662,943l30,115l104-40L662,943z"/>
<path fill="#597EB0" stroke="#597EB0" stroke-width="1.51" d="M708,1185l-10,51l67,27L708,1185z"/>
<path fill="#5D89BE" stroke="#5D89BE" stroke-width="1.51" d="M692,1058l16,127l65-98L692,1058z"/>
<path fill="#BFDAEC" stroke="#BFDAEC" stroke-width="1.51" d="M636-150l141,50l2-60L636-150z"/>
<path fill="#70ACD3" stroke="#70ACD3" stroke-width="1.51" d="M683,658l-2,152l99-114L683,658z"/>
<path fill="#C1DCED" stroke="#C1DCED" stroke-width="1.51" d="M636-150v75l141-25L636-150z"/>
<path fill="#BBD8EB" stroke="#BBD8EB" stroke-width="1.51" d="M636-75L619,44l132-9L636-75z"/>
<path fill="#97C6E0" stroke="#97C6E0" stroke-width="1.51" d="M682,302l14,122l65-44L682,302z"/>
<path fill="#B5D4E9" stroke="#B5D4E9" stroke-width="1.51" d="M619,44l72,90l60-99L619,44z"/>
<path fill="#77AFD5" stroke="#77AFD5" stroke-width="1.51" d="M581,700l100,110l2-152L581,700z"/>
<path fill="#AED0E6" stroke="#AED0E6" stroke-width="1.51" d="M588,167l94,135l9-168L588,167z"/>
<path fill="#628BBF" stroke="#628BBF" stroke-width="1.51" d="M692,1058l-116,56l132,71L692,1058z"/>
<path fill="#6AA1CE" stroke="#6AA1CE" stroke-width="1.51" d="M681,810l-19,133l66-98L681,810z"/>
<path fill="#6DA0CD" stroke="#6DA0CD" stroke-width="1.51" d="M585,927l77,16l19-133L585,927z"/>
<path fill="#82B8DA" stroke="#82B8DA" stroke-width="1.51" d="M656,545l-61,29l88,84L656,545z"/>
<path fill="#6795C6" stroke="#6795C6" stroke-width="1.51" d="M662,943l-70,102l100,13L662,943z"/>
<path fill="#9FCAE2" stroke="#9FCAE2" stroke-width="1.51" d="M682,302l-144,33l158,89L682,302z"/>
<path fill="#6086B7" stroke="#6086B7" stroke-width="1.51" d="M576,1114l122,122l10-51L576,1114z"/>
<path fill="#B8D5E9" stroke="#B8D5E9" stroke-width="1.51" d="M619,44l-26,69l98,21L619,44z"/>
<path fill="#6790C3" stroke="#6790C3" stroke-width="1.51" d="M592,1045l-16,69l116-56L592,1045z"/>
<path fill="#94C3DF" stroke="#94C3DF" stroke-width="1.51" d="M484,401l172,144l40-121L484,401z"/>
<path fill="#6587B8" stroke="#6587B8" stroke-width="1.51" d="M576,1114l-58,92l180,30L576,1114z"/>
<path fill="#9FC9E2" stroke="#9FC9E2" stroke-width="1.51" d="M538,335l-54,66l212,23L538,335z"/>
<path fill="#8FC1DF" stroke="#8FC1DF" stroke-width="1.51" d="M484,401l111,173l61-29L484,401z"/>
<path fill="#AACFE5" stroke="#AACFE5" stroke-width="1.51" d="M588,167l-50,168l144-33L588,167z"/>
<path fill="#B5D4E9" stroke="#B5D4E9" stroke-width="1.51" d="M593,113l-5,54l103-33L593,113z"/>
<path fill="#73A5D0" stroke="#73A5D0" stroke-width="1.51" d="M526,799l59,128l96-117L526,799z"/>
<path fill="#77ACD4" stroke="#77ACD4" stroke-width="1.51" d="M581,700l-55,99l155,11L581,700z"/>
<path fill="#80B5D8" stroke="#80B5D8" stroke-width="1.51" d="M595,574l-14,126l102-42L595,574z"/>
<path fill="#6B9ACA" stroke="#6B9ACA" stroke-width="1.51" d="M585,927l7,118l70-102L585,927z"/>
<path fill="#C1DBED" stroke="#C1DBED" stroke-width="1.51" d="M516-24l103,68l17-119L516-24z"/>
<path fill="#C8DEEF" stroke="#C8DEEF" stroke-width="1.51" d="M503-126l13,102l120-51L503-126z"/>
<path fill="#C7DFEF" stroke="#C7DFEF" stroke-width="1.51" d="M503-126l133,51v-75L503-126z"/>
<path fill="#E6F0FA" stroke="#E6F0FA" stroke-width="1.51" d="M-165-236l307,100l114-16L-165-236z"/>
<path fill="#B3D3E8" stroke="#B3D3E8" stroke-width="1.51" d="M469,177l69,158l50-168L469,177z"/>
<path fill="#99C5E1" stroke="#99C5E1" stroke-width="1.51" d="M484,401l-51,33l162,140L484,401z"/>
<path fill="#BED9EC" stroke="#BED9EC" stroke-width="1.51" d="M516-24l77,137l26-69L516-24z"/>
<path fill="#B5D3E9" stroke="#B5D3E9" stroke-width="1.51" d="M469,177l-44,64l113,94L469,177z"/>
<path fill="#78A0CF" stroke="#78A0CF" stroke-width="1.51" d="M414,917l-26,84l197-74L414,917z"/>
<path fill="#729BCA" stroke="#729BCA" stroke-width="1.51" d="M585,927l-197,74l204,44L585,927z"/>
<path fill="#BAD5EA" stroke="#BAD5EA" stroke-width="1.51" d="M469,177l119-10l5-54L469,177z"/>
<path fill="#BFD9EC" stroke="#BFD9EC" stroke-width="1.51" d="M516-24l-47,201l124-64L516-24z"/>
<path fill="#95C3E1" stroke="#95C3E1" stroke-width="1.51" d="M433,434l-39,123l201,17L433,434z"/>
<path fill="#87B9DB" stroke="#87B9DB" stroke-width="1.51" d="M402,625l179,75l14-126L402,625z"/>
<path fill="#8FBEDE" stroke="#8FBEDE" stroke-width="1.51" d="M394,557l8,68l193-51L394,557z"/>
<path fill="#77A5D1" stroke="#77A5D1" stroke-width="1.51" d="M526,799L414,917l171,10L526,799z"/>
<path fill="#6F95C6" stroke="#6F95C6" stroke-width="1.51" d="M388,1001l188,113l16-69L388,1001z"/>
<path fill="#82B4D8" stroke="#82B4D8" stroke-width="1.51" d="M402,625l124,174l55-99L402,625z"/>
<path fill="#6C8ABC" stroke="#6C8ABC" stroke-width="1.51" d="M401,1191l117,15l58-92L401,1191z"/>
<path fill="#7293C5" stroke="#7293C5" stroke-width="1.51" d="M388,1001l13,190l175-77L388,1001z"/>
<path fill="#C6DCEF" stroke="#C6DCEF" stroke-width="1.51" d="M363,16l106,161l47-201L363,16z"/>
<path fill="#CCE0F1" stroke="#CCE0F1" stroke-width="1.51" d="M503-126l-37,36l50,66L503-126z"/>
<path fill="#83B2D8" stroke="#83B2D8" stroke-width="1.51" d="M402,625l20,186l104-12L402,625z"/>
<path fill="#7EAAD4" stroke="#7EAAD4" stroke-width="1.51" d="M422,811l-8,106l112-118L422,811z"/>
<path fill="#ACD0E5" stroke="#ACD0E5" stroke-width="1.51" d="M425,241l59,160l54-66L425,241z"/>
<path fill="#C7DBEF" stroke="#C7DBEF" stroke-width="1.51" d="M363,16l-25,119l131,42L363,16z"/>
<path fill="#6D87B7" stroke="#6D87B7" stroke-width="1.51" d="M401,1191l24,60l93-45L401,1191z"/>
<path fill="#7895C7" stroke="#7895C7" stroke-width="1.51" d="M388,1001l-67,90l80,100L388,1001z"/>
<path fill="#CBE0F1" stroke="#CBE0F1" stroke-width="1.51" d="M466-90L363,16l153-40L466-90z"/>
<path fill="#ABCFE5" stroke="#ABCFE5" stroke-width="1.51" d="M425,241l8,193l51-33L425,241z"/>
<path fill="#D0E3F2" stroke="#D0E3F2" stroke-width="1.51" d="M420-124l46,34l37-36L420-124z"/>
<path fill="#8CB8DC" stroke="#8CB8DC" stroke-width="1.51" d="M402,625l-126,62l146,124L402,625z"/>
<path fill="#B3D3E8" stroke="#B3D3E8" stroke-width="1.51" d="M425,241l-171,84l179,109L425,241z"/>
<path fill="#D0E2F2" stroke="#D0E2F2" stroke-width="1.51" d="M420-124L363,16L466-90L420-124z"/>
<path fill="#BFD8ED" stroke="#BFD8ED" stroke-width="1.51" d="M338,135l87,106l44-64L338,135z"/>
<path fill="#D0E2F2" stroke="#D0E2F2" stroke-width="1.51" d="M332,18l31-2l57-140L332,18z"/>
<path fill="#D3E3F4" stroke="#D3E3F4" stroke-width="1.51" d="M262-22l70,40l88-142L262-22z"/>
<path fill="#82AAD5" stroke="#82AAD5" stroke-width="1.51" d="M311,869l103,48l8-106L311,869z"/>
<path fill="#A3C9E4" stroke="#A3C9E4" stroke-width="1.51" d="M259,431l135,126l39-123L259,431z"/>
<path fill="#AECFE7" stroke="#AECFE7" stroke-width="1.51" d="M254,325l5,106l174,3L254,325z"/>
<path fill="#D8E6F5" stroke="#D8E6F5" stroke-width="1.51" d="M256-152l6,130l158-102L256-152z"/>
<path fill="#86AED7" stroke="#86AED7" stroke-width="1.51" d="M250,821l61,48l111-58L250,821z"/>
<path fill="#8BB3DA" stroke="#8BB3DA" stroke-width="1.51" d="M276,687l-26,134l172-10L276,687z"/>
<path fill="#7287B6" stroke="#7287B6" stroke-width="1.51" d="M401,1191l-125,98l149-38L401,1191z"/>
<path fill="#BFD8EC" stroke="#BFD8EC" stroke-width="1.51" d="M338,135l-84,190l171-84L338,135z"/>
<path fill="#A0C7E4" stroke="#A0C7E4" stroke-width="1.51" d="M259,431l2,130l133-4L259,431z"/>
<path fill="#7FA4D2" stroke="#7FA4D2" stroke-width="1.51" d="M311,869l77,132l26-84L311,869z"/>
<path fill="#E9F1FB" stroke="#E9F1FB" stroke-width="1.51" d="M-165-236L19-135l123-1L-165-236z"/>
<path fill="#CDDFF1" stroke="#CDDFF1" stroke-width="1.51" d="M332,18l6,117l25-119L332,18z"/>
<path fill="#7C9BCB" stroke="#7C9BCB" stroke-width="1.51" d="M300,1031l21,60l67-90L300,1031z"/>
<path fill="#7FA1D0" stroke="#7FA1D0" stroke-width="1.51" d="M311,869l-11,162l88-30L311,869z"/>
<path fill="#98C1E1" stroke="#98C1E1" stroke-width="1.51" d="M394,557l-133,4l141,64L394,557z"/>
<path fill="#96BFE0" stroke="#96BFE0" stroke-width="1.51" d="M261,561l15,126l126-62L261,561z"/>
<path fill="#7A8AB4" stroke="#7A8AB4" stroke-width="1.51" d="M169,1240l-264,62l371-13L169,1240z"/>
<path fill="#768DBD" stroke="#768DBD" stroke-width="1.51" d="M321,1091l-45,198l125-98L321,1091z"/>
<path fill="#D9E7F6" stroke="#D9E7F6" stroke-width="1.51" d="M256-152l-31,63l37,67L256-152z"/>
<path fill="#82A4D2" stroke="#82A4D2" stroke-width="1.51" d="M209,966l91,65l11-162L209,966z"/>
<path fill="#7A90BF" stroke="#7A90BF" stroke-width="1.51" d="M165,1170l111,119l45-198L165,1170z"/>
<path fill="#C3DBEE" stroke="#C3DBEE" stroke-width="1.51" d="M164,211l90,114l84-190L164,211z"/>
<path fill="#798CB9" stroke="#798CB9" stroke-width="1.51" d="M165,1170l4,70l107,49L165,1170z"/>
<path fill="#86A9D5" stroke="#86A9D5" stroke-width="1.51" d="M209,884v82l102-97L209,884z"/>
<path fill="#CFE1F2" stroke="#CFE1F2" stroke-width="1.51" d="M332,18l-70-40l76,157L332,18z"/>
<path fill="#D0E2F2" stroke="#D0E2F2" stroke-width="1.51" d="M262-22L120,82l218,53L262-22z"/>
<path fill="#CDDFF1" stroke="#CDDFF1" stroke-width="1.51" d="M120,82l44,129l174-76L120,82z"/>
<path fill="#8EB7DB" stroke="#8EB7DB" stroke-width="1.51" d="M201,771l49,50l26-134L201,771z"/>
<path fill="#7D97C9" stroke="#7D97C9" stroke-width="1.51" d="M300,1031l-135,139l156-79L300,1031z"/>
<path fill="#88ADD7" stroke="#88ADD7" stroke-width="1.51" d="M250,821l-41,63l102-15L250,821z"/>
<path fill="#809CCC" stroke="#809CCC" stroke-width="1.51" d="M209,966l-44,204l135-139L209,966z"/>
<path fill="#BFD9EC" stroke="#BFD9EC" stroke-width="1.51" d="M164,211l10,120l80-6L164,211z"/>
<path fill="#B6D4E9" stroke="#B6D4E9" stroke-width="1.51" d="M254,325l-80,6l85,100L254,325z"/>
<path fill="#B4D4E9" stroke="#B4D4E9" stroke-width="1.51" d="M174,331l-18,76l103,24L174,331z"/>
<path fill="#AACEE7" stroke="#AACEE7" stroke-width="1.51" d="M156,407l11,157l92-133L156,407z"/>
<path fill="#A3C9E5" stroke="#A3C9E5" stroke-width="1.51" d="M259,431l-92,133l94-3L259,431z"/>
<path fill="#92BBDD" stroke="#92BBDD" stroke-width="1.51" d="M167,712l34,59l75-84L167,712z"/>
<path fill="#9BC3E2" stroke="#9BC3E2" stroke-width="1.51" d="M261,561l-94,3l109,123L261,561z"/>
<path fill="#98BFE0" stroke="#98BFE0" stroke-width="1.51" d="M167,564v148l109-25L167,564z"/>
<path fill="#839ECC" stroke="#839ECC" stroke-width="1.51" d="M66,1039l99,131l44-204L66,1039z"/>
<path fill="#D9E7F6" stroke="#D9E7F6" stroke-width="1.51" d="M225-89L68-22h194L225-89z"/>
<path fill="#D7E6F5" stroke="#D7E6F5" stroke-width="1.51" d="M68-22l52,104L262-22H68z"/>
<path fill="#DDEAF7" stroke="#DDEAF7" stroke-width="1.51" d="M142-136l83,47l31-63L142-136z"/>
<path fill="#7F8EB9" stroke="#7F8EB9" stroke-width="1.51" d="M35,1211l-130,91l264-62L35,1211z"/>
<path fill="#8BB1D9" stroke="#8BB1D9" stroke-width="1.51" d="M201,771l8,113l41-63L201,771z"/>
<path fill="#9BC2E2" stroke="#9BC2E2" stroke-width="1.51" d="M99,645l68,67V564L99,645z"/>
<path fill="#8EB1D9" stroke="#8EB1D9" stroke-width="1.51" d="M201,771L50,861l159,23L201,771z"/>
<path fill="#DDEAF7" stroke="#DDEAF7" stroke-width="1.51" d="M142-136L68-22l157-67L142-136z"/>
<path fill="#92B8DC" stroke="#92B8DC" stroke-width="1.51" d="M111,721L50,861l151-90L111,721z"/>
<path fill="#89A8D4" stroke="#89A8D4" stroke-width="1.51" d="M50,861l16,178l143-73L50,861z"/>
<path fill="#8AABD6" stroke="#8AABD6" stroke-width="1.51" d="M50,861l159,105v-82L50,861z"/>
<path fill="#A7CCE6" stroke="#A7CCE6" stroke-width="1.51" d="M156,407L90,575l77-11L156,407z"/>
<path fill="#93BBDD" stroke="#93BBDD" stroke-width="1.51" d="M167,712l-56,9l90,50L167,712z"/>
<path fill="#B0D1E8" stroke="#B0D1E8" stroke-width="1.51" d="M-6,413l96,162l66-168L-6,413z"/>
<path fill="#CEE0F2" stroke="#CEE0F2" stroke-width="1.51" d="M120,82L83,214l81-3L120,82z"/>
<path fill="#8398C8" stroke="#8398C8" stroke-width="1.51" d="M66,1039l-18,143l117-12L66,1039z"/>
<path fill="#98BFDF" stroke="#98BFDF" stroke-width="1.51" d="M99,645l12,76l56-9L99,645z"/>
<path fill="#A0C6E4" stroke="#A0C6E4" stroke-width="1.51" d="M90,575l9,70l68-81L90,575z"/>
<path fill="#7E91BE" stroke="#7E91BE" stroke-width="1.51" d="M165,1170l-117,12l121,58L165,1170z"/>
<path fill="#B9D7EA" stroke="#B9D7EA" stroke-width="1.51" d="M73,360l83,47l18-76L73,360z"/>
<path fill="#C5DCEE" stroke="#C5DCEE" stroke-width="1.51" d="M164,211l-81,3l91,117L164,211z"/>
<path fill="#C1DBED" stroke="#C1DBED" stroke-width="1.51" d="M83,214L73,360l101-29L83,214z"/>
<path fill="#7F91BD" stroke="#7F91BD" stroke-width="1.51" d="M48,1182l-13,29l134,29L48,1182z"/>
<path fill="#B8D6EA" stroke="#B8D6EA" stroke-width="1.51" d="M73,360l-79,53l162-6L73,360z"/>
<path fill="#EBF3FB" stroke="#EBF3FB" stroke-width="1.51" d="M-165-236l118,99l66,2L-165-236z"/>
<path fill="#C5DDEE" stroke="#C5DDEE" stroke-width="1.51" d="M5,272l68,88l10-146L5,272z"/>
<path fill="#D3E4F4" stroke="#D3E4F4" stroke-width="1.51" d="M-5,95l88,119l37-132L-5,95z"/>
<path fill="#E1ECF8" stroke="#E1ECF8" stroke-width="1.51" d="M19-135L68-22l74-114L19-135z"/>
<path fill="#97BBDE" stroke="#97BBDE" stroke-width="1.51" d="M-81,740L50,861l61-140L-81,740z"/>
<path fill="#DAE8F6" stroke="#DAE8F6" stroke-width="1.51" d="M68-22L0,37l120,45L68-22z"/>
<path fill="#D8E6F5" stroke="#D8E6F5" stroke-width="1.51" d="M0,37l-5,58l125-13L0,37z"/>
<path fill="#9BC1E0" stroke="#9BC1E0" stroke-width="1.51" d="M99,645l-180,95l192-19L99,645z"/>
<path fill="#8FADD7" stroke="#8FADD7" stroke-width="1.51" d="M50,861l-113,14l129,164L50,861z"/>
<path fill="#869BCA" stroke="#869BCA" stroke-width="1.51" d="M-50,1136l98,46l18-143L-50,1136z"/>
<path fill="#AFD1E9" stroke="#AFD1E9" stroke-width="1.51" d="M-6,413l-90,97l186,65L-6,413z"/>
<path fill="#A3C8E4" stroke="#A3C8E4" stroke-width="1.51" d="M90,575l-207,28l216,42L90,575z"/>
<path fill="#A1C5E3" stroke="#A1C5E3" stroke-width="1.51" d="M-117,603l36,137l180-95L-117,603z"/>
<path fill="#8FAAD5" stroke="#8FAAD5" stroke-width="1.51" d="M-63,875l-52,130l181,34L-63,875z"/>
<path fill="#D0E2F2" stroke="#D0E2F2" stroke-width="1.51" d="M-5,95l-13,164l101-45L-5,95z"/>
<path fill="#AACDE7" stroke="#AACDE7" stroke-width="1.51" d="M-96,510l-21,93l207-28L-96,510z"/>
<path fill="#E2EDF8" stroke="#E2EDF8" stroke-width="1.51" d="M19-135l-58,34L68-22L19-135z"/>
<path fill="#CADFF0" stroke="#CADFF0" stroke-width="1.51" d="M-18,259l23,13l78-58L-18,259z"/>
<path fill="#97B8DC" stroke="#97B8DC" stroke-width="1.51" d="M-81,740l18,135l113-14L-81,740z"/>
<path fill="#C0DBEC" stroke="#C0DBEC" stroke-width="1.51" d="M5,272L-6,413l79-53L5,272z"/>
<path fill="#DFECF7" stroke="#DFECF7" stroke-width="1.51" d="M-39-101L0,37l68-59L-39-101z"/>
<path fill="#8BA2CE" stroke="#8BA2CE" stroke-width="1.51" d="M-115,1005l65,131l116-97L-115,1005z"/>
<path fill="#D4E4F4" stroke="#D4E4F4" stroke-width="1.51" d="M-107,186l89,73L-5,95L-107,186z"/>
<path fill="#8496C3" stroke="#8496C3" stroke-width="1.51" d="M-50,1136l85,75l13-29L-50,1136z"/>
<path fill="#C4DEEE" stroke="#C4DEEE" stroke-width="1.51" d="M-18,259l12,154L5,272L-18,259z"/>
<path fill="#8493BF" stroke="#8493BF" stroke-width="1.51" d="M-50,1136l-45,166l130-91L-50,1136z"/>
<path fill="#C1DCED" stroke="#C1DCED" stroke-width="1.51" d="M-18,259l-124,172l136-18L-18,259z"/>
<path fill="#E7F0FA" stroke="#E7F0FA" stroke-width="1.51" d="M-47-137l8,36l58-34L-47-137z"/>
<path fill="#C9E0EF" stroke="#C9E0EF" stroke-width="1.51" d="M-184,258l42,173l124-172L-184,258z"/>
<path fill="#E2EDF8" stroke="#E2EDF8" stroke-width="1.51" d="M-39-101L-162,6L0,37L-39-101z"/>
<path fill="#B8D7EB" stroke="#B8D7EB" stroke-width="1.51" d="M-142,431l46,79l90-97L-142,431z"/>
<path fill="#DEEAF7" stroke="#DEEAF7" stroke-width="1.51" d="M-162,6L-5,95l5-58L-162,6z"/>
<path fill="#DCE9F6" stroke="#DCE9F6" stroke-width="1.51" d="M-162,6l55,180L-5,95L-162,6z"/>
<path fill="#DCE9F6" stroke="#DCE9F6" stroke-width="1.51" d="M-162,6l11,169l44,11L-162,6z"/>
<path fill="#A5C7E4" stroke="#A5C7E4" stroke-width="1.51" d="M-117,603l-33,41l69,96L-117,603z"/>
<path fill="#93AED7" stroke="#93AED7" stroke-width="1.51" d="M-148,958l33,47l52-130L-148,958z"/>
<path fill="#9ABADE" stroke="#9ABADE" stroke-width="1.51" d="M-81,740l-72,69l90,66L-81,740z"/>
<path fill="#8897C1" stroke="#8897C1" stroke-width="1.51" d="M-180,1159l85,143l45-166L-180,1159z"/>
<path fill="#E7F0FA" stroke="#E7F0FA" stroke-width="1.51" d="M-148-111L-162,6l123-107L-148-111z"/>
<path fill="#D1E4F2" stroke="#D1E4F2" stroke-width="1.51" d="M-107,186l-77,72l166,1L-107,186z"/>
<path fill="#8692BA" stroke="#8692BA" stroke-width="1.51" d="M-180,1159l31,140l54,3L-180,1159z"/>
<path fill="#8DA0CD" stroke="#8DA0CD" stroke-width="1.51" d="M-115,1005l-65,154l130-23L-115,1005z"/>
<path fill="#EDF5FC" stroke="#EDF5FC" stroke-width="1.51" d="M-165-236l17,125l101-26L-165-236z"/>
<path fill="#E9F2FA" stroke="#E9F2FA" stroke-width="1.51" d="M-47-137l-101,26l109,10L-47-137z"/>
<path fill="#97B5DB" stroke="#97B5DB" stroke-width="1.51" d="M-153,809l5,149l85-83L-153,809z"/>
<path fill="#AFD0E9" stroke="#AFD0E9" stroke-width="1.51" d="M-135,513l18,90l21-93L-135,513z"/>
<path fill="#B6D5EB" stroke="#B6D5EB" stroke-width="1.51" d="M-142,431l7,82l39-3L-142,431z"/>
<path fill="#A0C3E1" stroke="#A0C3E1" stroke-width="1.51" d="M-150,644l-3,165l72-69L-150,644z"/>
<path fill="#92A6D1" stroke="#92A6D1" stroke-width="1.51" d="M-193,986l13,173l65-154L-193,986z"/>
<path fill="#D5E6F4" stroke="#D5E6F4" stroke-width="1.51" d="M-151,175l-33,83l77-72L-151,175z"/>
<path fill="#ACCDE7" stroke="#ACCDE7" stroke-width="1.51" d="M-135,513l-15,131l33-41L-135,513z"/>
<path fill="#94ACD6" stroke="#94ACD6" stroke-width="1.51" d="M-148,958l-45,28l78,19L-148,958z"/>
<path fill="#97B2DA" stroke="#97B2DA" stroke-width="1.51" d="M-153,809l-40,177l45-28L-153,809z"/>
<path fill="#B2D2EA" stroke="#B2D2EA" stroke-width="1.51" d="M-142,431l-8,213l15-131L-142,431z"/>
<path fill="#BCD9EC" stroke="#BCD9EC" stroke-width="1.51" d="M-184,258l34,386l8-213L-184,258z"/>
<path fill="#DCE9F6" stroke="#DCE9F6" stroke-width="1.51" d="M-162,6l-22,252l33-83L-162,6z"/>
<path fill="#9DBCDE" stroke="#9DBCDE" stroke-width="1.51" d="M-193,986l40-177l3-165L-193,986z"/>
<path fill="#ECF4FC" stroke="#ECF4FC" stroke-width="1.51" d="M-165-236l3,242l14-117L-165-236z"/>
<path fill="#ABCCE6" stroke="#ABCCE6" stroke-width="1.51" d="M-184,258l-9,728l43-342L-184,258z"/>
<path fill="#E4EFF9" stroke="#E4EFF9" stroke-width="1.51" d="M-165-236l-19,494l22-252L-165-236z"/>
</svg>
