<?xml version="1.0" encoding="utf-8"?>
<!-- Generator: Adobe Illustrator 15.1.0, SVG Export Plug-In . SVG Version: 6.00 Build 0)  -->
<!DOCTYPE svg PUBLIC "-//W3C//DTD SVG 1.1//EN" "http://www.w3.org/Graphics/SVG/1.1/DTD/svg11.dtd">
<svg version="1.1" id="Layer_2" xmlns="http://www.w3.org/2000/svg" xmlns:xlink="http://www.w3.org/1999/xlink" x="0px" y="0px"
	 width="100px" height="100px" viewBox="0 0 100 100" enable-background="new 0 0 100 100" xml:space="preserve">
<g>
	<path fill="#FFFFFF" d="M71.283,27.469H70.23v4.901c0,2.808-2.277,5.093-5.088,5.093s-5.094-2.286-5.094-5.093v-4.901H40.955v4.901
		c0,2.808-2.285,5.093-5.094,5.093c-2.803,0-5.093-2.286-5.093-5.093v-4.901h-2.049c-3.695,0-6.703,3.012-6.703,6.701v37.707
		c0,3.691,3.008,6.701,6.703,6.701h42.564c3.697,0,6.701-3.01,6.701-6.701V34.17C77.984,30.479,74.98,27.469,71.283,27.469z
		 M72.797,72.373H27.206V43.061h45.589v29.312H72.797z"/>
	<path fill="#FFFFFF" d="M35.897,35.17c1.545,0,2.802-1.252,2.802-2.802v-8.145c0-1.543-1.257-2.802-2.802-2.802
		c-1.545,0-2.802,1.256-2.802,2.802v8.147C33.095,33.917,34.352,35.17,35.897,35.17z"/>
	<path fill="#FFFFFF" d="M65.178,35.17c1.543,0,2.795-1.252,2.795-2.802v-8.145c0-1.543-1.252-2.802-2.795-2.802
		c-1.547,0-2.803,1.256-2.803,2.802v8.147C62.375,33.917,63.631,35.17,65.178,35.17z"/>
</g>
</svg>
