<?xml version="1.0" encoding="utf-8"?>
<!-- Generator: Adobe Illustrator 15.1.0, SVG Export Plug-In . SVG Version: 6.00 Build 0)  -->
<!DOCTYPE svg PUBLIC "-//W3C//DTD SVG 1.1//EN" "http://www.w3.org/Graphics/SVG/1.1/DTD/svg11.dtd">
<svg version="1.1" id="Layer_2" xmlns="http://www.w3.org/2000/svg" xmlns:xlink="http://www.w3.org/1999/xlink" x="0px" y="0px"
	 width="100px" height="100px" viewBox="0 0 100 100" enable-background="new 0 0 100 100" xml:space="preserve">
<g>
	<path fill="#F1F6F9" d="M83.429,34.38c0,1.157-0.402,2.133-1.208,2.938L50.994,68.551l-5.863,5.863
		c-0.805,0.805-1.786,1.208-2.932,1.208c-1.157,0-2.139-0.403-2.931-1.208l-5.876-5.863L17.779,52.932
		c-0.805-0.806-1.208-1.78-1.208-2.932s0.403-2.133,1.208-2.938l5.863-5.863c0.805-0.806,1.786-1.208,2.943-1.208
		c1.146,0,2.127,0.402,2.932,1.208l12.682,12.726l28.296-28.339c0.806-0.805,1.787-1.208,2.932-1.208s2.126,0.403,2.932,1.208
		l5.862,5.863C83.026,32.254,83.429,33.235,83.429,34.38z"/>
</g>
</svg>
