<?xml version="1.0" encoding="utf-8"?>
<!-- Generator: Adobe Illustrator 15.1.0, SVG Export Plug-In . SVG Version: 6.00 Build 0)  -->
<!DOCTYPE svg PUBLIC "-//W3C//DTD SVG 1.1//EN" "http://www.w3.org/Graphics/SVG/1.1/DTD/svg11.dtd">
<svg version="1.1" id="Layer_3" xmlns="http://www.w3.org/2000/svg" xmlns:xlink="http://www.w3.org/1999/xlink" x="0px" y="0px"
	 width="100px" height="100px" viewBox="0 0 100 100" enable-background="new 0 0 100 100" xml:space="preserve">
<g>
	<path fill="#FFFFFF" d="M31.188,80.248c9.406,0,28.224,0,37.63,0c0.775,0,1.41-0.635,1.41-1.41c0-9.78,0-39.118,0-39.118h-40.45
		c0,0,0,29.338,0,39.118C29.778,79.62,30.406,80.248,31.188,80.248z M58.123,47.306c0-1.269,1.029-2.305,2.306-2.305h0.049
		c1.269,0,2.306,1.029,2.306,2.305v25.363c0,1.268-1.029,2.305-2.306,2.305h-0.049c-1.27,0-2.306-1.029-2.306-2.305V47.306z
		 M47.673,47.306c0-1.269,1.029-2.305,2.305-2.305h0.05c1.27,0,2.306,1.029,2.306,2.305v25.363c0,1.268-1.029,2.305-2.306,2.305
		h-0.05c-1.269,0-2.305-1.029-2.305-2.305V47.306z M37.224,47.306c0-1.269,1.03-2.305,2.306-2.305h0.05
		c1.269,0,2.306,1.029,2.306,2.305v25.363c0,1.268-1.03,2.305-2.306,2.305h-0.05c-1.269,0-2.306-1.029-2.306-2.305V47.306z"/>
	<path fill="#FFFFFF" d="M59.018,26.45v-3.173c0-1.946-1.579-3.525-3.524-3.525H44.507c-1.946,0-3.525,1.58-3.525,3.525v3.173h2.82
		v-2.468c0-0.775,0.635-1.41,1.411-1.41h9.567c0.776,0,1.41,0.635,1.41,1.41v2.468H59.018z"/>
	<path fill="#FFFFFF" d="M28.016,30.681v4.809c0,0.776,0.635,1.41,1.41,1.41h41.148c0.775,0,1.41-0.634,1.41-1.41v-4.809
		c0-0.775-0.635-1.41-1.41-1.41H29.426C28.65,29.271,28.016,29.898,28.016,30.681z"/>
</g>
</svg>
