<?xml version="1.0" encoding="utf-8"?>
<!-- Generator: Adobe Illustrator 15.1.0, SVG Export Plug-In . SVG Version: 6.00 Build 0)  -->
<!DOCTYPE svg PUBLIC "-//W3C//DTD SVG 1.1//EN" "http://www.w3.org/Graphics/SVG/1.1/DTD/svg11.dtd">
<svg version="1.1" id="Layer_3" xmlns="http://www.w3.org/2000/svg" xmlns:xlink="http://www.w3.org/1999/xlink" x="0px" y="0px"
	 width="100px" height="100px" viewBox="0 0 100 100" enable-background="new 0 0 100 100" xml:space="preserve">
<g>
	<path fill="#FFFFFF" d="M50,19.83c-7.469,0-13.873,4.946-16.579,11.98h33.159C63.873,24.776,57.47,19.83,50,19.83z"/>
	<path fill="#FFFFFF" d="M83.182,49.945H72.81c0.579-2.341,0.927-4.806,1.009-7.355c3.696-2.22,7.944-6.111,9-12.566
		c0.312-1.903-0.979-3.698-2.882-4.009c-1.904-0.309-3.697,0.981-4.009,2.882c-0.568,3.473-2.785,5.78-4.963,7.255H29.048
		c-2.181-1.477-4.409-3.784-4.977-7.255c-0.311-1.902-2.101-3.191-4.007-2.882c-1.903,0.311-3.194,2.105-2.883,4.009
		c1.056,6.454,5.303,10.347,9,12.566c0.083,2.549,0.43,5.015,1.009,7.355H16.819c-1.928,0-3.491,1.563-3.491,3.491
		c0,1.929,1.563,3.491,3.491,3.491H29.78c0.981,1.929,2.136,3.708,3.443,5.3c-4.563,3.421-8.838,9.389-10.912,12.53
		c-1.062,1.607-0.621,3.771,0.988,4.835c0.592,0.392,1.261,0.578,1.921,0.578c1.133,0,2.244-0.55,2.916-1.564
		c3.459-5.23,7.921-10.173,10.285-11.577c2.84,1.946,6.041,3.188,9.444,3.562V44.229h4.272v26.362
		c3.398-0.373,6.594-1.611,9.434-3.553c2.391,1.414,6.844,6.348,10.295,11.568c0.673,1.015,1.783,1.564,2.916,1.564
		c0.66,0,1.33-0.187,1.922-0.578c1.608-1.062,2.05-3.228,0.988-4.835c-2.075-3.144-6.34-9.117-10.909-12.534
		c1.305-1.592,2.46-3.37,3.439-5.296h12.961c1.927,0,3.489-1.562,3.489-3.491C86.672,51.509,85.108,49.945,83.182,49.945z"/>
</g>
</svg>
