<?xml version="1.0" encoding="utf-8"?>
<!-- Generator: Adobe Illustrator 15.1.0, SVG Export Plug-In . SVG Version: 6.00 Build 0)  -->
<!DOCTYPE svg PUBLIC "-//W3C//DTD SVG 1.1//EN" "http://www.w3.org/Graphics/SVG/1.1/DTD/svg11.dtd">
<svg version="1.1" id="Layer_2" xmlns="http://www.w3.org/2000/svg" xmlns:xlink="http://www.w3.org/1999/xlink" x="0px" y="0px"
	 width="100px" height="100px" viewBox="0 0 100 100" enable-background="new 0 0 100 100" xml:space="preserve">
<g>
	<path fill="#71CC8D" d="M82.816,69.999c0,1.474-0.518,2.726-1.547,3.757l-7.514,7.513c-1.031,1.031-2.285,1.547-3.758,1.547
		s-2.725-0.516-3.756-1.547L50,65.026L33.758,81.269c-1.032,1.031-2.284,1.547-3.757,1.547c-1.474,0-2.726-0.516-3.757-1.547
		l-7.513-7.513c-1.032-1.031-1.547-2.283-1.547-3.757c0-1.473,0.515-2.726,1.547-3.757L34.973,50L18.731,33.758
		c-1.032-1.03-1.547-2.283-1.547-3.757c0-1.473,0.515-2.725,1.547-3.757l7.513-7.513c1.031-1.031,2.283-1.547,3.757-1.547
		c1.473,0,2.725,0.516,3.757,1.547L50,34.974l16.243-16.242c1.031-1.031,2.283-1.547,3.756-1.547s2.727,0.516,3.758,1.547
		l7.514,7.513c1.029,1.032,1.547,2.284,1.547,3.757c0,1.474-0.518,2.727-1.547,3.757L65.027,50L81.27,66.242
		C82.299,67.273,82.816,68.526,82.816,69.999z"/>
</g>
</svg>
