<?xml version="1.0" encoding="utf-8"?>
<!-- Generator: Adobe Illustrator 15.1.0, SVG Export Plug-In . SVG Version: 6.00 Build 0)  -->
<!DOCTYPE svg PUBLIC "-//W3C//DTD SVG 1.1//EN" "http://www.w3.org/Graphics/SVG/1.1/DTD/svg11.dtd">
<svg version="1.1" id="Layer_1" xmlns="http://www.w3.org/2000/svg" xmlns:xlink="http://www.w3.org/1999/xlink" x="0px" y="0px"
	 width="823.289px" height="315.935px" viewBox="0 0 823.289 315.935" enable-background="new 0 0 823.289 315.935"
	 xml:space="preserve">
<g>
	<line fill="none" stroke="#E8E8E8" stroke-miterlimit="10" x1="822.96" y1="241.05" x2="30.128" y2="241.05"/>
	<line fill="none" stroke="#E8E8E8" stroke-miterlimit="10" x1="822.96" y1="194.384" x2="30.128" y2="194.384"/>
	<line fill="none" stroke="#E8E8E8" stroke-miterlimit="10" x1="822.96" y1="101.051" x2="30.128" y2="101.051"/>
	<line fill="none" stroke="#E8E8E8" stroke-miterlimit="10" x1="822.96" y1="147.717" x2="30.128" y2="147.717"/>
	<line fill="none" stroke="#E8E8E8" stroke-miterlimit="10" x1="822.96" y1="54.384" x2="30.128" y2="54.384"/>
	<line fill="none" stroke="#E8E8E8" stroke-miterlimit="10" x1="87.81" y1="7.425" x2="87.81" y2="295.457"/>
	<line fill="none" stroke="#E8E8E8" stroke-miterlimit="10" x1="136.81" y1="7.425" x2="136.81" y2="295.457"/>
	<line fill="none" stroke="#E8E8E8" stroke-miterlimit="10" x1="185.81" y1="7.425" x2="185.81" y2="295.457"/>
	<line fill="none" stroke="#E8E8E8" stroke-miterlimit="10" x1="234.81" y1="7.425" x2="234.81" y2="295.457"/>
	<line fill="none" stroke="#E8E8E8" stroke-miterlimit="10" x1="283.81" y1="7.425" x2="283.81" y2="295.457"/>
	<line fill="none" stroke="#E8E8E8" stroke-miterlimit="10" x1="332.81" y1="7.425" x2="332.81" y2="295.457"/>
	<line fill="none" stroke="#E8E8E8" stroke-miterlimit="10" x1="381.81" y1="7.425" x2="381.81" y2="295.457"/>
	<line fill="none" stroke="#E8E8E8" stroke-miterlimit="10" x1="430.81" y1="7.425" x2="430.81" y2="295.457"/>
	<line fill="none" stroke="#E8E8E8" stroke-miterlimit="10" x1="479.81" y1="7.425" x2="479.81" y2="295.457"/>
	<line fill="none" stroke="#E8E8E8" stroke-miterlimit="10" x1="528.81" y1="7.425" x2="528.81" y2="295.457"/>
	<line fill="none" stroke="#E8E8E8" stroke-miterlimit="10" x1="577.81" y1="7.425" x2="577.81" y2="295.457"/>
	<line fill="none" stroke="#E8E8E8" stroke-miterlimit="10" x1="626.81" y1="7.425" x2="626.81" y2="295.457"/>
	<line fill="none" stroke="#E8E8E8" stroke-miterlimit="10" x1="675.81" y1="7.425" x2="675.81" y2="295.457"/>
	<line fill="none" stroke="#E8E8E8" stroke-miterlimit="10" x1="724.81" y1="7.425" x2="724.81" y2="295.457"/>
	<line fill="none" stroke="#E8E8E8" stroke-miterlimit="10" x1="773.81" y1="7.425" x2="773.81" y2="295.457"/>
	<line fill="none" stroke="#778D9B" stroke-miterlimit="10" x1="822.96" y1="287.717" x2="30.128" y2="287.717"/>
	<line fill="none" stroke="#778D9B" stroke-miterlimit="10" x1="822.81" y1="7.425" x2="822.81" y2="288.175"/>
	<line fill="none" stroke="#778D9B" stroke-miterlimit="10" x1="823.289" y1="7.717" x2="38.115" y2="7.717"/>
	<line fill="none" stroke="#778D9B" stroke-miterlimit="10" x1="38.81" y1="7.425" x2="38.81" y2="295.457"/>
	<text transform="matrix(1 0 0 1 0 12.1167)" fill="#778D9B" font-family="'Dosis-Medium'" font-size="14">2015</text>
	<text transform="matrix(1 0 0 1 0 59.1167)" fill="#778D9B" font-family="'Dosis-Medium'" font-size="14">2014</text>
	<text transform="matrix(1 0 0 1 0 105.1167)" fill="#778D9B" font-family="'Dosis-Medium'" font-size="14">2013</text>
	<text transform="matrix(1 0 0 1 0 152.1167)" fill="#778D9B" font-family="'Dosis-Medium'" font-size="14">2012</text>
	<text transform="matrix(1 0 0 1 0 198.1167)" fill="#778D9B" font-family="'Dosis-Medium'" font-size="14">2011</text>
	<text transform="matrix(1 0 0 1 0 245.1167)" fill="#778D9B" font-family="'Dosis-Medium'" font-size="14">2010</text>
	<text transform="matrix(1 0 0 1 0 291.1167)" fill="#778D9B" font-family="'Dosis-Medium'" font-size="14">2009</text>
	<text transform="matrix(1 0 0 1 31 312.6167)" fill="#778D9B" font-family="'Dosis-Medium'" font-size="14">AA</text>
	<text transform="matrix(1 0 0 1 80.6499 312.6167)" fill="#778D9B" font-family="'Dosis-Medium'" font-size="14">BB</text>
	<text transform="matrix(1 0 0 1 129.8462 312.6167)" fill="#778D9B" font-family="'Dosis-Medium'" font-size="14">CC</text>
	<text transform="matrix(1 0 0 1 178.5942 312.6167)" fill="#778D9B" font-family="'Dosis-Medium'" font-size="14">AG</text>
	<text transform="matrix(1 0 0 1 227.9302 312.6167)" fill="#778D9B" font-family="'Dosis-Medium'" font-size="14">XY</text>
	<text transform="matrix(1 0 0 1 277.3223 312.6167)" fill="#778D9B" font-family="'Dosis-Medium'" font-size="14">FF</text>
	<text transform="matrix(1 0 0 1 325.853 312.6167)" fill="#778D9B" font-family="'Dosis-Medium'" font-size="14">ZD</text>
	<text transform="matrix(1 0 0 1 376 312.6167)" fill="#778D9B" font-family="'Dosis-Medium'" font-size="14">FR</text>
	<text transform="matrix(1 0 0 1 424.021 312.6167)" fill="#778D9B" font-family="'Dosis-Medium'" font-size="14">TR</text>
	<text transform="matrix(1 0 0 1 473.1675 312.6167)" fill="#778D9B" font-family="'Dosis-Medium'" font-size="14">ES</text>
	<text transform="matrix(1 0 0 1 521.7554 312.6167)" fill="#778D9B" font-family="'Dosis-Medium'" font-size="14">US</text>
	<text transform="matrix(1 0 0 1 570.6636 312.6167)" fill="#778D9B" font-family="'Dosis-Medium'" font-size="14">BR</text>
	<text transform="matrix(1 0 0 1 619.7476 312.6167)" fill="#778D9B" font-family="'Dosis-Medium'" font-size="14">ZN</text>
	<text transform="matrix(1 0 0 1 668.7202 312.6167)" fill="#778D9B" font-family="'Dosis-Medium'" font-size="14">DE</text>
	<text transform="matrix(1 0 0 1 718.0288 312.6167)" fill="#778D9B" font-family="'Dosis-Medium'" font-size="14">XC</text>
	<text transform="matrix(1 0 0 1 766.4194 312.6167)" fill="#778D9B" font-family="'Dosis-Medium'" font-size="14">AU</text>
	
		<polyline fill="none" stroke="#1C75BC" stroke-width="2" stroke-linecap="round" stroke-linejoin="round" stroke-miterlimit="10" points="
		87.81,101.051 185.81,194.384 332.81,54.384 430.702,147.425 479.81,101.051 528.81,147.425 626.81,194.384 724.81,101.051 
		773.81,241.05 	"/>
	
		<polyline fill="none" stroke="#FBB040" stroke-width="2" stroke-linecap="round" stroke-linejoin="round" stroke-miterlimit="10" points="
		87.81,218.677 185.81,241.05 381.81,147.425 529,194.384 577.81,101.051 626.81,241.05 773.81,101.051 	"/>
	<circle fill="#1C75BC" cx="87.81" cy="101.051" r="3.583"/>
	<circle fill="#1C75BC" cx="185.81" cy="194.384" r="3.583"/>
	<circle fill="#1C75BC" cx="332.81" cy="54.676" r="3.583"/>
	<circle fill="#1C75BC" cx="430.81" cy="147.238" r="3.583"/>
	<circle fill="#1C75BC" cx="479.81" cy="101.051" r="3.583"/>
	<circle fill="#1C75BC" cx="528.81" cy="147.717" r="3.583"/>
	<circle fill="#1C75BC" cx="626.81" cy="194.384" r="3.583"/>
	<circle fill="#1C75BC" cx="724.81" cy="101.533" r="3.583"/>
	<circle fill="#1C75BC" cx="773.81" cy="241.05" r="3.583"/>
	<circle fill="#FBB040" cx="773.81" cy="101.051" r="3.583"/>
	<circle fill="#FBB040" cx="626.999" cy="240.55" r="3.583"/>
	<circle fill="#FBB040" cx="577.811" cy="101.533" r="3.583"/>
	<circle fill="#FBB040" cx="528.81" cy="194.05" r="3.583"/>
	<circle fill="#FBB040" cx="381.81" cy="147.717" r="3.583"/>
	<circle fill="#FBB040" cx="186" cy="241.05" r="3.583"/>
	<circle fill="#FBB040" cx="87.81" cy="218.717" r="3.583"/>
</g>
</svg>
