<?xml version="1.0" encoding="utf-8"?>
<!-- Generator: Adobe Illustrator 15.1.0, SVG Export Plug-In . SVG Version: 6.00 Build 0)  -->
<!DOCTYPE svg PUBLIC "-//W3C//DTD SVG 1.1//EN" "http://www.w3.org/Graphics/SVG/1.1/DTD/svg11.dtd">
<svg version="1.1" id="Layer_3" xmlns="http://www.w3.org/2000/svg" xmlns:xlink="http://www.w3.org/1999/xlink" x="0px" y="0px"
	 width="600px" height="600px" viewBox="0 0 600 600" enable-background="new 0 0 600 600" xml:space="preserve">
<g>
	<path fill="#9FADB5" d="M471.046,117.325H128.954c-7.674,0-13.954,6.294-13.954,13.968v337.428c0,7.66,6.28,13.954,13.954,13.954
		h342.092c7.674,0,13.954-6.294,13.954-13.954V131.293C485,123.619,478.72,117.325,471.046,117.325z M445.608,393.801h-295.29
		V154.982h295.29V393.801z"/>
	<path fill="#9FADB5" d="M207.218,174.928c22.646,0,41.007,18.355,41.007,41.008c0,22.646-18.362,41.007-41.007,41.007
		s-41.008-18.361-41.008-41.007C166.21,193.283,184.572,174.928,207.218,174.928z"/>
	<path fill="#9FADB5" d="M215.114,313.244l-38.479,45.357c-9.578,11.273-5.301,20.51,9.5,20.51h220.357
		c14.808,0,21.01-10.577,13.783-23.493l-66.445-118.831c-7.213-12.916-19.551-13.225-27.408-0.67l-38.629,61.715
		c-7.857,12.548-23.5,16.543-34.78,8.855C241.741,299.001,224.692,301.951,215.114,313.244z"/>
</g>
</svg>
