<?xml version="1.0" encoding="utf-8"?>
<!-- Generator: Adobe Illustrator 15.1.0, SVG Export Plug-In . SVG Version: 6.00 Build 0)  -->
<!DOCTYPE svg PUBLIC "-//W3C//DTD SVG 1.1//EN" "http://www.w3.org/Graphics/SVG/1.1/DTD/svg11.dtd">
<svg version="1.1" id="Layer_3" xmlns="http://www.w3.org/2000/svg" xmlns:xlink="http://www.w3.org/1999/xlink" x="0px" y="0px"
	 width="100px" height="100px" viewBox="0 0 100 100" enable-background="new 0 0 100 100" xml:space="preserve">
<g>
	<path fill="#9FADB5" d="M86.312,48.136l-10.6-10.599c-0.523-0.526-1.146-0.788-1.863-0.788c-0.719,0-1.338,0.262-1.863,0.788
		c-0.523,0.524-0.787,1.145-0.787,1.863v5.301h-15.9V28.8h5.303c0.715,0,1.336-0.264,1.861-0.788s0.787-1.145,0.787-1.863
		s-0.262-1.339-0.787-1.863l-10.6-10.601C51.338,13.162,50.717,12.9,50,12.9c-0.719,0-1.339,0.262-1.864,0.786l-10.6,10.601
		c-0.525,0.524-0.786,1.145-0.786,1.863s0.261,1.339,0.786,1.863c0.524,0.524,1.146,0.788,1.863,0.788H44.7v15.901h-15.9V39.4
		c0-0.718-0.264-1.339-0.787-1.863c-0.524-0.526-1.147-0.788-1.863-0.788c-0.718,0-1.339,0.262-1.863,0.788L13.685,48.136
		c-0.524,0.526-0.786,1.145-0.786,1.863c0,0.717,0.262,1.34,0.786,1.864l10.601,10.6c0.524,0.523,1.145,0.787,1.863,0.787
		s1.339-0.264,1.863-0.787c0.523-0.523,0.787-1.145,0.787-1.863v-5.301h15.9v15.9h-5.301c-0.718,0-1.339,0.264-1.863,0.787
		c-0.523,0.525-0.786,1.146-0.786,1.863c0,0.719,0.263,1.34,0.786,1.865l10.602,10.6C48.661,86.838,49.282,87.1,50,87.1
		c0.717,0,1.338-0.262,1.864-0.785l10.6-10.6c0.525-0.525,0.787-1.146,0.787-1.865c0-0.717-0.262-1.338-0.787-1.863
		c-0.523-0.523-1.145-0.787-1.861-0.787h-5.303v-15.9h15.9V60.6c0,0.719,0.264,1.342,0.787,1.865
		c0.525,0.523,1.146,0.785,1.865,0.785c0.717,0,1.338-0.262,1.861-0.785l10.602-10.602c0.523-0.523,0.787-1.146,0.787-1.864
		C87.102,49.281,86.838,48.662,86.312,48.136z"/>
</g>
</svg>
