<?xml version="1.0" encoding="utf-8"?>
<!-- Generator: Adobe Illustrator 15.1.0, SVG Export Plug-In . SVG Version: 6.00 Build 0)  -->
<!DOCTYPE svg PUBLIC "-//W3C//DTD SVG 1.1//EN" "http://www.w3.org/Graphics/SVG/1.1/DTD/svg11.dtd">
<svg version="1.1" id="Layer_3" xmlns="http://www.w3.org/2000/svg" xmlns:xlink="http://www.w3.org/1999/xlink" x="0px" y="0px"
	 width="600px" height="600px" viewBox="0 0 600 600" enable-background="new 0 0 600 600" xml:space="preserve">
<g>
	<path fill="#9FADB5" d="M216.618,355.829c-19.438,0-35.25,15.807-35.25,35.237c0,19.438,15.813,35.252,35.25,35.252
		c19.432,0,35.238-15.814,35.238-35.252C251.857,371.636,236.049,355.829,216.618,355.829z"/>
	<path fill="#9FADB5" d="M445.458,123.463h-17.583c-7.732,0-14.001,13.089-14.001,29.245c0,16.156,6.269,29.25,14.001,29.25h25.126
		v35.147c0,3.807,2.908,6.832,6.606,7.249v116.567c0,53.666-43.656,97.321-97.322,97.321h-44.071v-47.102h45.339
		c26.986,0,48.946-21.961,48.946-48.945v-38.752c3.691-0.429,6.593-3.44,6.593-7.249v-35.152V243.89v-1.8
		c0-21.837-17.704-39.542-39.542-39.542h-17.583c-7.731,0-14,13.095-14,29.25s6.269,29.245,14,29.245h25.131v35.152
		c0,3.809,2.902,6.82,6.594,7.249v38.752c0,16.621-13.517,30.14-30.14,30.14h-45.339V173.376c0-13.388-10.855-24.244-24.244-24.244
		H139.243c-13.389,0-24.243,10.854-24.243,24.244v278.917c0,13.389,10.854,24.243,24.243,24.243H293.97
		c11.76,0,21.549-8.374,23.765-19.486h44.55c64.036,0,116.128-52.092,116.128-116.128V224.356c3.687-0.429,6.587-3.447,6.587-7.25
		v-35.147v-17.166v-1.787C485,141.168,467.295,123.463,445.458,123.463z M216.618,451.395c-33.267,0-60.326-27.059-60.326-60.327
		c0-33.253,27.059-60.313,60.326-60.313c33.256,0,60.314,27.059,60.314,60.313C276.932,424.334,249.874,451.395,216.618,451.395z
		 M152.669,304.839c-6.545,0-11.854-5.307-11.854-11.853V190.652c0-6.545,5.309-11.852,11.854-11.852h127.882
		c6.542,0,11.853,5.308,11.853,11.852v102.334c0,6.545-5.309,11.853-11.853,11.853H152.669L152.669,304.839z"/>
</g>
</svg>
