<?xml version="1.0" encoding="utf-8"?>
<!-- Generator: Adobe Illustrator 15.1.0, SVG Export Plug-In . SVG Version: 6.00 Build 0)  -->
<!DOCTYPE svg PUBLIC "-//W3C//DTD SVG 1.1//EN" "http://www.w3.org/Graphics/SVG/1.1/DTD/svg11.dtd">
<svg version="1.1" id="Layer_1" xmlns="http://www.w3.org/2000/svg" xmlns:xlink="http://www.w3.org/1999/xlink" x="0px" y="0px"
	 width="1920px" height="1080px" viewBox="0 0 1920 1080" enable-background="new 0 0 1920 1080" xml:space="preserve">
<path fill="#FFD58E" stroke="#FFD58E" stroke-width="1.51" d="M445-273l279,35l595-14L445-273z"/>
<path fill="#A14109" stroke="#A14109" stroke-width="1.51" d="M1399,1329l-484,13l1057,1L1399,1329z"/>
<path fill="#943506" stroke="#943506" stroke-width="1.51" d="M1625,1312l-226,17l573,14L1625,1312z"/>
<path fill="#8D3105" stroke="#8D3105" stroke-width="1.51" d="M2029,1110l20,142l48-264L2029,1110z"/>
<path fill="#A54108" stroke="#A54108" stroke-width="1.51" d="M2046,756l14,138l37,94L2046,756z"/>
<path fill="#CC9467" stroke="#CC9467" stroke-width="1.51" d="M1802-181l90,7l223-18L1802-181z"/>
<path fill="#D9996B" stroke="#D9996B" stroke-width="1.51" d="M1500-242l302,61l313-11L1500-242z"/>
<path fill="#C27F37" stroke="#C27F37" stroke-width="1.51" d="M1885,208l19,125l246-149L1885,208z"/>
<path fill="#B88958" stroke="#B88958" stroke-width="1.51" d="M2115-192l-36,94l71,282L2115-192z"/>
<path fill="#B8854E" stroke="#B8854E" stroke-width="1.51" d="M2079-98l25,212l46,70L2079-98z"/>
<path fill="#B9641A" stroke="#B9641A" stroke-width="1.51" d="M1917,489l159,79l80-111L1917,489z"/>
<path fill="#C06E20" stroke="#C06E20" stroke-width="1.51" d="M1904,333l13,156l239-32L1904,333z"/>
<path fill="#AC4C0E" stroke="#AC4C0E" stroke-width="1.51" d="M2046,756l51,232l59-531L2046,756z"/>
<path fill="#B35A14" stroke="#B35A14" stroke-width="1.51" d="M2076,568l-30,188l110-299L2076,568z"/>
<path fill="#B9752A" stroke="#B9752A" stroke-width="1.51" d="M2150,184l-246,149l252,124L2150,184z"/>
<path fill="#BD8242" stroke="#BD8242" stroke-width="1.51" d="M2104,114l-219,94l265-24L2104,114z"/>
<path fill="#AB4509" stroke="#AB4509" stroke-width="1.51" d="M2046,756l-47,117l61,21L2046,756z"/>
<path fill="#B75510" stroke="#B75510" stroke-width="1.51" d="M1933,671l113,85l30-188L1933,671z"/>
<path fill="#C98F57" stroke="#C98F57" stroke-width="1.51" d="M1876-76l2,190l201-212L1876-76z"/>
<path fill="#C18951" stroke="#C18951" stroke-width="1.51" d="M2079-98l-201,212h226L2079-98z"/>
<path fill="#C29063" stroke="#C29063" stroke-width="1.51" d="M1892-174l187,76l36-94L1892-174z"/>
<path fill="#C58646" stroke="#C58646" stroke-width="1.51" d="M1878,114l7,94l219-94H1878z"/>
<path fill="#9E3805" stroke="#9E3805" stroke-width="1.51" d="M1870,956l159,154l68-122L1870,956z"/>
<path fill="#A83E05" stroke="#A83E05" stroke-width="1.51" d="M1999,873l-129,83l227,32L1999,873z"/>
<path fill="#A33D06" stroke="#A33D06" stroke-width="1.51" d="M2060,894l-61-21l98,115L2060,894z"/>
<path fill="#C99260" stroke="#C99260" stroke-width="1.51" d="M1892-174l-16,98l203-22L1892-174z"/>
<path fill="#BF5F14" stroke="#BF5F14" stroke-width="1.51" d="M1917,489l16,182l143-103L1917,489z"/>
<path fill="#9F3804" stroke="#9F3804" stroke-width="1.51" d="M1870,956l20,161l139-7L1870,956z"/>
<path fill="#8E3105" stroke="#8E3105" stroke-width="1.51" d="M2029,1110l-139,7l159,135L2029,1110z"/>
<path fill="#812D06" stroke="#812D06" stroke-width="1.51" d="M1849,1242l123,101l77-91L1849,1242z"/>
<path fill="#8D3105" stroke="#8D3105" stroke-width="1.51" d="M1890,1117l-41,125l200,10L1890,1117z"/>
<path fill="#B44C0C" stroke="#B44C0C" stroke-width="1.51" d="M1933,671l66,202l47-117L1933,671z"/>
<path fill="#BA4D0A" stroke="#BA4D0A" stroke-width="1.51" d="M1933,671l-123,135l189,67L1933,671z"/>
<path fill="#AF5210" stroke="#AF5210" stroke-width="1.51" d="M1163,1299l-248,43l484-13L1163,1299z"/>
<path fill="#E8A16D" stroke="#E8A16D" stroke-width="1.51" d="M1500-242l122,65l180-4L1500-242z"/>
<path fill="#B44506" stroke="#B44506" stroke-width="1.51" d="M1810,806l60,150l129-83L1810,806z"/>
<path fill="#D19053" stroke="#D19053" stroke-width="1.51" d="M1876-76l-65,134l67,56L1876-76z"/>
<path fill="#8B3005" stroke="#8B3005" stroke-width="1.51" d="M1849,1242l-224,70l347,31L1849,1242z"/>
<path fill="#D36512" stroke="#D36512" stroke-width="1.51" d="M1703,627l25,57l29-174L1703,627z"/>
<path fill="#AB3C04" stroke="#AB3C04" stroke-width="1.51" d="M1870,956l-71,22l91,139L1870,956z"/>
<path fill="#CC7F31" stroke="#CC7F31" stroke-width="1.51" d="M1885,208l-43,99l62,26L1885,208z"/>
<path fill="#CC7421" stroke="#CC7421" stroke-width="1.51" d="M1904,333l-139,97l152,59L1904,333z"/>
<path fill="#C6560D" stroke="#C6560D" stroke-width="1.51" d="M1728,684l82,122l123-135L1728,684z"/>
<path fill="#C96514" stroke="#C96514" stroke-width="1.51" d="M1917,489l-160,21l176,161L1917,489z"/>
<path fill="#CC6012" stroke="#CC6012" stroke-width="1.51" d="M1757,510l-29,174l205-13L1757,510z"/>
<path fill="#D49459" stroke="#D49459" stroke-width="1.51" d="M1806-66l5,124l65-134L1806-66z"/>
<path fill="#CE7B27" stroke="#CE7B27" stroke-width="1.51" d="M1842,307l-77,123l139-97L1842,307z"/>
<path fill="#D0701C" stroke="#D0701C" stroke-width="1.51" d="M1765,430l-8,80l160-21L1765,430z"/>
<path fill="#FFC883" stroke="#FFC883" stroke-width="1.51" d="M724-238l256,43l339-57L724-238z"/>
<path fill="#9B3504" stroke="#9B3504" stroke-width="1.51" d="M1744,1134l105,108l41-125L1744,1134z"/>
<path fill="#D49664" stroke="#D49664" stroke-width="1.51" d="M1802-181l74,105l16-98L1802-181z"/>
<path fill="#B84505" stroke="#B84505" stroke-width="1.51" d="M1810,806l-11,172l71-22L1810,806z"/>
<path fill="#D59761" stroke="#D59761" stroke-width="1.51" d="M1802-181l4,115l70-10L1802-181z"/>
<path fill="#A73A04" stroke="#A73A04" stroke-width="1.51" d="M1799,978l-55,156l146-17L1799,978z"/>
<path fill="#CF8B49" stroke="#CF8B49" stroke-width="1.51" d="M1878,114l-67-56l74,150L1878,114z"/>
<path fill="#D4883E" stroke="#D4883E" stroke-width="1.51" d="M1650,98l192,209l43-99L1650,98z"/>
<path fill="#D68F4B" stroke="#D68F4B" stroke-width="1.51" d="M1811,58l-161,40l235,110L1811,58z"/>
<path fill="#D98837" stroke="#D98837" stroke-width="1.51" d="M1650,98l55,252l137-43L1650,98z"/>
<path fill="#D47D27" stroke="#D47D27" stroke-width="1.51" d="M1705,350l60,80l77-123L1705,350z"/>
<path fill="#9A3605" stroke="#9A3605" stroke-width="1.51" d="M1744,1134l-119,178l224-70L1744,1134z"/>
<path fill="#E18F3F" stroke="#E18F3F" stroke-width="1.51" d="M1650,98l-70,92l125,160L1650,98z"/>
<path fill="#B03E04" stroke="#B03E04" stroke-width="1.51" d="M1677,1044l67,90l55-156L1677,1044z"/>
<path fill="#C14703" stroke="#C14703" stroke-width="1.51" d="M1549,863l128,181l122-66L1549,863z"/>
<path fill="#CA4E05" stroke="#CA4E05" stroke-width="1.51" d="M1560,826l-11,37l250,115L1560,826z"/>
<path fill="#DC9A63" stroke="#DC9A63" stroke-width="1.51" d="M1802-181l-143,86l147,29L1802-181z"/>
<path fill="#C44D06" stroke="#C44D06" stroke-width="1.51" d="M1560,826l239,152l11-172L1560,826z"/>
<path fill="#DB985B" stroke="#DB985B" stroke-width="1.51" d="M1806-66l-147-29l152,153L1806-66z"/>
<path fill="#DF9756" stroke="#DF9756" stroke-width="1.51" d="M1659-95l-9,193l161-40L1659-95z"/>
<path fill="#CE560A" stroke="#CE560A" stroke-width="1.51" d="M1728,684l-168,142l250-20L1728,684z"/>
<path fill="#E29E67" stroke="#E29E67" stroke-width="1.51" d="M1622-177l37,82l143-86L1622-177z"/>
<path fill="#A73B04" stroke="#A73B04" stroke-width="1.51" d="M1556,1139l69,173l119-178L1556,1139z"/>
<path fill="#D76C16" stroke="#D76C16" stroke-width="1.51" d="M1709,493l-6,134l54-117L1709,493z"/>
<path fill="#D6721C" stroke="#D6721C" stroke-width="1.51" d="M1709,493l48,17l8-80L1709,493z"/>
<path fill="#D87921" stroke="#D87921" stroke-width="1.51" d="M1705,350l4,143l56-63L1705,350z"/>
<path fill="#B13F04" stroke="#B13F04" stroke-width="1.51" d="M1595,1091l-39,48l188-5L1595,1091z"/>
<path fill="#B13F04" stroke="#B13F04" stroke-width="1.51" d="M1677,1044l-82,47l149,43L1677,1044z"/>
<path fill="#A13E07" stroke="#A13E07" stroke-width="1.51" d="M1457,1298l-58,31l226-17L1457,1298z"/>
<path fill="#C94B02" stroke="#C94B02" stroke-width="1.51" d="M1549,863l-39,111l167,70L1549,863z"/>
<path fill="#DD6F16" stroke="#DD6F16" stroke-width="1.51" d="M1551,507l152,120l6-134L1551,507z"/>
<path fill="#DF7C21" stroke="#DF7C21" stroke-width="1.51" d="M1705,350l-177,107l181,36L1705,350z"/>
<path fill="#D86511" stroke="#D86511" stroke-width="1.51" d="M1703,627l-180-5l205,62L1703,627z"/>
<path fill="#D9600D" stroke="#D9600D" stroke-width="1.51" d="M1523,622l37,204l168-142L1523,622z"/>
<path fill="#E89D5B" stroke="#E89D5B" stroke-width="1.51" d="M1510-32l140,130l9-193L1510-32z"/>
<path fill="#E06D13" stroke="#E06D13" stroke-width="1.51" d="M1551,507l-28,115l180,5L1551,507z"/>
<path fill="#E3781C" stroke="#E3781C" stroke-width="1.51" d="M1528,457l23,50l158-14L1528,457z"/>
<path fill="#E3882A" stroke="#E3882A" stroke-width="1.51" d="M1580,190l-52,267l177-107L1580,190z"/>
<path fill="#EB9C54" stroke="#EB9C54" stroke-width="1.51" d="M1510-32l34,144l106-14L1510-32z"/>
<path fill="#BE4503" stroke="#BE4503" stroke-width="1.51" d="M1510,974l85,117l82-47L1510,974z"/>
<path fill="#EA9036" stroke="#EA9036" stroke-width="1.51" d="M1472,188l56,269l52-267L1472,188z"/>
<path fill="#E7974C" stroke="#E7974C" stroke-width="1.51" d="M1544,112l36,78l70-92L1544,112z"/>
<path fill="#EBA264" stroke="#EBA264" stroke-width="1.51" d="M1622-177L1510-32l149-63L1622-177z"/>
<path fill="#A73D05" stroke="#A73D05" stroke-width="1.51" d="M1556,1139l-99,159l168,14L1556,1139z"/>
<path fill="#EC902F" stroke="#EC902F" stroke-width="1.51" d="M1472,188l-111,142l167,127L1472,188z"/>
<path fill="#EFA56A" stroke="#EFA56A" stroke-width="1.51" d="M1500-242l10,210l112-145L1500-242z"/>
<path fill="#BE4503" stroke="#BE4503" stroke-width="1.51" d="M1510,974l46,165l39-48L1510,974z"/>
<path fill="#E36910" stroke="#E36910" stroke-width="1.51" d="M1523,622l-152-7l189,211L1523,622z"/>
<path fill="#EB9848" stroke="#EB9848" stroke-width="1.51" d="M1544,112l-72,76l108,2L1544,112z"/>
<path fill="#F0A35A" stroke="#F0A35A" stroke-width="1.51" d="M1510-32L1375,6l169,106L1510-32z"/>
<path fill="#B44607" stroke="#B44607" stroke-width="1.51" d="M1307,1135l150,163l99-159L1307,1135z"/>
<path fill="#C64C04" stroke="#C64C04" stroke-width="1.51" d="M1510,974l-147,15l193,150L1510,974z"/>
<path fill="#C34D07" stroke="#C34D07" stroke-width="1.51" d="M1363,989l-56,146l249,4L1363,989z"/>
<path fill="#D65808" stroke="#D65808" stroke-width="1.51" d="M1364,891l185-28l11-37L1364,891z"/>
<path fill="#E0640D" stroke="#E0640D" stroke-width="1.51" d="M1371,615l-7,276l196-65L1371,615z"/>
<path fill="#E87416" stroke="#E87416" stroke-width="1.51" d="M1371,615l152,7l28-115L1371,615z"/>
<path fill="#F2A966" stroke="#F2A966" stroke-width="1.51" d="M1500-242L1375,6l135-38L1500-242z"/>
<path fill="#D45505" stroke="#D45505" stroke-width="1.51" d="M1364,891l146,83l39-111L1364,891z"/>
<path fill="#E9791A" stroke="#E9791A" stroke-width="1.51" d="M1528,457l-157,158l180-108L1528,457z"/>
<path fill="#F7AE6F" stroke="#F7AE6F" stroke-width="1.51" d="M1319-252l56,258l125-248L1319-252z"/>
<path fill="#EFA052" stroke="#EFA052" stroke-width="1.51" d="M1375,6l97,182l72-76L1375,6z"/>
<path fill="#FAB26E" stroke="#FAB26E" stroke-width="1.51" d="M1319-252l-63,131L1375,6L1319-252z"/>
<path fill="#EE8322" stroke="#EE8322" stroke-width="1.51" d="M1361,330l10,285l157-158L1361,330z"/>
<path fill="#D45506" stroke="#D45506" stroke-width="1.51" d="M1364,891l-1,98l147-15L1364,891z"/>
<path fill="#F28823" stroke="#F28823" stroke-width="1.51" d="M1361,330l-140,178l150,107L1361,330z"/>
<path fill="#F3A555" stroke="#F3A555" stroke-width="1.51" d="M1375,6l-79,117l176,65L1375,6z"/>
<path fill="#E66B11" stroke="#E66B11" stroke-width="1.51" d="M1234,807l130,84l7-276L1234,807z"/>
<path fill="#AE4609" stroke="#AE4609" stroke-width="1.51" d="M1307,1135l92,194l58-31L1307,1135z"/>
<path fill="#F2993B" stroke="#F2993B" stroke-width="1.51" d="M1286,294l75,36l111-142L1286,294z"/>
<path fill="#F4A047" stroke="#F4A047" stroke-width="1.51" d="M1296,123l-10,171l186-106L1296,123z"/>
<path fill="#FFBD7B" stroke="#FFBD7B" stroke-width="1.51" d="M980-195l217,6l122-63L980-195z"/>
<path fill="#CE5509" stroke="#CE5509" stroke-width="1.51" d="M1253,1014l54,121l56-146L1253,1014z"/>
<path fill="#F2801C" stroke="#F2801C" stroke-width="1.51" d="M1221,508l49,92l101,15L1221,508z"/>
<path fill="#EE7617" stroke="#EE7617" stroke-width="1.51" d="M1270,600l-36,207l137-192L1270,600z"/>
<path fill="#B44C0C" stroke="#B44C0C" stroke-width="1.51" d="M1307,1135l-144,164l236,30L1307,1135z"/>
<path fill="#BC530E" stroke="#BC530E" stroke-width="1.51" d="M1155,1208l8,91l144-164L1155,1208z"/>
<path fill="#F5952E" stroke="#F5952E" stroke-width="1.51" d="M1286,294l-65,214l140-178L1286,294z"/>
<path fill="#D75A08" stroke="#D75A08" stroke-width="1.51" d="M1253,1014l110-25l1-98L1253,1014z"/>
<path fill="#FAAD5C" stroke="#FAAD5C" stroke-width="1.51" d="M1171,61l125,62l79-117L1171,61z"/>
<path fill="#FBB164" stroke="#FBB164" stroke-width="1.51" d="M1256-121l-85,182l204-55L1256-121z"/>
<path fill="#DE610D" stroke="#DE610D" stroke-width="1.51" d="M1234,807l19,207l111-123L1234,807z"/>
<path fill="#F7982F" stroke="#F7982F" stroke-width="1.51" d="M1148,359l73,149l65-214L1148,359z"/>
<path fill="#F07919" stroke="#F07919" stroke-width="1.51" d="M1153,657l81,150l36-207L1153,657z"/>
<path fill="#F9A64A" stroke="#F9A64A" stroke-width="1.51" d="M1147,190l139,104l10-171L1147,190z"/>
<path fill="#FEB676" stroke="#FEB676" stroke-width="1.51" d="M1197-189l59,68l63-131L1197-189z"/>
<path fill="#C7560C" stroke="#C7560C" stroke-width="1.51" d="M1253,1014l-98,194l152-73L1253,1014z"/>
<path fill="#FBAE58" stroke="#FBAE58" stroke-width="1.51" d="M1171,61l-24,129l149-67L1171,61z"/>
<path fill="#FFD087" stroke="#FFD087" stroke-width="1.51" d="M724-238l203,49l53-6L724-238z"/>
<path fill="#DF640D" stroke="#DF640D" stroke-width="1.51" d="M1234,807l-150,213l169-6L1234,807z"/>
<path fill="#FEB96A" stroke="#FEB96A" stroke-width="1.51" d="M1078-55l93,116l85-182L1078-55z"/>
<path fill="#F9A33F" stroke="#F9A33F" stroke-width="1.51" d="M1147,190l1,169l138-65L1147,190z"/>
<path fill="#B45914" stroke="#B45914" stroke-width="1.51" d="M1061,1275l-146,67l248-43L1061,1275z"/>
<path fill="#CF5D0F" stroke="#CF5D0F" stroke-width="1.51" d="M1084,1020l71,188l98-194L1084,1020z"/>
<path fill="#F5831E" stroke="#F5831E" stroke-width="1.51" d="M1221,508l-68,149l117-57L1221,508z"/>
<path fill="#EF7818" stroke="#EF7818" stroke-width="1.51" d="M1153,657l-74,108l155,42L1153,657z"/>
<path fill="#E76F13" stroke="#E76F13" stroke-width="1.51" d="M1079,765l5,255l150-213L1079,765z"/>
<path fill="#FFBB72" stroke="#FFBB72" stroke-width="1.51" d="M1197-189L1078-55l178-66L1197-189z"/>
<path fill="#F78921" stroke="#F78921" stroke-width="1.51" d="M1051,559l102,98l68-149L1051,559z"/>
<path fill="#FB9D2F" stroke="#FB9D2F" stroke-width="1.51" d="M1042,378l9,181l97-200L1042,378z"/>
<path fill="#F99429" stroke="#F99429" stroke-width="1.51" d="M1148,359l-97,200l170-51L1148,359z"/>
<path fill="#FCAA43" stroke="#FCAA43" stroke-width="1.51" d="M1147,190l-141,81l142,88L1147,190z"/>
<path fill="#FFC177" stroke="#FFC177" stroke-width="1.51" d="M980-195l98,140l119-134L980-195z"/>
<path fill="#CA6012" stroke="#CA6012" stroke-width="1.51" d="M1084,1020l-115,165l186,23L1084,1020z"/>
<path fill="#B85711" stroke="#B85711" stroke-width="1.51" d="M1155,1208l-94,67l102,24L1155,1208z"/>
<path fill="#FDB55D" stroke="#FDB55D" stroke-width="1.51" d="M1042,40l105,150l24-129L1042,40z"/>
<path fill="#FFBB67" stroke="#FFBB67" stroke-width="1.51" d="M1078-55l-36,95l129,21L1078-55z"/>
<path fill="#FCA839" stroke="#FCA839" stroke-width="1.51" d="M1006,271l36,107l106-19L1006,271z"/>
<path fill="#F4821D" stroke="#F4821D" stroke-width="1.51" d="M996,675l83,90l74-108L996,675z"/>
<path fill="#BF5C12" stroke="#BF5C12" stroke-width="1.51" d="M969,1185l92,90l94-67L969,1185z"/>
<path fill="#F78921" stroke="#F78921" stroke-width="1.51" d="M1051,559l-55,116l157-18L1051,559z"/>
<path fill="#FEB556" stroke="#FEB556" stroke-width="1.51" d="M1042,40l-36,231l141-81L1042,40z"/>
<path fill="#FFB954" stroke="#FFB954" stroke-width="1.51" d="M927,50l14,213l65,8L927,50z"/>
<path fill="#FFBD5F" stroke="#FFBD5F" stroke-width="1.51" d="M927,50l79,221l36-231L927,50z"/>
<path fill="#FA8F24" stroke="#FA8F24" stroke-width="1.51" d="M956,622l40,53l55-116L956,622z"/>
<path fill="#F4841E" stroke="#F4841E" stroke-width="1.51" d="M996,675L811,839l268-74L996,675z"/>
<path fill="#EC7F1D" stroke="#EC7F1D" stroke-width="1.51" d="M811,839l43,140l225-214L811,839z"/>
<path fill="#E67316" stroke="#E67316" stroke-width="1.51" d="M1079,765L854,979l230,41L1079,765z"/>
<path fill="#D76C15" stroke="#D76C15" stroke-width="1.51" d="M854,979l115,206l115-165L854,979z"/>
<path fill="#FFC16B" stroke="#FFC16B" stroke-width="1.51" d="M941,9l101,31l36-95L941,9z"/>
<path fill="#FFC674" stroke="#FFC674" stroke-width="1.51" d="M980-195L941,9l137-64L980-195z"/>
<path fill="#FFCA7A" stroke="#FFCA7A" stroke-width="1.51" d="M927-189L941,9l39-204L927-189z"/>
<path fill="#FFA635" stroke="#FFA635" stroke-width="1.51" d="M958,322L823,590l219-212L958,322z"/>
<path fill="#FE9C2C" stroke="#FE9C2C" stroke-width="1.51" d="M823,590l133,32l86-244L823,590z"/>
<path fill="#FEAD3D" stroke="#FEAD3D" stroke-width="1.51" d="M1006,271l-48,51l84,56L1006,271z"/>
<path fill="#FD9729" stroke="#FD9729" stroke-width="1.51" d="M1042,378l-86,244l95-63L1042,378z"/>
<path fill="#BC6016" stroke="#BC6016" stroke-width="1.51" d="M969,1185l-54,157l146-67L969,1185z"/>
<path fill="#FFC269" stroke="#FFC269" stroke-width="1.51" d="M941,9l-14,41l115-10L941,9z"/>
<path fill="#FFCD7A" stroke="#FFCD7A" stroke-width="1.51" d="M927-189L809-84L941,9L927-189z"/>
<path fill="#FFAE3C" stroke="#FFAE3C" stroke-width="1.51" d="M792,324l31,266l135-268L792,324z"/>
<path fill="#D1701B" stroke="#D1701B" stroke-width="1.51" d="M854,979l-37,186l152,20L854,979z"/>
<path fill="#FFB245" stroke="#FFB245" stroke-width="1.51" d="M941,263l17,59l48-51L941,263z"/>
<path fill="#F5902A" stroke="#F5902A" stroke-width="1.51" d="M785,629v192l26,18L785,629z"/>
<path fill="#FFC260" stroke="#FFC260" stroke-width="1.51" d="M927,50L771,156l170,107L927,50z"/>
<path fill="#F89228" stroke="#F89228" stroke-width="1.51" d="M785,629l26,210l145-217L785,629z"/>
<path fill="#F78B23" stroke="#F78B23" stroke-width="1.51" d="M956,622L811,839l185-164L956,622z"/>
<path fill="#C1681A" stroke="#C1681A" stroke-width="1.51" d="M817,1165l98,177l54-157L817,1165z"/>
<path fill="#FC9A2D" stroke="#FC9A2D" stroke-width="1.51" d="M823,590l-38,39l171-7L823,590z"/>
<path fill="#FFB646" stroke="#FFB646" stroke-width="1.51" d="M941,263l-149,61l166-2L941,263z"/>
<path fill="#B87125" stroke="#B87125" stroke-width="1.51" d="M756,1225l-276,122l435-5L756,1225z"/>
<path fill="#C06C1F" stroke="#C06C1F" stroke-width="1.51" d="M817,1165l-61,60l159,117L817,1165z"/>
<path fill="#FFBD4F" stroke="#FFBD4F" stroke-width="1.51" d="M744,236l48,88l149-61L744,236z"/>
<path fill="#FFC259" stroke="#FFC259" stroke-width="1.51" d="M771,156l-27,80l197,27L771,156z"/>
<path fill="#FFCA72" stroke="#FFCA72" stroke-width="1.51" d="M809-84L927,50l14-41L809-84z"/>
<path fill="#FFCB70" stroke="#FFCB70" stroke-width="1.51" d="M809-84l-38,240L927,50L809-84z"/>
<path fill="#FFD486" stroke="#FFD486" stroke-width="1.51" d="M724-238l85,154l118-105L724-238z"/>
<path fill="#E98122" stroke="#E98122" stroke-width="1.51" d="M811,839l-32,102l75,38L811,839z"/>
<path fill="#FFF9CA" stroke="#FFF9CA" stroke-width="1.51" d="M-223-180l215,11l367-96L-223-180z"/>
<path fill="#FEB03D" stroke="#FEB03D" stroke-width="1.51" d="M608,527l161,82l23-285L608,527z"/>
<path fill="#FFD47A" stroke="#FFD47A" stroke-width="1.51" d="M624-60l147,216l38-240L624-60z"/>
<path fill="#DB7E25" stroke="#DB7E25" stroke-width="1.51" d="M779,941l-147,91l185,133L779,941z"/>
<path fill="#D07A25" stroke="#D07A25" stroke-width="1.51" d="M632,1032l94,154l91-21L632,1032z"/>
<path fill="#FFA937" stroke="#FFA937" stroke-width="1.51" d="M792,324l-23,285l54-19L792,324z"/>
<path fill="#DD7920" stroke="#DD7920" stroke-width="1.51" d="M779,941l38,224l37-186L779,941z"/>
<path fill="#FFD677" stroke="#FFD677" stroke-width="1.51" d="M624-60l-31,178l178,38L624-60z"/>
<path fill="#F6972E" stroke="#F6972E" stroke-width="1.51" d="M651,751l134,70V629L651,751z"/>
<path fill="#ED8726" stroke="#ED8726" stroke-width="1.51" d="M785,821l-6,120l32-102L785,821z"/>
<path fill="#FC9E31" stroke="#FC9E31" stroke-width="1.51" d="M769,609l16,20l38-39L769,609z"/>
<path fill="#BD7A31" stroke="#BD7A31" stroke-width="1.51" d="M520,1246l-40,101l276-122L520,1246z"/>
<path fill="#FFBC49" stroke="#FFBC49" stroke-width="1.51" d="M543,415l65,112l184-203L543,415z"/>
<path fill="#FFDA88" stroke="#FFDA88" stroke-width="1.51" d="M724-238L624-60l185-24L724-238z"/>
<path fill="#C87322" stroke="#C87322" stroke-width="1.51" d="M726,1186l30,39l61-60L726,1186z"/>
<path fill="#EE8D2A" stroke="#EE8D2A" stroke-width="1.51" d="M632,804l147,137l6-120L632,804z"/>
<path fill="#F99D32" stroke="#F99D32" stroke-width="1.51" d="M769,609L651,751l134-122L769,609z"/>
<path fill="#FEC24F" stroke="#FEC24F" stroke-width="1.51" d="M744,236L543,415l249-91L744,236z"/>
<path fill="#F3952F" stroke="#F3952F" stroke-width="1.51" d="M651,751l-19,53l153,17L651,751z"/>
<path fill="#E98B2A" stroke="#E98B2A" stroke-width="1.51" d="M632,804v228l147-91L632,804z"/>
<path fill="#FBA537" stroke="#FBA537" stroke-width="1.51" d="M608,527l43,224l118-142L608,527z"/>
<path fill="#FFCD68" stroke="#FFCD68" stroke-width="1.51" d="M593,118l151,118l27-80L593,118z"/>
<path fill="#C47928" stroke="#C47928" stroke-width="1.51" d="M726,1186l-206,60l236-21L726,1186z"/>
<path fill="#FFCA5D" stroke="#FFCA5D" stroke-width="1.51" d="M526,230l17,185l201-179L526,230z"/>
<path fill="#FFE192" stroke="#FFE192" stroke-width="1.51" d="M518-164L624-60l100-178L518-164z"/>
<path fill="#FFD06A" stroke="#FFD06A" stroke-width="1.51" d="M593,118l-67,112l218,6L593,118z"/>
<path fill="#FCA941" stroke="#FCA941" stroke-width="1.51" d="M608,527L503,634l148,117L608,527z"/>
<path fill="#FFE5A0" stroke="#FFE5A0" stroke-width="1.51" d="M445-273l73,109l206-74L445-273z"/>
<path fill="#D1802D" stroke="#D1802D" stroke-width="1.51" d="M632,1032l-101,109l195,45L632,1032z"/>
<path fill="#C97E31" stroke="#C97E31" stroke-width="1.51" d="M531,1141l-11,105l206-60L531,1141z"/>
<path fill="#FFDE88" stroke="#FFDE88" stroke-width="1.51" d="M502-72l91,190l31-178L502-72z"/>
<path fill="#EB9642" stroke="#EB9642" stroke-width="1.51" d="M413,797l-61,169l280,66L413,797z"/>
<path fill="#EE953A" stroke="#EE953A" stroke-width="1.51" d="M413,797l219,235V804L413,797z"/>
<path fill="#F8A03C" stroke="#F8A03C" stroke-width="1.51" d="M503,634l129,170l19-53L503,634z"/>
<path fill="#FFE495" stroke="#FFE495" stroke-width="1.51" d="M518-164l-16,92l122,12L518-164z"/>
<path fill="#D98A3C" stroke="#D98A3C" stroke-width="1.51" d="M380,1057l94,66l158-91L380,1057z"/>
<path fill="#E19042" stroke="#E19042" stroke-width="1.51" d="M352,966l28,91l252-25L352,966z"/>
<path fill="#D68637" stroke="#D68637" stroke-width="1.51" d="M474,1123l57,18l101-109L474,1123z"/>
<path fill="#F8A344" stroke="#F8A344" stroke-width="1.51" d="M503,634l-90,163l219,7L503,634z"/>
<path fill="#FFF6C2" stroke="#FFF6C2" stroke-width="1.51" d="M-8-169l122-3l245-93L-8-169z"/>
<path fill="#FFDF89" stroke="#FFDF89" stroke-width="1.51" d="M502-72l-76,189l167,1L502-72z"/>
<path fill="#FFB84E" stroke="#FFB84E" stroke-width="1.51" d="M543,415L430,613l178-86L543,415z"/>
<path fill="#FEB14C" stroke="#FEB14C" stroke-width="1.51" d="M430,613l73,21l105-107L430,613z"/>
<path fill="#FFCE67" stroke="#FFCE67" stroke-width="1.51" d="M526,230l-57-4l74,189L526,230z"/>
<path fill="#FFD97C" stroke="#FFD97C" stroke-width="1.51" d="M426,117l100,113l67-112L426,117z"/>
<path fill="#FFD87B" stroke="#FFD87B" stroke-width="1.51" d="M426,117l43,109l57,4L426,117z"/>
<path fill="#CC8339" stroke="#CC8339" stroke-width="1.51" d="M474,1123l46,123l11-105L474,1123z"/>
<path fill="#FFC05A" stroke="#FFC05A" stroke-width="1.51" d="M396,405l34,208l113-198L396,405z"/>
<path fill="#FFCC64" stroke="#FFCC64" stroke-width="1.51" d="M469,226l-73,179l147,10L469,226z"/>
<path fill="#FBAC4F" stroke="#FBAC4F" stroke-width="1.51" d="M430,613l-17,184l90-163L430,613z"/>
<path fill="#FFE9A5" stroke="#FFE9A5" stroke-width="1.51" d="M359-265L502-72l16-92L359-265z"/>
<path fill="#BA8042" stroke="#BA8042" stroke-width="1.51" d="M245,1340l235,7l40-101L245,1340z"/>
<path fill="#C48444" stroke="#C48444" stroke-width="1.51" d="M474,1123l-229,217l275-94L474,1123z"/>
<path fill="#FFECAE" stroke="#FFECAE" stroke-width="1.51" d="M445-273l-86,8l159,101L445-273z"/>
<path fill="#CA8B4C" stroke="#CA8B4C" stroke-width="1.51" d="M230,1124l15,216l229-217L230,1124z"/>
<path fill="#FFE79B" stroke="#FFE79B" stroke-width="1.51" d="M258-61l168,178l76-189L258-61z"/>
<path fill="#FFEDAB" stroke="#FFEDAB" stroke-width="1.51" d="M359-265L258-61l244-11L359-265z"/>
<path fill="#FFD574" stroke="#FFD574" stroke-width="1.51" d="M307,242l89,163l73-179L307,242z"/>
<path fill="#D78F4B" stroke="#D78F4B" stroke-width="1.51" d="M380,1057l-150,67l244-1L380,1057z"/>
<path fill="#FFE89D" stroke="#FFE89D" stroke-width="1.51" d="M258-61L247,85l179,32L258-61z"/>
<path fill="#FFBE5F" stroke="#FFBE5F" stroke-width="1.51" d="M396,405L272,604l158,9L396,405z"/>
<path fill="#FFDC82" stroke="#FFDC82" stroke-width="1.51" d="M426,117L307,242l162-16L426,117z"/>
<path fill="#FBB057" stroke="#FBB057" stroke-width="1.51" d="M264,647l149,150l17-184L264,647z"/>
<path fill="#FFC668" stroke="#FFC668" stroke-width="1.51" d="M223,461l49,143l124-199L223,461z"/>
<path fill="#F1A252" stroke="#F1A252" stroke-width="1.51" d="M283,814l69,152l61-169L283,814z"/>
<path fill="#F9AC58" stroke="#F9AC58" stroke-width="1.51" d="M264,647l19,167l130-17L264,647z"/>
<path fill="#FEB85E" stroke="#FEB85E" stroke-width="1.51" d="M272,604l-8,43l166-34L272,604z"/>
<path fill="#FEE291" stroke="#FEE291" stroke-width="1.51" d="M247,85l60,157l119-125L247,85z"/>
<path fill="#FFD172" stroke="#FFD172" stroke-width="1.51" d="M307,242l-84,219l173-56L307,242z"/>
<path fill="#C38A52" stroke="#C38A52" stroke-width="1.51" d="M230,1124l-42,177l57,39L230,1124z"/>
<path fill="#DE944E" stroke="#DE944E" stroke-width="1.51" d="M352,966l-122,158l150-67L352,966z"/>
<path fill="#FFF2B8" stroke="#FFF2B8" stroke-width="1.51" d="M114-172L258-61l101-204L114-172z"/>
<path fill="#E09755" stroke="#E09755" stroke-width="1.51" d="M82,1037l148,87l122-158L82,1037z"/>
<path fill="#EC9F5A" stroke="#EC9F5A" stroke-width="1.51" d="M106,867l-24,170l270-71L106,867z"/>
<path fill="#F1A358" stroke="#F1A358" stroke-width="1.51" d="M283,814l-177,53l246,99L283,814z"/>
<path fill="#BA8A58" stroke="#BA8A58" stroke-width="1.51" d="M188,1301l-258,24l315,15L188,1301z"/>
<path fill="#FCB361" stroke="#FCB361" stroke-width="1.51" d="M264,647l-109-6l128,173L264,647z"/>
<path fill="#FFE291" stroke="#FFE291" stroke-width="1.51" d="M247,85L67,277l240-35L247,85z"/>
<path fill="#FFD97D" stroke="#FFD97D" stroke-width="1.51" d="M67,277l156,184l84-219L67,277z"/>
<path fill="#FFD77F" stroke="#FFD77F" stroke-width="1.51" d="M67,277l-5,123l161,61L67,277z"/>
<path fill="#FFE89E" stroke="#FFE89E" stroke-width="1.51" d="M76,101l-9,176L247,85L76,101z"/>
<path fill="#FFEEA9" stroke="#FFEEA9" stroke-width="1.51" d="M137-28L247,85l11-146L137-28z"/>
<path fill="#FFC069" stroke="#FFC069" stroke-width="1.51" d="M223,461l-68,180l117-37L223,461z"/>
<path fill="#FAAE62" stroke="#FAAE62" stroke-width="1.51" d="M155,641l-49,226l177-53L155,641z"/>
<path fill="#CA8F56" stroke="#CA8F56" stroke-width="1.51" d="M96,1199l92,102l42-177L96,1199z"/>
<path fill="#FFBA65" stroke="#FFBA65" stroke-width="1.51" d="M155,641l109,6l8-43L155,641z"/>
<path fill="#FFE9A0" stroke="#FFE9A0" stroke-width="1.51" d="M44,142l23,135l9-176L44,142z"/>
<path fill="#FFF3B5" stroke="#FFF3B5" stroke-width="1.51" d="M114-172l23,144l121-33L114-172z"/>
<path fill="#FFC56F" stroke="#FFC56F" stroke-width="1.51" d="M61,524l94,117l68-180L61,524z"/>
<path fill="#FFEDA8" stroke="#FFEDA8" stroke-width="1.51" d="M137-28L76,101l171-16L137-28z"/>
<path fill="#D69559" stroke="#D69559" stroke-width="1.51" d="M82,1037l14,162l134-75L82,1037z"/>
<path fill="#FFCE78" stroke="#FFCE78" stroke-width="1.51" d="M62,400l-1,124l162-63L62,400z"/>
<path fill="#FFDD87" stroke="#FFDD87" stroke-width="1.51" d="M36,338l26,62l5-123L36,338z"/>
<path fill="#FAB168" stroke="#FAB168" stroke-width="1.51" d="M10,833l96,34l49-226L10,833z"/>
<path fill="#FEB96C" stroke="#FEB96C" stroke-width="1.51" d="M48,619L10,833l145-192L48,619z"/>
<path fill="#C18E5C" stroke="#C18E5C" stroke-width="1.51" d="M96,1199l-166,126l258-24L96,1199z"/>
<path fill="#EBA262" stroke="#EBA262" stroke-width="1.51" d="M-4,1006l86,31l24-170L-4,1006z"/>
<path fill="#FFF6BD" stroke="#FFF6BD" stroke-width="1.51" d="M114-172l-99,39L137-28L114-172z"/>
<path fill="#FFC271" stroke="#FFC271" stroke-width="1.51" d="M61,524l-13,95l107,22L61,524z"/>
<path fill="#FFE89D" stroke="#FFE89D" stroke-width="1.51" d="M44,142L8,172l59,105L44,142z"/>
<path fill="#FFF3B5" stroke="#FFF3B5" stroke-width="1.51" d="M15-133l61,234l61-129L15-133z"/>
<path fill="#FFF3B5" stroke="#FFF3B5" stroke-width="1.51" d="M15-133l-125,251l186-17L15-133z"/>
<path fill="#D79760" stroke="#D79760" stroke-width="1.51" d="M82,1037l-136,98l150,64L82,1037z"/>
<path fill="#F2A866" stroke="#F2A866" stroke-width="1.51" d="M10,833l-14,173l110-139L10,833z"/>
<path fill="#FFF9C6" stroke="#FFF9C6" stroke-width="1.51" d="M-8-169l23,36l99-39L-8-169z"/>
<path fill="#E09C63" stroke="#E09C63" stroke-width="1.51" d="M-4,1006l-50,129l136-98L-4,1006z"/>
<path fill="#CA9361" stroke="#CA9361" stroke-width="1.51" d="M-54,1135l-16,190l166-126L-54,1135z"/>
<path fill="#FFBB73" stroke="#FFBB73" stroke-width="1.51" d="M-99,603L10,833l38-214L-99,603z"/>
<path fill="#FFCE7D" stroke="#FFCE7D" stroke-width="1.51" d="M-42,522l103,2l1-124L-42,522z"/>
<path fill="#FFEEAB" stroke="#FFEEAB" stroke-width="1.51" d="M-110,118l154,24l32-41L-110,118z"/>
<path fill="#FFF7C3" stroke="#FFF7C3" stroke-width="1.51" d="M-159-125l49,243L15-133L-159-125z"/>
<path fill="#FFC777" stroke="#FFC777" stroke-width="1.51" d="M-42,522l90,97l13-95L-42,522z"/>
<path fill="#FFE393" stroke="#FFE393" stroke-width="1.51" d="M8,172l28,166l31-61L8,172z"/>
<path fill="#FFB977" stroke="#FFB977" stroke-width="1.51" d="M-99,603l-93,115L10,833L-99,603z"/>
<path fill="#F0A669" stroke="#F0A669" stroke-width="1.51" d="M-106,959l102,47l14-173L-106,959z"/>
<path fill="#FFD583" stroke="#FFD583" stroke-width="1.51" d="M36,338l-78,184L62,400L36,338z"/>
<path fill="#FFE6A0" stroke="#FFE6A0" stroke-width="1.51" d="M-178,206l21,143L8,172L-178,206z"/>
<path fill="#FFE295" stroke="#FFE295" stroke-width="1.51" d="M8,172l-165,177l193-11L8,172z"/>
<path fill="#FFD889" stroke="#FFD889" stroke-width="1.51" d="M-157,349l115,173l78-184L-157,349z"/>
<path fill="#FFEDAA" stroke="#FFEDAA" stroke-width="1.51" d="M-110,118L8,172l36-30L-110,118z"/>
<path fill="#FFC579" stroke="#FFC579" stroke-width="1.51" d="M-42,522l-57,81l147,16L-42,522z"/>
<path fill="#FFFBD1" stroke="#FFFBD1" stroke-width="1.51" d="M-223-180l64,55l151-44L-223-180z"/>
<path fill="#FFECAB" stroke="#FFECAB" stroke-width="1.51" d="M-110,118l-68,88L8,172L-110,118z"/>
<path fill="#FFF9CA" stroke="#FFF9CA" stroke-width="1.51" d="M-8-169l-151,44l174-8L-8-169z"/>
<path fill="#C69167" stroke="#C69167" stroke-width="1.51" d="M-167,1289l97,36l16-190L-167,1289z"/>
<path fill="#DC9B67" stroke="#DC9B67" stroke-width="1.51" d="M-99,1128l45,7l50-129L-99,1128z"/>
<path fill="#F4AA70" stroke="#F4AA70" stroke-width="1.51" d="M-221,872l115,87L10,833L-221,872z"/>
<path fill="#FAB176" stroke="#FAB176" stroke-width="1.51" d="M-192,718l-29,154l231-39L-192,718z"/>
<path fill="#D09569" stroke="#D09569" stroke-width="1.51" d="M-99,1128l-68,161l113-154L-99,1128z"/>
<path fill="#E49F69" stroke="#E49F69" stroke-width="1.51" d="M-106,959l7,169l95-122L-106,959z"/>
<path fill="#FFCF84" stroke="#FFCF84" stroke-width="1.51" d="M-157,349l58,254l57-81L-157,349z"/>
<path fill="#FFF3BC" stroke="#FFF3BC" stroke-width="1.51" d="M-159-125l-19,331l68-88L-159-125z"/>
<path fill="#EBA36F" stroke="#EBA36F" stroke-width="1.51" d="M-106,959l-115-87l122,256L-106,959z"/>
<path fill="#DC9C6E" stroke="#DC9C6E" stroke-width="1.51" d="M-221,872l54,417l68-161L-221,872z"/>
<path fill="#FFC983" stroke="#FFC983" stroke-width="1.51" d="M-157,349l-35,369l93-115L-157,349z"/>
<path fill="#FFF8C8" stroke="#FFF8C8" stroke-width="1.51" d="M-223-180l45,386l19-331L-223-180z"/>
<path fill="#FFD78F" stroke="#FFD78F" stroke-width="1.51" d="M-178,206l-14,512l35-369L-178,206z"/>
<path fill="#FFC684" stroke="#FFC684" stroke-width="1.51" d="M-221,872l29-154l14-512L-221,872z"/>
<path fill="#FFE39F" stroke="#FFE39F" stroke-width="1.51" d="M-223-180l2,1052l43-666L-223-180z"/>
</svg>
