<?xml version="1.0" encoding="utf-8"?>
<!-- Generator: Adobe Illustrator 15.1.0, SVG Export Plug-In . SVG Version: 6.00 Build 0)  -->
<!DOCTYPE svg PUBLIC "-//W3C//DTD SVG 1.1//EN" "http://www.w3.org/Graphics/SVG/1.1/DTD/svg11.dtd">
<svg version="1.1" id="Layer_1" xmlns="http://www.w3.org/2000/svg" xmlns:xlink="http://www.w3.org/1999/xlink" x="0px" y="0px"
	 width="1920px" height="1080px" viewBox="0 0 1920 1080" enable-background="new 0 0 1920 1080" xml:space="preserve">
<path fill="#FFB8A1" stroke="#FFB8A1" stroke-width="1.51" d="M445-273l279,35l595-14L445-273z"/>
<path fill="#A31519" stroke="#A31519" stroke-width="1.51" d="M1399,1329l-484,13l1057,1L1399,1329z"/>
<path fill="#970A15" stroke="#970A15" stroke-width="1.51" d="M1625,1312l-226,17l573,14L1625,1312z"/>
<path fill="#940914" stroke="#940914" stroke-width="1.51" d="M2029,1110l20,142l48-264L2029,1110z"/>
<path fill="#A71519" stroke="#A71519" stroke-width="1.51" d="M2046,756l14,138l37,94L2046,756z"/>
<path fill="#D28373" stroke="#D28373" stroke-width="1.51" d="M1802-181l90,7l223-18L1802-181z"/>
<path fill="#DF8977" stroke="#DF8977" stroke-width="1.51" d="M1500-242l302,61l313-11L1500-242z"/>
<path fill="#C65E49" stroke="#C65E49" stroke-width="1.51" d="M1885,208l19,125l246-149L1885,208z"/>
<path fill="#BB7264" stroke="#BB7264" stroke-width="1.51" d="M2115-192l-36,94l71,282L2115-192z"/>
<path fill="#B96959" stroke="#B96959" stroke-width="1.51" d="M2079-98l25,212l46,70L2079-98z"/>
<path fill="#BB3F2F" stroke="#BB3F2F" stroke-width="1.51" d="M1917,489l159,79l80-111L1917,489z"/>
<path fill="#C24A37" stroke="#C24A37" stroke-width="1.51" d="M1904,333l13,156l239-32L1904,333z"/>
<path fill="#AF211E" stroke="#AF211E" stroke-width="1.51" d="M2046,756l51,232l59-531L2046,756z"/>
<path fill="#B43427" stroke="#B43427" stroke-width="1.51" d="M2076,568l-30,188l110-299L2076,568z"/>
<path fill="#BA513F" stroke="#BA513F" stroke-width="1.51" d="M2150,184l-246,149l252,124L2150,184z"/>
<path fill="#BF624F" stroke="#BF624F" stroke-width="1.51" d="M2104,114l-219,94l265-24L2104,114z"/>
<path fill="#AE1A1B" stroke="#AE1A1B" stroke-width="1.51" d="M2046,756l-47,117l61,21L2046,756z"/>
<path fill="#BB2E24" stroke="#BB2E24" stroke-width="1.51" d="M1933,671l113,85l30-188L1933,671z"/>
<path fill="#CE7866" stroke="#CE7866" stroke-width="1.51" d="M1876-76l2,190l201-212L1876-76z"/>
<path fill="#C46F5D" stroke="#C46F5D" stroke-width="1.51" d="M2079-98l-201,212h226L2079-98z"/>
<path fill="#C77D6F" stroke="#C77D6F" stroke-width="1.51" d="M1892-174l187,76l36-94L1892-174z"/>
<path fill="#C96954" stroke="#C96954" stroke-width="1.51" d="M1878,114l7,94l219-94H1878z"/>
<path fill="#A30D16" stroke="#A30D16" stroke-width="1.51" d="M1870,956l159,154l68-122L1870,956z"/>
<path fill="#AB1118" stroke="#AB1118" stroke-width="1.51" d="M1999,873l-129,83l227,32L1999,873z"/>
<path fill="#A61118" stroke="#A61118" stroke-width="1.51" d="M2060,894l-61-21l98,115L2060,894z"/>
<path fill="#CF7F6E" stroke="#CF7F6E" stroke-width="1.51" d="M1892-174l-16,98l203-22L1892-174z"/>
<path fill="#C23A2A" stroke="#C23A2A" stroke-width="1.51" d="M1917,489l16,182l143-103L1917,489z"/>
<path fill="#A60F16" stroke="#A60F16" stroke-width="1.51" d="M1870,956l20,161l139-7L1870,956z"/>
<path fill="#970B14" stroke="#970B14" stroke-width="1.51" d="M2029,1110l-139,7l159,135L2029,1110z"/>
<path fill="#880712" stroke="#880712" stroke-width="1.51" d="M1849,1242l123,101l77-91L1849,1242z"/>
<path fill="#960B14" stroke="#960B14" stroke-width="1.51" d="M1890,1117l-41,125l200,10L1890,1117z"/>
<path fill="#B9211E" stroke="#B9211E" stroke-width="1.51" d="M1933,671l66,202l47-117L1933,671z"/>
<path fill="#C0221E" stroke="#C0221E" stroke-width="1.51" d="M1933,671l-123,135l189,67L1933,671z"/>
<path fill="#B12A22" stroke="#B12A22" stroke-width="1.51" d="M1163,1299l-248,43l484-13L1163,1299z"/>
<path fill="#EB8C7A" stroke="#EB8C7A" stroke-width="1.51" d="M1500-242l122,65l180-4L1500-242z"/>
<path fill="#BB1A1B" stroke="#BB1A1B" stroke-width="1.51" d="M1810,806l60,150l129-83L1810,806z"/>
<path fill="#D87761" stroke="#D87761" stroke-width="1.51" d="M1876-76l-65,134l67,56L1876-76z"/>
<path fill="#920913" stroke="#920913" stroke-width="1.51" d="M1849,1242l-224,70l347,31L1849,1242z"/>
<path fill="#D63C2B" stroke="#D63C2B" stroke-width="1.51" d="M1703,627l25,57l29-174L1703,627z"/>
<path fill="#B21217" stroke="#B21217" stroke-width="1.51" d="M1870,956l-71,22l91,139L1870,956z"/>
<path fill="#D05D46" stroke="#D05D46" stroke-width="1.51" d="M1885,208l-43,99l62,26L1885,208z"/>
<path fill="#D14F3A" stroke="#D14F3A" stroke-width="1.51" d="M1904,333l-139,97l152,59L1904,333z"/>
<path fill="#CD2B23" stroke="#CD2B23" stroke-width="1.51" d="M1728,684l82,122l123-135L1728,684z"/>
<path fill="#CE402E" stroke="#CE402E" stroke-width="1.51" d="M1917,489l-160,21l176,161L1917,489z"/>
<path fill="#D13929" stroke="#D13929" stroke-width="1.51" d="M1757,510l-29,174l205-13L1757,510z"/>
<path fill="#DA7D69" stroke="#DA7D69" stroke-width="1.51" d="M1806-66l5,124l65-134L1806-66z"/>
<path fill="#D35740" stroke="#D35740" stroke-width="1.51" d="M1842,307l-77,123l139-97L1842,307z"/>
<path fill="#D44A35" stroke="#D44A35" stroke-width="1.51" d="M1765,430l-8,80l160-21L1765,430z"/>
<path fill="#FFAC94" stroke="#FFAC94" stroke-width="1.51" d="M724-238l256,43l339-57L724-238z"/>
<path fill="#A60F15" stroke="#A60F15" stroke-width="1.51" d="M1744,1134l105,108l41-125L1744,1134z"/>
<path fill="#DB8472" stroke="#DB8472" stroke-width="1.51" d="M1802-181l74,105l16-98L1802-181z"/>
<path fill="#BD181B" stroke="#BD181B" stroke-width="1.51" d="M1810,806l-11,172l71-22L1810,806z"/>
<path fill="#DC8370" stroke="#DC8370" stroke-width="1.51" d="M1802-181l4,115l70-10L1802-181z"/>
<path fill="#AF1217" stroke="#AF1217" stroke-width="1.51" d="M1799,978l-55,156l146-17L1799,978z"/>
<path fill="#D46E57" stroke="#D46E57" stroke-width="1.51" d="M1878,114l-67-56l74,150L1878,114z"/>
<path fill="#D86850" stroke="#D86850" stroke-width="1.51" d="M1650,98l192,209l43-99L1650,98z"/>
<path fill="#DA7159" stroke="#DA7159" stroke-width="1.51" d="M1811,58l-161,40l235,110L1811,58z"/>
<path fill="#DB644C" stroke="#DB644C" stroke-width="1.51" d="M1650,98l55,252l137-43L1650,98z"/>
<path fill="#D75740" stroke="#D75740" stroke-width="1.51" d="M1705,350l60,80l77-123L1705,350z"/>
<path fill="#A10E16" stroke="#A10E16" stroke-width="1.51" d="M1744,1134l-119,178l224-70L1744,1134z"/>
<path fill="#E26A52" stroke="#E26A52" stroke-width="1.51" d="M1650,98l-70,92l125,160L1650,98z"/>
<path fill="#B61318" stroke="#B61318" stroke-width="1.51" d="M1677,1044l67,90l55-156L1677,1044z"/>
<path fill="#C2161B" stroke="#C2161B" stroke-width="1.51" d="M1549,863l128,181l122-66L1549,863z"/>
<path fill="#CB1D1E" stroke="#CB1D1E" stroke-width="1.51" d="M1560,826l-11,37l250,115L1560,826z"/>
<path fill="#E18572" stroke="#E18572" stroke-width="1.51" d="M1802-181l-143,86l147,29L1802-181z"/>
<path fill="#C71E1E" stroke="#C71E1E" stroke-width="1.51" d="M1560,826l239,152l11-172L1560,826z"/>
<path fill="#DF7F6B" stroke="#DF7F6B" stroke-width="1.51" d="M1806-66l-147-29l152,153L1806-66z"/>
<path fill="#E17C65" stroke="#E17C65" stroke-width="1.51" d="M1659-95l-9,193l161-40L1659-95z"/>
<path fill="#D12721" stroke="#D12721" stroke-width="1.51" d="M1728,684l-168,142l250-20L1728,684z"/>
<path fill="#E68875" stroke="#E68875" stroke-width="1.51" d="M1622-177l37,82l143-86L1622-177z"/>
<path fill="#AD1117" stroke="#AD1117" stroke-width="1.51" d="M1556,1139l69,173l119-178L1556,1139z"/>
<path fill="#D84431" stroke="#D84431" stroke-width="1.51" d="M1709,493l-6,134l54-117L1709,493z"/>
<path fill="#D84B36" stroke="#D84B36" stroke-width="1.51" d="M1709,493l48,17l8-80L1709,493z"/>
<path fill="#DA513B" stroke="#DA513B" stroke-width="1.51" d="M1705,350l4,143l56-63L1705,350z"/>
<path fill="#B71318" stroke="#B71318" stroke-width="1.51" d="M1595,1091l-39,48l188-5L1595,1091z"/>
<path fill="#B71419" stroke="#B71419" stroke-width="1.51" d="M1677,1044l-82,47l149,43L1677,1044z"/>
<path fill="#A31118" stroke="#A31118" stroke-width="1.51" d="M1457,1298l-58,31l226-17L1457,1298z"/>
<path fill="#C9181D" stroke="#C9181D" stroke-width="1.51" d="M1549,863l-39,111l167,70L1549,863z"/>
<path fill="#DD4531" stroke="#DD4531" stroke-width="1.51" d="M1551,507l152,120l6-134L1551,507z"/>
<path fill="#DF523C" stroke="#DF523C" stroke-width="1.51" d="M1705,350l-177,107l181,36L1705,350z"/>
<path fill="#DA382B" stroke="#DA382B" stroke-width="1.51" d="M1703,627l-180-5l205,62L1703,627z"/>
<path fill="#DB3026" stroke="#DB3026" stroke-width="1.51" d="M1523,622l37,204l168-142L1523,622z"/>
<path fill="#E9816A" stroke="#E9816A" stroke-width="1.51" d="M1510-32l140,130l9-193L1510-32z"/>
<path fill="#E0412F" stroke="#E0412F" stroke-width="1.51" d="M1551,507l-28,115l180,5L1551,507z"/>
<path fill="#E14D37" stroke="#E14D37" stroke-width="1.51" d="M1528,457l23,50l158-14L1528,457z"/>
<path fill="#E25E46" stroke="#E25E46" stroke-width="1.51" d="M1580,190l-52,267l177-107L1580,190z"/>
<path fill="#EA7B64" stroke="#EA7B64" stroke-width="1.51" d="M1510-32l34,144l106-14L1510-32z"/>
<path fill="#C1151B" stroke="#C1151B" stroke-width="1.51" d="M1510,974l85,117l82-47L1510,974z"/>
<path fill="#E8664D" stroke="#E8664D" stroke-width="1.51" d="M1472,188l56,269l52-267L1472,188z"/>
<path fill="#E6745B" stroke="#E6745B" stroke-width="1.51" d="M1544,112l36,78l70-92L1544,112z"/>
<path fill="#EB8874" stroke="#EB8874" stroke-width="1.51" d="M1622-177L1510-32l149-63L1622-177z"/>
<path fill="#AA1018" stroke="#AA1018" stroke-width="1.51" d="M1556,1139l-99,159l168,14L1556,1139z"/>
<path fill="#EC644A" stroke="#EC644A" stroke-width="1.51" d="M1472,188l-111,142l167,127L1472,188z"/>
<path fill="#F08C78" stroke="#F08C78" stroke-width="1.51" d="M1500-242l10,210l112-145L1500-242z"/>
<path fill="#C1161A" stroke="#C1161A" stroke-width="1.51" d="M1510,974l46,165l39-48L1510,974z"/>
<path fill="#E3382A" stroke="#E3382A" stroke-width="1.51" d="M1523,622l-152-7l189,211L1523,622z"/>
<path fill="#E97259" stroke="#E97259" stroke-width="1.51" d="M1544,112l-72,76l108,2L1544,112z"/>
<path fill="#F08269" stroke="#F08269" stroke-width="1.51" d="M1510-32L1375,6l169,106L1510-32z"/>
<path fill="#BA1B1B" stroke="#BA1B1B" stroke-width="1.51" d="M1307,1135l150,163l99-159L1307,1135z"/>
<path fill="#C81C1D" stroke="#C81C1D" stroke-width="1.51" d="M1510,974l-147,15l193,150L1510,974z"/>
<path fill="#C71F1E" stroke="#C71F1E" stroke-width="1.51" d="M1363,989l-56,146l249,4L1363,989z"/>
<path fill="#D72622" stroke="#D72622" stroke-width="1.51" d="M1364,891l185-28l11-37L1364,891z"/>
<path fill="#E23026" stroke="#E23026" stroke-width="1.51" d="M1371,615l-7,276l196-65L1371,615z"/>
<path fill="#E74632" stroke="#E74632" stroke-width="1.51" d="M1371,615l152,7l28-115L1371,615z"/>
<path fill="#F48D77" stroke="#F48D77" stroke-width="1.51" d="M1500-242L1375,6l135-38L1500-242z"/>
<path fill="#D32320" stroke="#D32320" stroke-width="1.51" d="M1364,891l146,83l39-111L1364,891z"/>
<path fill="#E84C37" stroke="#E84C37" stroke-width="1.51" d="M1528,457l-157,158l180-108L1528,457z"/>
<path fill="#F9947D" stroke="#F9947D" stroke-width="1.51" d="M1319-252l56,258l125-248L1319-252z"/>
<path fill="#EF7C62" stroke="#EF7C62" stroke-width="1.51" d="M1375,6l97,182l72-76L1375,6z"/>
<path fill="#FD957D" stroke="#FD957D" stroke-width="1.51" d="M1319-252l-63,131L1375,6L1319-252z"/>
<path fill="#ED563E" stroke="#ED563E" stroke-width="1.51" d="M1361,330l10,285l157-158L1361,330z"/>
<path fill="#D42220" stroke="#D42220" stroke-width="1.51" d="M1364,891l-1,98l147-15L1364,891z"/>
<path fill="#F3583F" stroke="#F3583F" stroke-width="1.51" d="M1361,330l-140,178l150,107L1361,330z"/>
<path fill="#F37F64" stroke="#F37F64" stroke-width="1.51" d="M1375,6l-79,117l176,65L1375,6z"/>
<path fill="#E93629" stroke="#E93629" stroke-width="1.51" d="M1234,807l130,84l7-276L1234,807z"/>
<path fill="#B31B1C" stroke="#B31B1C" stroke-width="1.51" d="M1307,1135l92,194l58-31L1307,1135z"/>
<path fill="#F16E52" stroke="#F16E52" stroke-width="1.51" d="M1286,294l75,36l111-142L1286,294z"/>
<path fill="#F4765A" stroke="#F4765A" stroke-width="1.51" d="M1296,123l-10,171l186-106L1296,123z"/>
<path fill="#FFA28A" stroke="#FFA28A" stroke-width="1.51" d="M980-195l217,6l122-63L980-195z"/>
<path fill="#D12621" stroke="#D12621" stroke-width="1.51" d="M1253,1014l54,121l56-146L1253,1014z"/>
<path fill="#F34F38" stroke="#F34F38" stroke-width="1.51" d="M1221,508l49,92l101,15L1221,508z"/>
<path fill="#EF4330" stroke="#EF4330" stroke-width="1.51" d="M1270,600l-36,207l137-192L1270,600z"/>
<path fill="#B8211E" stroke="#B8211E" stroke-width="1.51" d="M1307,1135l-144,164l236,30L1307,1135z"/>
<path fill="#C22922" stroke="#C22922" stroke-width="1.51" d="M1155,1208l8,91l144-164L1155,1208z"/>
<path fill="#F56549" stroke="#F56549" stroke-width="1.51" d="M1286,294l-65,214l140-178L1286,294z"/>
<path fill="#D82723" stroke="#D82723" stroke-width="1.51" d="M1253,1014l110-25l1-98L1253,1014z"/>
<path fill="#FA876B" stroke="#FA876B" stroke-width="1.51" d="M1171,61l125,62l79-117L1171,61z"/>
<path fill="#FE8F75" stroke="#FE8F75" stroke-width="1.51" d="M1256-121l-85,182l204-55L1256-121z"/>
<path fill="#DF2E25" stroke="#DF2E25" stroke-width="1.51" d="M1234,807l19,207l111-123L1234,807z"/>
<path fill="#F8684C" stroke="#F8684C" stroke-width="1.51" d="M1148,359l73,149l65-214L1148,359z"/>
<path fill="#F24732" stroke="#F24732" stroke-width="1.51" d="M1153,657l81,150l36-207L1153,657z"/>
<path fill="#FA7B5E" stroke="#FA7B5E" stroke-width="1.51" d="M1147,190l139,104l10-171L1147,190z"/>
<path fill="#FF9B83" stroke="#FF9B83" stroke-width="1.51" d="M1197-189l59,68l63-131L1197-189z"/>
<path fill="#CE2A22" stroke="#CE2A22" stroke-width="1.51" d="M1253,1014l-98,194l152-73L1253,1014z"/>
<path fill="#FB8668" stroke="#FB8668" stroke-width="1.51" d="M1171,61l-24,129l149-67L1171,61z"/>
<path fill="#FFB39B" stroke="#FFB39B" stroke-width="1.51" d="M724-238l203,49l53-6L724-238z"/>
<path fill="#DF3328" stroke="#DF3328" stroke-width="1.51" d="M1234,807l-150,213l169-6L1234,807z"/>
<path fill="#FF977C" stroke="#FF977C" stroke-width="1.51" d="M1078-55l93,116l85-182L1078-55z"/>
<path fill="#F97658" stroke="#F97658" stroke-width="1.51" d="M1147,190l1,169l138-65L1147,190z"/>
<path fill="#B63427" stroke="#B63427" stroke-width="1.51" d="M1061,1275l-146,67l248-43L1061,1275z"/>
<path fill="#D33227" stroke="#D33227" stroke-width="1.51" d="M1084,1020l71,188l98-194L1084,1020z"/>
<path fill="#F55239" stroke="#F55239" stroke-width="1.51" d="M1221,508l-68,149l117-57L1221,508z"/>
<path fill="#F14531" stroke="#F14531" stroke-width="1.51" d="M1153,657l-74,108l155,42L1153,657z"/>
<path fill="#E73F2E" stroke="#E73F2E" stroke-width="1.51" d="M1079,765l5,255l150-213L1079,765z"/>
<path fill="#FF9C83" stroke="#FF9C83" stroke-width="1.51" d="M1197-189L1078-55l178-66L1197-189z"/>
<path fill="#F75A3E" stroke="#F75A3E" stroke-width="1.51" d="M1051,559l102,98l68-149L1051,559z"/>
<path fill="#F96D4E" stroke="#F96D4E" stroke-width="1.51" d="M1042,378l9,181l97-200L1042,378z"/>
<path fill="#F86447" stroke="#F86447" stroke-width="1.51" d="M1148,359l-97,200l170-51L1148,359z"/>
<path fill="#FB7C5E" stroke="#FB7C5E" stroke-width="1.51" d="M1147,190l-141,81l142,88L1147,190z"/>
<path fill="#FFA38A" stroke="#FFA38A" stroke-width="1.51" d="M980-195l98,140l119-134L980-195z"/>
<path fill="#D03A2A" stroke="#D03A2A" stroke-width="1.51" d="M1084,1020l-115,165l186,23L1084,1020z"/>
<path fill="#BC2F25" stroke="#BC2F25" stroke-width="1.51" d="M1155,1208l-94,67l102,24L1155,1208z"/>
<path fill="#FD8D70" stroke="#FD8D70" stroke-width="1.51" d="M1042,40l105,150l24-129L1042,40z"/>
<path fill="#FF967A" stroke="#FF967A" stroke-width="1.51" d="M1078-55l-36,95l129,21L1078-55z"/>
<path fill="#FA7858" stroke="#FA7858" stroke-width="1.51" d="M1006,271l36,107l106-19L1006,271z"/>
<path fill="#F55138" stroke="#F55138" stroke-width="1.51" d="M996,675l83,90l74-108L996,675z"/>
<path fill="#C33729" stroke="#C33729" stroke-width="1.51" d="M969,1185l92,90l94-67L969,1185z"/>
<path fill="#F7593E" stroke="#F7593E" stroke-width="1.51" d="M1051,559l-55,116l157-18L1051,559z"/>
<path fill="#FD896B" stroke="#FD896B" stroke-width="1.51" d="M1042,40l-36,231l141-81L1042,40z"/>
<path fill="#FE8D6D" stroke="#FE8D6D" stroke-width="1.51" d="M927,50l14,213l65,8L927,50z"/>
<path fill="#FE9374" stroke="#FE9374" stroke-width="1.51" d="M927,50l79,221l36-231L927,50z"/>
<path fill="#F85F42" stroke="#F85F42" stroke-width="1.51" d="M956,622l40,53l55-116L956,622z"/>
<path fill="#F4543A" stroke="#F4543A" stroke-width="1.51" d="M996,675L811,839l268-74L996,675z"/>
<path fill="#EB503A" stroke="#EB503A" stroke-width="1.51" d="M811,839l43,140l225-214L811,839z"/>
<path fill="#E54532" stroke="#E54532" stroke-width="1.51" d="M1079,765L854,979l230,41L1079,765z"/>
<path fill="#D94430" stroke="#D94430" stroke-width="1.51" d="M854,979l115,206l115-165L854,979z"/>
<path fill="#FF9D80" stroke="#FF9D80" stroke-width="1.51" d="M941,9l101,31l36-95L941,9z"/>
<path fill="#FFA58A" stroke="#FFA58A" stroke-width="1.51" d="M980-195L941,9l137-64L980-195z"/>
<path fill="#FFAA90" stroke="#FFAA90" stroke-width="1.51" d="M927-189L941,9l39-204L927-189z"/>
<path fill="#FC7756" stroke="#FC7756" stroke-width="1.51" d="M958,322L823,590l219-212L958,322z"/>
<path fill="#FB6D4C" stroke="#FB6D4C" stroke-width="1.51" d="M823,590l133,32l86-244L823,590z"/>
<path fill="#FB7D5D" stroke="#FB7D5D" stroke-width="1.51" d="M1006,271l-48,51l84,56L1006,271z"/>
<path fill="#FA6849" stroke="#FA6849" stroke-width="1.51" d="M1042,378l-86,244l95-63L1042,378z"/>
<path fill="#BE3B2B" stroke="#BE3B2B" stroke-width="1.51" d="M969,1185l-54,157l146-67L969,1185z"/>
<path fill="#FF9D7F" stroke="#FF9D7F" stroke-width="1.51" d="M941,9l-14,41l115-10L941,9z"/>
<path fill="#FFAC91" stroke="#FFAC91" stroke-width="1.51" d="M927-189L809-84L941,9L927-189z"/>
<path fill="#FC7E5D" stroke="#FC7E5D" stroke-width="1.51" d="M792,324l31,266l135-268L792,324z"/>
<path fill="#D54935" stroke="#D54935" stroke-width="1.51" d="M854,979l-37,186l152,20L854,979z"/>
<path fill="#FD8363" stroke="#FD8363" stroke-width="1.51" d="M941,263l17,59l48-51L941,263z"/>
<path fill="#F56145" stroke="#F56145" stroke-width="1.51" d="M785,629v192l26,18L785,629z"/>
<path fill="#FE9677" stroke="#FE9677" stroke-width="1.51" d="M927,50L771,156l170,107L927,50z"/>
<path fill="#F76245" stroke="#F76245" stroke-width="1.51" d="M785,629l26,210l145-217L785,629z"/>
<path fill="#F65B40" stroke="#F65B40" stroke-width="1.51" d="M956,622L811,839l185-164L956,622z"/>
<path fill="#C54331" stroke="#C54331" stroke-width="1.51" d="M817,1165l98,177l54-157L817,1165z"/>
<path fill="#FA6B4B" stroke="#FA6B4B" stroke-width="1.51" d="M823,590l-38,39l171-7L823,590z"/>
<path fill="#FD8665" stroke="#FD8665" stroke-width="1.51" d="M941,263l-149,61l166-2L941,263z"/>
<path fill="#BA4D3A" stroke="#BA4D3A" stroke-width="1.51" d="M756,1225l-276,122l435-5L756,1225z"/>
<path fill="#C34835" stroke="#C34835" stroke-width="1.51" d="M817,1165l-61,60l159,117L817,1165z"/>
<path fill="#FD8E6D" stroke="#FD8E6D" stroke-width="1.51" d="M744,236l48,88l149-61L744,236z"/>
<path fill="#FD9474" stroke="#FD9474" stroke-width="1.51" d="M771,156l-27,80l197,27L771,156z"/>
<path fill="#FFA589" stroke="#FFA589" stroke-width="1.51" d="M809-84L927,50l14-41L809-84z"/>
<path fill="#FFA487" stroke="#FFA487" stroke-width="1.51" d="M809-84l-38,240L927,50L809-84z"/>
<path fill="#FFB49C" stroke="#FFB49C" stroke-width="1.51" d="M724-238l85,154l118-105L724-238z"/>
<path fill="#E7553D" stroke="#E7553D" stroke-width="1.51" d="M811,839l-32,102l75,38L811,839z"/>
<path fill="#FFE7DC" stroke="#FFE7DC" stroke-width="1.51" d="M-223-180l215,11l367-96L-223-180z"/>
<path fill="#FC805F" stroke="#FC805F" stroke-width="1.51" d="M608,527l161,82l23-285L608,527z"/>
<path fill="#FFAE92" stroke="#FFAE92" stroke-width="1.51" d="M624-60l147,216l38-240L624-60z"/>
<path fill="#DC553F" stroke="#DC553F" stroke-width="1.51" d="M779,941l-147,91l185,133L779,941z"/>
<path fill="#D4553E" stroke="#D4553E" stroke-width="1.51" d="M632,1032l94,154l91-21L632,1032z"/>
<path fill="#FC7958" stroke="#FC7958" stroke-width="1.51" d="M792,324l-23,285l54-19L792,324z"/>
<path fill="#DD513A" stroke="#DD513A" stroke-width="1.51" d="M779,941l38,224l37-186L779,941z"/>
<path fill="#FEAC90" stroke="#FEAC90" stroke-width="1.51" d="M624-60l-31,178l178,38L624-60z"/>
<path fill="#F7674A" stroke="#F7674A" stroke-width="1.51" d="M651,751l134,70V629L651,751z"/>
<path fill="#EC5A41" stroke="#EC5A41" stroke-width="1.51" d="M785,821l-6,120l32-102L785,821z"/>
<path fill="#FA6F50" stroke="#FA6F50" stroke-width="1.51" d="M769,609l16,20l38-39L769,609z"/>
<path fill="#C05744" stroke="#C05744" stroke-width="1.51" d="M520,1246l-40,101l276-122L520,1246z"/>
<path fill="#FC8B6A" stroke="#FC8B6A" stroke-width="1.51" d="M543,415l65,112l184-203L543,415z"/>
<path fill="#FFB9A0" stroke="#FFB9A0" stroke-width="1.51" d="M724-238L624-60l185-24L724-238z"/>
<path fill="#CC4F3A" stroke="#CC4F3A" stroke-width="1.51" d="M726,1186l30,39l61-60L726,1186z"/>
<path fill="#ED5F45" stroke="#ED5F45" stroke-width="1.51" d="M632,804l147,137l6-120L632,804z"/>
<path fill="#F96E50" stroke="#F96E50" stroke-width="1.51" d="M769,609L651,751l134-122L769,609z"/>
<path fill="#FC9171" stroke="#FC9171" stroke-width="1.51" d="M744,236L543,415l249-91L744,236z"/>
<path fill="#F3664B" stroke="#F3664B" stroke-width="1.51" d="M651,751l-19,53l153,17L651,751z"/>
<path fill="#E85F46" stroke="#E85F46" stroke-width="1.51" d="M632,804v228l147-91L632,804z"/>
<path fill="#FA7556" stroke="#FA7556" stroke-width="1.51" d="M608,527l43,224l118-142L608,527z"/>
<path fill="#FDA081" stroke="#FDA081" stroke-width="1.51" d="M593,118l151,118l27-80L593,118z"/>
<path fill="#C75440" stroke="#C75440" stroke-width="1.51" d="M726,1186l-206,60l236-21L726,1186z"/>
<path fill="#FC9A7B" stroke="#FC9A7B" stroke-width="1.51" d="M526,230l17,185l201-179L526,230z"/>
<path fill="#FFC0A9" stroke="#FFC0A9" stroke-width="1.51" d="M518-164L624-60l100-178L518-164z"/>
<path fill="#FDA384" stroke="#FDA384" stroke-width="1.51" d="M593,118l-67,112l218,6L593,118z"/>
<path fill="#FB7B5C" stroke="#FB7B5C" stroke-width="1.51" d="M608,527L503,634l148,117L608,527z"/>
<path fill="#FFC8B3" stroke="#FFC8B3" stroke-width="1.51" d="M445-273l73,109l206-74L445-273z"/>
<path fill="#D55C45" stroke="#D55C45" stroke-width="1.51" d="M632,1032l-101,109l195,45L632,1032z"/>
<path fill="#CD5B45" stroke="#CD5B45" stroke-width="1.51" d="M531,1141l-11,105l206-60L531,1141z"/>
<path fill="#FFB99F" stroke="#FFB99F" stroke-width="1.51" d="M502-72l91,190l31-178L502-72z"/>
<path fill="#EA6F55" stroke="#EA6F55" stroke-width="1.51" d="M413,797l-61,169l280,66L413,797z"/>
<path fill="#ED6B51" stroke="#ED6B51" stroke-width="1.51" d="M413,797l219,235V804L413,797z"/>
<path fill="#F97254" stroke="#F97254" stroke-width="1.51" d="M503,634l129,170l19-53L503,634z"/>
<path fill="#FFC2AB" stroke="#FFC2AB" stroke-width="1.51" d="M518-164l-16,92l122,12L518-164z"/>
<path fill="#DC674F" stroke="#DC674F" stroke-width="1.51" d="M380,1057l94,66l158-91L380,1057z"/>
<path fill="#E26C54" stroke="#E26C54" stroke-width="1.51" d="M352,966l28,91l252-25L352,966z"/>
<path fill="#D9634B" stroke="#D9634B" stroke-width="1.51" d="M474,1123l57,18l101-109L474,1123z"/>
<path fill="#F97659" stroke="#F97659" stroke-width="1.51" d="M503,634l-90,163l219,7L503,634z"/>
<path fill="#FFE0D3" stroke="#FFE0D3" stroke-width="1.51" d="M-8-169l122-3l245-93L-8-169z"/>
<path fill="#FEB89E" stroke="#FEB89E" stroke-width="1.51" d="M502-72l-76,189l167,1L502-72z"/>
<path fill="#FD8A6A" stroke="#FD8A6A" stroke-width="1.51" d="M543,415L430,613l178-86L543,415z"/>
<path fill="#FC8565" stroke="#FC8565" stroke-width="1.51" d="M430,613l73,21l105-107L430,613z"/>
<path fill="#FDA182" stroke="#FDA182" stroke-width="1.51" d="M526,230l-57-4l74,189L526,230z"/>
<path fill="#FDAE91" stroke="#FDAE91" stroke-width="1.51" d="M426,117l100,113l67-112L426,117z"/>
<path fill="#FDAE90" stroke="#FDAE90" stroke-width="1.51" d="M426,117l43,109l57,4L426,117z"/>
<path fill="#D1634D" stroke="#D1634D" stroke-width="1.51" d="M474,1123l46,123l11-105L474,1123z"/>
<path fill="#FE9374" stroke="#FE9374" stroke-width="1.51" d="M396,405l34,208l113-198L396,405z"/>
<path fill="#FD9E7F" stroke="#FD9E7F" stroke-width="1.51" d="M469,226l-73,179l147,10L469,226z"/>
<path fill="#FB8163" stroke="#FB8163" stroke-width="1.51" d="M430,613l-17,184l90-163L430,613z"/>
<path fill="#FFCCB7" stroke="#FFCCB7" stroke-width="1.51" d="M359-265L502-72l16-92L359-265z"/>
<path fill="#BB624F" stroke="#BB624F" stroke-width="1.51" d="M245,1340l235,7l40-101L245,1340z"/>
<path fill="#C76651" stroke="#C76651" stroke-width="1.51" d="M474,1123l-229,217l275-94L474,1123z"/>
<path fill="#FFD0BE" stroke="#FFD0BE" stroke-width="1.51" d="M445-273l-86,8l159,101L445-273z"/>
<path fill="#CF6F5A" stroke="#CF6F5A" stroke-width="1.51" d="M230,1124l15,216l229-217L230,1124z"/>
<path fill="#FDC5AD" stroke="#FDC5AD" stroke-width="1.51" d="M258-61l168,178l76-189L258-61z"/>
<path fill="#FECFBC" stroke="#FECFBC" stroke-width="1.51" d="M359-265L258-61l244-11L359-265z"/>
<path fill="#FDA98C" stroke="#FDA98C" stroke-width="1.51" d="M307,242l89,163l73-179L307,242z"/>
<path fill="#DA7059" stroke="#DA7059" stroke-width="1.51" d="M380,1057l-150,67l244-1L380,1057z"/>
<path fill="#FDC5AE" stroke="#FDC5AE" stroke-width="1.51" d="M258-61L247,85l179,32L258-61z"/>
<path fill="#FE9474" stroke="#FE9474" stroke-width="1.51" d="M396,405L272,604l158,9L396,405z"/>
<path fill="#FDB296" stroke="#FDB296" stroke-width="1.51" d="M426,117L307,242l162-16L426,117z"/>
<path fill="#FB8769" stroke="#FB8769" stroke-width="1.51" d="M264,647l149,150l17-184L264,647z"/>
<path fill="#FF9D7F" stroke="#FF9D7F" stroke-width="1.51" d="M223,461l49,143l124-199L223,461z"/>
<path fill="#F07B61" stroke="#F07B61" stroke-width="1.51" d="M283,814l69,152l61-169L283,814z"/>
<path fill="#FB8468" stroke="#FB8468" stroke-width="1.51" d="M264,647l19,167l130-17L264,647z"/>
<path fill="#FE9071" stroke="#FE9071" stroke-width="1.51" d="M272,604l-8,43l166-34L272,604z"/>
<path fill="#FCBBA1" stroke="#FCBBA1" stroke-width="1.51" d="M247,85l60,157l119-125L247,85z"/>
<path fill="#FEA68A" stroke="#FEA68A" stroke-width="1.51" d="M307,242l-84,219l173-56L307,242z"/>
<path fill="#C7715F" stroke="#C7715F" stroke-width="1.51" d="M230,1124l-42,177l57,39L230,1124z"/>
<path fill="#E0745D" stroke="#E0745D" stroke-width="1.51" d="M352,966l-122,158l150-67L352,966z"/>
<path fill="#FFD9C9" stroke="#FFD9C9" stroke-width="1.51" d="M114-172L258-61l101-204L114-172z"/>
<path fill="#E27B64" stroke="#E27B64" stroke-width="1.51" d="M82,1037l148,87l122-158L82,1037z"/>
<path fill="#EB806A" stroke="#EB806A" stroke-width="1.51" d="M106,867l-24,170l270-71L106,867z"/>
<path fill="#F08168" stroke="#F08168" stroke-width="1.51" d="M283,814l-177,53l246,99L283,814z"/>
<path fill="#BD7264" stroke="#BD7264" stroke-width="1.51" d="M188,1301l-258,24l315,15L188,1301z"/>
<path fill="#FE8E72" stroke="#FE8E72" stroke-width="1.51" d="M264,647l-109-6l128,173L264,647z"/>
<path fill="#FEBEA5" stroke="#FEBEA5" stroke-width="1.51" d="M247,85L67,277l240-35L247,85z"/>
<path fill="#FFB197" stroke="#FFB197" stroke-width="1.51" d="M67,277l156,184l84-219L67,277z"/>
<path fill="#FFB298" stroke="#FFB298" stroke-width="1.51" d="M67,277l-5,123l161,61L67,277z"/>
<path fill="#FEC7B0" stroke="#FEC7B0" stroke-width="1.51" d="M76,101l-9,176L247,85L76,101z"/>
<path fill="#FED0BC" stroke="#FED0BC" stroke-width="1.51" d="M137-28L247,85l11-146L137-28z"/>
<path fill="#FF9B7E" stroke="#FF9B7E" stroke-width="1.51" d="M223,461l-68,180l117-37L223,461z"/>
<path fill="#FB8C71" stroke="#FB8C71" stroke-width="1.51" d="M155,641l-49,226l177-53L155,641z"/>
<path fill="#D07764" stroke="#D07764" stroke-width="1.51" d="M96,1199l92,102l42-177L96,1199z"/>
<path fill="#FF9478" stroke="#FF9478" stroke-width="1.51" d="M155,641l109,6l8-43L155,641z"/>
<path fill="#FFC9B4" stroke="#FFC9B4" stroke-width="1.51" d="M44,142l23,135l9-176L44,142z"/>
<path fill="#FED9C9" stroke="#FED9C9" stroke-width="1.51" d="M114-172l23,144l121-33L114-172z"/>
<path fill="#FFA285" stroke="#FFA285" stroke-width="1.51" d="M61,524l94,117l68-180L61,524z"/>
<path fill="#FECEBB" stroke="#FECEBB" stroke-width="1.51" d="M137-28L76,101l171-16L137-28z"/>
<path fill="#DC7E68" stroke="#DC7E68" stroke-width="1.51" d="M82,1037l14,162l134-75L82,1037z"/>
<path fill="#FFAB90" stroke="#FFAB90" stroke-width="1.51" d="M62,400l-1,124l162-63L62,400z"/>
<path fill="#FFB9A1" stroke="#FFB9A1" stroke-width="1.51" d="M36,338l26,62l5-123L36,338z"/>
<path fill="#FC9178" stroke="#FC9178" stroke-width="1.51" d="M10,833l96,34l49-226L10,833z"/>
<path fill="#FF997F" stroke="#FF997F" stroke-width="1.51" d="M48,619L10,833l145-192L48,619z"/>
<path fill="#C57969" stroke="#C57969" stroke-width="1.51" d="M96,1199l-166,126l258-24L96,1199z"/>
<path fill="#EC8872" stroke="#EC8872" stroke-width="1.51" d="M-4,1006l86,31l24-170L-4,1006z"/>
<path fill="#FEDFD2" stroke="#FEDFD2" stroke-width="1.51" d="M114-172l-99,39L137-28L114-172z"/>
<path fill="#FFA185" stroke="#FFA185" stroke-width="1.51" d="M61,524l-13,95l107,22L61,524z"/>
<path fill="#FFC7B2" stroke="#FFC7B2" stroke-width="1.51" d="M44,142L8,172l59,105L44,142z"/>
<path fill="#FED9C9" stroke="#FED9C9" stroke-width="1.51" d="M15-133l61,234l61-129L15-133z"/>
<path fill="#FED9C8" stroke="#FED9C8" stroke-width="1.51" d="M15-133l-125,251l186-17L15-133z"/>
<path fill="#DD836F" stroke="#DD836F" stroke-width="1.51" d="M82,1037l-136,98l150,64L82,1037z"/>
<path fill="#F38C76" stroke="#F38C76" stroke-width="1.51" d="M10,833l-14,173l110-139L10,833z"/>
<path fill="#FFE4D8" stroke="#FFE4D8" stroke-width="1.51" d="M-8-169l23,36l99-39L-8-169z"/>
<path fill="#E48672" stroke="#E48672" stroke-width="1.51" d="M-4,1006l-50,129l136-98L-4,1006z"/>
<path fill="#D07F6F" stroke="#D07F6F" stroke-width="1.51" d="M-54,1135l-16,190l166-126L-54,1135z"/>
<path fill="#FF9D84" stroke="#FF9D84" stroke-width="1.51" d="M-99,603L10,833l38-214L-99,603z"/>
<path fill="#FFAD93" stroke="#FFAD93" stroke-width="1.51" d="M-42,522l103,2l1-124L-42,522z"/>
<path fill="#FED0BD" stroke="#FED0BD" stroke-width="1.51" d="M-110,118l154,24l32-41L-110,118z"/>
<path fill="#FFE2D5" stroke="#FFE2D5" stroke-width="1.51" d="M-159-125l49,243L15-133L-159-125z"/>
<path fill="#FFA78D" stroke="#FFA78D" stroke-width="1.51" d="M-42,522l90,97l13-95L-42,522z"/>
<path fill="#FFC1AA" stroke="#FFC1AA" stroke-width="1.51" d="M8,172l28,166l31-61L8,172z"/>
<path fill="#FF9D85" stroke="#FF9D85" stroke-width="1.51" d="M-99,603l-93,115L10,833L-99,603z"/>
<path fill="#F18D78" stroke="#F18D78" stroke-width="1.51" d="M-106,959l102,47l14-173L-106,959z"/>
<path fill="#FFB39A" stroke="#FFB39A" stroke-width="1.51" d="M36,338l-78,184L62,400L36,338z"/>
<path fill="#FFC8B4" stroke="#FFC8B4" stroke-width="1.51" d="M-178,206l21,143L8,172L-178,206z"/>
<path fill="#FFC2AC" stroke="#FFC2AC" stroke-width="1.51" d="M8,172l-165,177l193-11L8,172z"/>
<path fill="#FFB79F" stroke="#FFB79F" stroke-width="1.51" d="M-157,349l115,173l78-184L-157,349z"/>
<path fill="#FECFBB" stroke="#FECFBB" stroke-width="1.51" d="M-110,118L8,172l36-30L-110,118z"/>
<path fill="#FFA78D" stroke="#FFA78D" stroke-width="1.51" d="M-42,522l-57,81l147,16L-42,522z"/>
<path fill="#FFEAE1" stroke="#FFEAE1" stroke-width="1.51" d="M-223-180l64,55l151-44L-223-180z"/>
<path fill="#FFCFBC" stroke="#FFCFBC" stroke-width="1.51" d="M-110,118l-68,88L8,172L-110,118z"/>
<path fill="#FFE7DC" stroke="#FFE7DC" stroke-width="1.51" d="M-8-169l-151,44l174-8L-8-169z"/>
<path fill="#CC8072" stroke="#CC8072" stroke-width="1.51" d="M-167,1289l97,36l16-190L-167,1289z"/>
<path fill="#E28775" stroke="#E28775" stroke-width="1.51" d="M-99,1128l45,7l50-129L-99,1128z"/>
<path fill="#F5927D" stroke="#F5927D" stroke-width="1.51" d="M-221,872l115,87L10,833L-221,872z"/>
<path fill="#FD9882" stroke="#FD9882" stroke-width="1.51" d="M-192,718l-29,154l231-39L-192,718z"/>
<path fill="#D78574" stroke="#D78574" stroke-width="1.51" d="M-99,1128l-68,161l113-154L-99,1128z"/>
<path fill="#E88A77" stroke="#E88A77" stroke-width="1.51" d="M-106,959l7,169l95-122L-106,959z"/>
<path fill="#FFB198" stroke="#FFB198" stroke-width="1.51" d="M-157,349l58,254l57-81L-157,349z"/>
<path fill="#FFDACB" stroke="#FFDACB" stroke-width="1.51" d="M-159-125l-19,331l68-88L-159-125z"/>
<path fill="#ED8E7B" stroke="#ED8E7B" stroke-width="1.51" d="M-106,959l-115-87l122,256L-106,959z"/>
<path fill="#E28B79" stroke="#E28B79" stroke-width="1.51" d="M-221,872l54,417l68-161L-221,872z"/>
<path fill="#FFAD95" stroke="#FFAD95" stroke-width="1.51" d="M-157,349l-35,369l93-115L-157,349z"/>
<path fill="#FFE4D9" stroke="#FFE4D9" stroke-width="1.51" d="M-223-180l45,386l19-331L-223-180z"/>
<path fill="#FFB9A3" stroke="#FFB9A3" stroke-width="1.51" d="M-178,206l-14,512l35-369L-178,206z"/>
<path fill="#FFAB94" stroke="#FFAB94" stroke-width="1.51" d="M-221,872l29-154l14-512L-221,872z"/>
<path fill="#FFC6B2" stroke="#FFC6B2" stroke-width="1.51" d="M-223-180l2,1052l43-666L-223-180z"/>
</svg>
