<?xml version="1.0" encoding="utf-8"?>
<!-- Generator: Adobe Illustrator 15.1.0, SVG Export Plug-In . SVG Version: 6.00 Build 0)  -->
<!DOCTYPE svg PUBLIC "-//W3C//DTD SVG 1.1//EN" "http://www.w3.org/Graphics/SVG/1.1/DTD/svg11.dtd">
<svg version="1.1" id="Layer_3" xmlns="http://www.w3.org/2000/svg" xmlns:xlink="http://www.w3.org/1999/xlink" x="0px" y="0px"
	 width="100px" height="100px" viewBox="0 0 100 100" enable-background="new 0 0 100 100" xml:space="preserve">
<g>
	<path fill="#546E7A" d="M70.229,51.826L40.142,81.902c-0.508,0.514-1.122,0.771-1.823,0.771c-0.709,0-1.316-0.258-1.817-0.771
		l-6.729-6.729C29.258,74.66,29,74.051,29,73.35s0.258-1.309,0.771-1.824l21.523-21.521L29.771,28.479
		C29.258,27.966,29,27.358,29,26.656c0-0.708,0.258-1.315,0.771-1.829l6.729-6.729c0.501-0.514,1.108-0.771,1.817-0.771
		c0.701,0,1.315,0.258,1.822,0.771L70.229,48.18C70.73,48.693,71,49.302,71,50.003C71,50.705,70.73,51.312,70.229,51.826z"/>
</g>
</svg>
