<?xml version="1.0" encoding="utf-8"?>
<!-- Generator: Adobe Illustrator 15.1.0, SVG Export Plug-In . SVG Version: 6.00 Build 0)  -->
<!DOCTYPE svg PUBLIC "-//W3C//DTD SVG 1.1//EN" "http://www.w3.org/Graphics/SVG/1.1/DTD/svg11.dtd">
<svg version="1.1" id="Layer_1" xmlns="http://www.w3.org/2000/svg" xmlns:xlink="http://www.w3.org/1999/xlink" x="0px" y="0px"
	 width="100px" height="100px" viewBox="0 0 100 100" enable-background="new 0 0 100 100" xml:space="preserve">
<g>
	<path fill="#546E7A" d="M45.329,30.758c-1.652,0-2.992,1.341-2.992,2.992c0,1.654,1.34,2.992,2.992,2.992
		c3.656,0,6.921,2.042,8.524,5.333c0.519,1.062,1.582,1.68,2.689,1.68c0.441,0,0.889-0.097,1.311-0.303
		c1.484-0.723,2.104-2.514,1.379-4.001C56.619,34.089,51.29,30.758,45.329,30.758z"/>
	<path fill="#546E7A" d="M77.52,71.854l-9.972-9.972c2.952-4.151,4.705-9.213,4.705-14.685c0-14.025-11.409-25.436-25.435-25.436
		s-25.434,11.41-25.434,25.436c0,14.022,11.409,25.434,25.434,25.434c5.859,0,11.245-2.01,15.549-5.351l9.861,9.862
		c0.729,0.729,1.688,1.096,2.646,1.096c0.958,0,1.915-0.365,2.646-1.096C78.98,75.684,78.98,73.314,77.52,71.854z M27.37,47.198
		c0-10.725,8.726-19.45,19.45-19.45c10.724,0,19.45,8.725,19.45,19.45c0,4.462-1.524,8.564-4.062,11.852
		c-0.839,1.085-1.781,2.087-2.827,2.974c-3.392,2.879-7.772,4.625-12.56,4.625C36.095,66.646,27.37,57.922,27.37,47.198z"/>
</g>
</svg>
