<?xml version="1.0" encoding="utf-8"?>
<!-- Generator: Adobe Illustrator 15.1.0, SVG Export Plug-In . SVG Version: 6.00 Build 0)  -->
<!DOCTYPE svg PUBLIC "-//W3C//DTD SVG 1.1//EN" "http://www.w3.org/Graphics/SVG/1.1/DTD/svg11.dtd">
<svg version="1.1" id="Capa_1" xmlns="http://www.w3.org/2000/svg" xmlns:xlink="http://www.w3.org/1999/xlink" x="0px" y="0px"
	 width="32.218px" height="30.861px" viewBox="0 0 32.218 30.861" enable-background="new 0 0 32.218 30.861" xml:space="preserve">
<g>
	<path fill="#CFD8DC" d="M24.826,30.361c-1.203,0-3.084-1.044-4.902-2.054c-1.863-1.038-3.141-1.72-3.889-1.72
		c-0.781,0.012-2.108,0.703-3.9,1.685c-1.711,0.928-3.652,1.979-4.866,2c-0.001,0-0.002,0-0.003,0c-0.373,0-0.648-0.078-0.865-0.233
		c-1.044-0.771-0.523-3.428-0.019-5.996c0.412-2.109,0.66-3.521,0.433-4.228c-0.229-0.709-1.306-1.771-2.803-3.19
		c-1.9-1.801-3.864-3.663-3.455-4.901c0.407-1.233,3.085-1.56,5.676-1.873c2.066-0.251,3.563-0.463,4.172-0.896
		c0.607-0.441,1.281-1.794,2.168-3.657c1.122-2.351,2.28-4.773,3.572-4.797c1.322,0.008,2.464,2.461,3.564,4.833
		c0.897,1.936,1.531,3.234,2.135,3.675c0.599,0.441,2.023,0.656,4.132,0.934c2.628,0.348,5.297,0.701,5.69,1.938
		c0.395,1.237-1.578,3.072-3.482,4.848l-0.076,0.069c-1.529,1.429-2.55,2.414-2.779,3.111c-0.232,0.723,0.016,2.21,0.393,4.23
		c0.479,2.587,0.966,5.237-0.086,5.995c-0.207,0.148-0.461,0.226-0.774,0.229L24.826,30.361L24.826,30.361z"/>
	<path fill="#CFD8DC" d="M16.086,1.005h0.078c0.985,0.002,2.154,2.52,3.093,4.539c0.959,2.064,1.591,3.354,2.289,3.864
		c0.697,0.516,2.113,0.733,4.41,1.034c2.198,0.291,4.937,0.651,5.233,1.586c0.297,0.937-1.726,2.816-3.37,4.349l-0.056,0.052
		c-1.634,1.524-2.646,2.511-2.917,3.329c-0.268,0.832-0.021,2.312,0.383,4.492c0.402,2.188,0.902,4.905,0.109,5.479
		c-0.121,0.088-0.281,0.132-0.516,0.135c-1.074,0-2.979-1.06-4.662-1.992c-1.988-1.106-3.26-1.779-4.145-1.779
		c-0.892,0.014-2.213,0.697-4.124,1.742c-1.662,0.901-3.546,1.923-4.675,1.941c-0.222,0-0.4-0.048-0.518-0.132
		c-0.796-0.59-0.261-3.312,0.176-5.541c0.432-2.216,0.675-3.617,0.411-4.438c-0.266-0.825-1.286-1.835-2.935-3.398
		c-1.619-1.535-3.633-3.444-3.323-4.385c0.308-0.932,3.054-1.265,5.278-1.536c2.256-0.272,3.677-0.477,4.392-0.985
		c0.701-0.509,1.375-1.854,2.326-3.852C13.959,3.551,15.116,1.128,16.086,1.005 M16.136,0c-1.604,0.027-2.773,2.479-4.016,5.082
		c-0.685,1.439-1.464,3.07-2.007,3.465C9.564,8.938,7.771,9.158,6.188,9.35c-2.876,0.35-5.599,0.678-6.107,2.215
		s1.479,3.426,3.585,5.422c1.156,1.098,2.465,2.342,2.671,2.979c0.206,0.643-0.143,2.416-0.448,3.979
		c-0.558,2.844-1.085,5.537,0.219,6.5c0.3,0.214,0.673,0.327,1.112,0.327c0.018,0,0.036-0.001,0.055-0.001
		c1.331-0.021,3.246-1.06,5.097-2.062c1.387-0.758,2.96-1.61,3.66-1.621c0.676,0,2.254,0.879,3.647,1.654
		c1.873,1.04,3.812,2.117,5.146,2.117c0.012,0,0.024,0,0.039,0c0.415-0.006,0.77-0.113,1.061-0.322
		c1.312-0.945,0.812-3.637,0.285-6.492c-0.291-1.562-0.615-3.344-0.41-3.981c0.212-0.64,1.535-1.865,2.703-2.955
		c2.125-1.979,4.131-3.838,3.641-5.383c-0.494-1.545-3.213-1.898-6.092-2.279c-1.578-0.207-3.371-0.441-3.912-0.842
		c-0.545-0.398-1.305-2.035-1.977-3.482c-1.225-2.631-2.379-5.113-4-5.117L16.136,0L16.136,0z"/>
</g>
</svg>
