<?xml version="1.0" encoding="utf-8"?>
<!-- Generator: Adobe Illustrator 15.1.0, SVG Export Plug-In . SVG Version: 6.00 Build 0)  -->
<!DOCTYPE svg PUBLIC "-//W3C//DTD SVG 1.1//EN" "http://www.w3.org/Graphics/SVG/1.1/DTD/svg11.dtd">
<svg version="1.1" id="Layer_3" xmlns="http://www.w3.org/2000/svg" xmlns:xlink="http://www.w3.org/1999/xlink" x="0px" y="0px"
	 width="600px" height="600px" viewBox="0 0 600 600" enable-background="new 0 0 600 600" xml:space="preserve">
<g>
	<path fill="#9FADB5" d="M310.324,185.462l170.32,170.361c2.89,2.848,4.355,6.366,4.355,10.302c0,4.021-1.465,7.456-4.355,10.304
		l-38.111,38.108c-2.931,2.933-6.365,4.355-10.301,4.355c-4.021,0-7.455-1.423-10.386-4.355L300,292.672L178.132,414.538
		c-2.909,2.932-6.344,4.355-10.322,4.355c-3.999,0-7.435-1.424-10.344-4.355l-38.089-38.11c-2.91-2.848-4.377-6.282-4.377-10.303
		c0-3.936,1.467-7.453,4.377-10.301l170.301-170.362c2.909-2.848,6.365-4.355,10.322-4.355
		C303.978,181.106,307.434,182.614,310.324,185.462z"/>
</g>
</svg>
