<?xml version="1.0" encoding="utf-8"?>
<!-- Generator: Adobe Illustrator 15.1.0, SVG Export Plug-In . SVG Version: 6.00 Build 0)  -->
<!DOCTYPE svg PUBLIC "-//W3C//DTD SVG 1.1//EN" "http://www.w3.org/Graphics/SVG/1.1/DTD/svg11.dtd">
<svg version="1.1" id="Capa_1" xmlns="http://www.w3.org/2000/svg" xmlns:xlink="http://www.w3.org/1999/xlink" x="0px" y="0px"
	 width="85.073px" height="77.604px" viewBox="86.819 -2.52 85.073 77.604" enable-background="new 86.819 -2.52 85.073 77.604"
	 xml:space="preserve">
<g>
	<g>
		<path fill="#546E7A" d="M97.264,42.615v16.027c0,8.91,7.877,16.44,17.199,16.44h6.414c2.445,0,4.428-1.981,4.428-4.428v-28.04
			h10.363l0.214,28.075c0.021,2.432,1.995,4.394,4.429,4.394h5.32c9.137,0,16.569-7.376,16.569-16.44V42.615h5.265
			c1.79,0,3.406-1.078,4.09-2.733c0.687-1.653,0.307-3.558-0.96-4.823L135.618,0.073c-1.673-1.672-3.896-2.593-6.259-2.593
			c-2.367,0-4.59,0.923-6.264,2.595l-14.066,14.067c-0.215-3.053-2.734-5.473-5.842-5.473h-0.037c-3.252,0-5.887,2.636-5.887,5.886
			v10.366c0,0.322,0.045,0.608,0.096,0.893l-9.243,9.243c-1.267,1.267-1.646,3.17-0.96,4.823c0.686,1.655,2.302,2.733,4.092,2.733
			L97.264,42.615L97.264,42.615z"/>
	</g>
</g>
</svg>
