<?xml version="1.0" encoding="utf-8"?>
<!-- Generator: Adobe Illustrator 15.1.0, SVG Export Plug-In . SVG Version: 6.00 Build 0)  -->
<!DOCTYPE svg PUBLIC "-//W3C//DTD SVG 1.1//EN" "http://www.w3.org/Graphics/SVG/1.1/DTD/svg11.dtd">
<svg version="1.1" id="Layer_3" xmlns="http://www.w3.org/2000/svg" xmlns:xlink="http://www.w3.org/1999/xlink" x="0px" y="0px"
	 width="600px" height="600px" viewBox="0 0 600 600" enable-background="new 0 0 600 600" xml:space="preserve">
<g>
	<path fill="#FFFFFF" d="M482.39,279.456c-21.784-21.785-57.229-21.785-79.014,0l-4.141,4.141l79.014,79.015l4.141-4.141
		C504.174,336.686,504.174,301.24,482.39,279.456z"/>
	<path fill="#FFFFFF" d="M401.015,372.4c-3.195,3.193-8.373,3.193-11.568,0c-3.194-3.195-3.194-8.374,0-11.568l30.697-30.697
		l-33.724-33.724l-38.924,38.925c-1.579,1.579-2.59,3.641-2.869,5.857l-9.351,74.129c-0.391,3.085,0.671,6.179,2.869,8.378
		c2.2,2.199,5.292,3.259,8.379,2.869l74.129-9.351c2.217-0.28,4.278-1.289,5.858-2.869l38.925-38.926l-33.723-33.723L401.015,372.4z
		 M356.168,409.276c-0.987,0.123-1.977-0.216-2.681-0.919c-0.704-0.704-1.043-1.693-0.919-2.681l2.992-23.721l24.326,24.327
		L356.168,409.276z"/>
	<path fill="#FFFFFF" d="M415.993,440.221v15.251H225.725V144.528h190.269v108.249c9.137-4.435,19.139-6.992,29.528-7.458V134.686
		c0-10.872-8.812-19.686-19.686-19.686H154.175c-10.872,0-19.686,8.813-19.686,19.686v48.187h-14.516
		c-10.312,0-18.701,8.389-18.701,18.7s8.389,18.7,18.701,18.7h14.516V281.3h-14.516c-10.312,0-18.701,8.389-18.701,18.7
		c0,10.312,8.389,18.7,18.701,18.7h14.516v61.027h-14.516c-10.312,0-18.701,8.389-18.701,18.7s8.389,18.7,18.701,18.7h14.516v48.187
		c0,10.872,8.814,19.686,19.686,19.686h271.661c10.873,0,19.686-8.813,19.686-19.686v-34.313c-4.51,4.106-10.237,6.786-16.304,7.552
		L415.993,440.221z M194.039,455.472h-30.021v-38.344h4.676c10.312,0,18.7-8.389,18.7-18.7s-8.388-18.7-18.7-18.7h-4.676V318.7
		h4.676c10.312,0,18.7-8.388,18.7-18.7c0-10.312-8.388-18.7-18.7-18.7h-4.676v-61.027h4.676c10.312,0,18.7-8.389,18.7-18.7
		s-8.388-18.7-18.7-18.7h-4.676v-38.344h30.021V455.472z"/>
</g>
</svg>
