<?xml version="1.0" encoding="utf-8"?>
<!-- Generator: Adobe Illustrator 15.1.0, SVG Export Plug-In . SVG Version: 6.00 Build 0)  -->
<!DOCTYPE svg PUBLIC "-//W3C//DTD SVG 1.1//EN" "http://www.w3.org/Graphics/SVG/1.1/DTD/svg11.dtd">
<svg version="1.1" id="Layer_3" xmlns="http://www.w3.org/2000/svg" xmlns:xlink="http://www.w3.org/1999/xlink" x="0px" y="0px"
	 width="600px" height="600px" viewBox="0 0 600 600" enable-background="new 0 0 600 600" xml:space="preserve">
<g>
	<path fill="#F1F6F9" d="M299.983,180.455c3.997,0,7.457,1.534,10.382,4.392l171.246,171.279c2.927,2.891,4.389,6.383,4.389,10.373
		c0,4.037-1.462,7.494-4.389,10.346l-38.306,38.309c-2.93,2.926-6.388,4.393-10.418,4.393c-3.994,0-7.455-1.467-10.382-4.393
		L299.983,292.633l-122.52,122.519c-2.936,2.926-6.394,4.393-10.385,4.393c-3.997,0-7.466-1.467-10.385-4.393l-38.303-38.303
		c-2.93-2.852-4.392-6.303-4.392-10.34c0-3.99,1.468-7.488,4.392-10.385l171.213-171.279
		C292.528,181.989,295.986,180.455,299.983,180.455z"/>
</g>
</svg>
