<?xml version="1.0" encoding="utf-8"?>
<!-- Generator: Adobe Illustrator 15.1.0, SVG Export Plug-In . SVG Version: 6.00 Build 0)  -->
<!DOCTYPE svg PUBLIC "-//W3C//DTD SVG 1.1//EN" "http://www.w3.org/Graphics/SVG/1.1/DTD/svg11.dtd">
<svg version="1.1" id="Layer_3" xmlns="http://www.w3.org/2000/svg" xmlns:xlink="http://www.w3.org/1999/xlink" x="0px" y="0px"
	 width="600px" height="600px" viewBox="0 0 600 600" enable-background="new 0 0 600 600" xml:space="preserve">
<g>
	<path fill="#9FADB5" d="M141.967,417.844h314.066c15.444,0,27.967-12.521,27.967-27.967V184.79
		c0-15.445-12.522-27.967-27.967-27.967H141.967c-15.444,0-27.967,12.522-27.967,27.967v205.087
		C114,405.322,126.522,417.844,141.967,417.844z M320.542,398.207h-43.084V371.6h43.084V398.207z M423.185,177.091h43.083v26.612
		h-43.083V177.091z M421.914,371.6h43.084v26.607h-43.084V371.6z M350.96,177.091h43.077v26.612H350.96V177.091z M349.689,371.6
		h43.084v26.607h-43.084V371.6z M278.731,177.091h43.087v26.612h-43.087V177.091z M266.649,241.386l64.701,32.354
		c15.021,7.507,15.021,19.681,0,27.198l-64.701,32.351c-15.018,7.511-27.198-0.027-27.198-16.816v-58.269
		C239.451,241.41,251.632,233.878,266.649,241.386z M206.507,177.091h43.083v26.612h-43.083V177.091z M205.233,371.6h43.083v26.607
		h-43.083V371.6z M134.275,177.091h43.083v26.612h-43.083V177.091z M133.009,371.6h43.083v26.607h-43.083V371.6z"/>
</g>
</svg>
