<?xml version="1.0" encoding="utf-8"?>
<!-- Generator: Adobe Illustrator 15.1.0, SVG Export Plug-In . SVG Version: 6.00 Build 0)  -->
<!DOCTYPE svg PUBLIC "-//W3C//DTD SVG 1.1//EN" "http://www.w3.org/Graphics/SVG/1.1/DTD/svg11.dtd">
<svg version="1.1" id="Layer_3" xmlns="http://www.w3.org/2000/svg" xmlns:xlink="http://www.w3.org/1999/xlink" x="0px" y="0px"
	 width="600px" height="600px" viewBox="0 0 600 600" enable-background="new 0 0 600 600" xml:space="preserve">
<g>
	<g>
		<path fill="#F1F6F9" d="M300.017,350.454c-3.997,0-7.458-1.534-10.382-4.392L118.389,174.783
			c-2.927-2.891-4.389-6.382-4.389-10.373c0-4.036,1.462-7.494,4.389-10.346l38.306-38.309c2.93-2.925,6.387-4.393,10.418-4.393
			c3.994,0,7.455,1.468,10.382,4.393l122.522,122.52l122.52-122.52c2.936-2.925,6.394-4.393,10.385-4.393
			c3.997,0,7.466,1.468,10.385,4.393l38.303,38.303c2.93,2.852,4.392,6.304,4.392,10.34c0,3.991-1.468,7.488-4.392,10.385
			L310.396,346.062C307.472,348.92,304.014,350.454,300.017,350.454z"/>
	</g>
	<g>
		<path fill="#F1F6F9" d="M486,412.545v50.735c0,7.045-2.456,13.02-7.392,17.954c-4.924,4.925-10.94,7.402-17.954,7.402H139.352
			c-7.045,0-13.02-2.468-17.955-7.402C116.473,476.3,114,470.325,114,463.28v-50.735c0-7.045,2.463-13.03,7.397-17.965
			c4.935-4.925,10.909-7.397,17.955-7.397h321.302c7.014,0,13.03,2.463,17.954,7.397C483.544,399.515,486,405.5,486,412.545z"/>
	</g>
</g>
</svg>
