<?xml version="1.0" encoding="utf-8"?>
<!-- Generator: Adobe Illustrator 15.1.0, SVG Export Plug-In . SVG Version: 6.00 Build 0)  -->
<!DOCTYPE svg PUBLIC "-//W3C//DTD SVG 1.1//EN" "http://www.w3.org/Graphics/SVG/1.1/DTD/svg11.dtd">
<svg version="1.1" id="Layer_3" xmlns="http://www.w3.org/2000/svg" xmlns:xlink="http://www.w3.org/1999/xlink" x="0px" y="0px"
	 width="100px" height="100px" viewBox="0 0 100 100" enable-background="new 0 0 100 100" xml:space="preserve">
<g>
	<path fill="#9FADB5" d="M41.446,51.062L30.203,62.306l-3.749-3.749c-0.508-0.508-1.134-0.761-1.874-0.762
		c-0.742-0.002-1.368,0.254-1.875,0.761s-0.761,1.132-0.76,1.874l-0.002,14.991c0.002,0.743,0.254,1.366,0.762,1.874
		c0.507,0.506,1.133,0.762,1.874,0.762l14.991-0.001c0.74,0,1.366-0.253,1.874-0.761s0.76-1.133,0.761-1.874
		c-0.001-0.739-0.253-1.365-0.762-1.874l-3.748-3.748l11.243-11.243"/>
	<path fill="#9FADB5" d="M58.556,48.939L69.8,37.696l3.747,3.747c0.508,0.509,1.135,0.763,1.875,0.763
		c0.741-0.001,1.365-0.255,1.874-0.764c0.507-0.507,0.761-1.131,0.761-1.872V24.579c0-0.74-0.254-1.368-0.762-1.875
		c-0.508-0.508-1.132-0.759-1.875-0.76l-14.99,0.001c-0.742-0.003-1.367,0.252-1.874,0.759c-0.509,0.509-0.762,1.132-0.761,1.875
		c0.001,0.741,0.253,1.366,0.761,1.874l3.749,3.748L51.062,41.446"/>
	<path fill="#9FADB5" d="M51.063,58.554l11.242,11.243l-3.749,3.75c-0.508,0.508-0.76,1.133-0.761,1.873
		c-0.002,0.742,0.254,1.368,0.76,1.875c0.508,0.507,1.132,0.762,1.875,0.76l14.991,0.002c0.742-0.001,1.365-0.254,1.873-0.762
		c0.507-0.507,0.762-1.133,0.762-1.874V60.43c-0.001-0.74-0.253-1.366-0.761-1.874s-1.133-0.76-1.874-0.761
		c-0.74,0-1.365,0.254-1.874,0.762L69.8,62.305L58.557,51.062"/>
	<path fill="#9FADB5" d="M48.94,41.444L37.697,30.201l3.748-3.748c0.508-0.509,0.762-1.136,0.763-1.875
		c-0.001-0.742-0.256-1.366-0.764-1.874c-0.507-0.507-1.131-0.761-1.871-0.761H24.58c-0.74,0-1.368,0.254-1.875,0.762
		c-0.508,0.507-0.759,1.132-0.76,1.875l0.001,14.99c-0.002,0.742,0.253,1.368,0.76,1.875c0.509,0.509,1.132,0.761,1.875,0.76
		c0.74,0,1.366-0.253,1.874-0.761l3.748-3.749l11.243,11.243"/>
</g>
</svg>
