<?xml version="1.0" encoding="utf-8"?>
<!-- Generator: Adobe Illustrator 15.1.0, SVG Export Plug-In . SVG Version: 6.00 Build 0)  -->
<!DOCTYPE svg PUBLIC "-//W3C//DTD SVG 1.1//EN" "http://www.w3.org/Graphics/SVG/1.1/DTD/svg11.dtd">
<svg version="1.1" id="Layer_3" xmlns="http://www.w3.org/2000/svg" xmlns:xlink="http://www.w3.org/1999/xlink" x="0px" y="0px"
	 width="600px" height="600px" viewBox="0 0 600 600" enable-background="new 0 0 600 600" xml:space="preserve">
<path fill="#9FADB5" d="M131.401,329.679h24.18c3.809,18.915,11.02,35.392,20.916,50.241l-17.375,17.676
	c-3.723,3.723-5.831,8.9-5.831,14.164c0,5.265,2.108,10.357,5.831,14.08l14.946,14.979c7.757,7.746,20.222,7.746,28.021,0
	l17.75-17.803c14.754,9.437,32.867,16.348,49.086,20.028v25.55c0,10.955,8.987,17.76,19.89,17.76h21.174
	c10.912,0,18.359-6.805,18.359-17.76v-25.55c18.894-3.681,35.113-10.57,49.877-20.028l18.146,17.824
	c7.746,7.725,20.435,7.725,28.201,0l15.021-14.957c3.724-3.68,5.842-8.73,5.842-14.016c0-5.242-2.054-10.271-5.799-13.973
	l-17.332-17.995c9.844-14.872,17.118-31.327,20.97-50.242h24.137c10.956,0,17.589-7.618,17.589-18.552v-21.099
	c0-10.934-6.633-17.032-17.589-17.032h-24.137c-3.852-21.612-11.084-36.12-20.97-51.013l17.396-18.06
	c3.701-3.723,5.842-9.116,5.842-14.336c0-5.264-2.161-10.464-5.842-14.166l-14.957-15.021c-7.768-7.746-20.285-7.789-28.01-0.021
	l-18.51,17.781c-14.807-9.415-30.983-16.348-49.877-20.049v-25.549c0-10.934-7.447-18.894-18.359-18.894h-21.174
	c-10.902,0-19.89,7.96-19.89,18.894v25.549c-16.219,3.68-34.332,10.592-49.086,20.028l-17.814-17.782
	c-7.734-7.746-20.199-7.746-27.935-0.021l-14.946,14.936c-3.723,3.723-5.82,8.752-5.82,14.016c0,5.221,2.098,10.271,5.842,13.994
	l17.354,18.745c-9.896,14.893-17.107,29.4-20.916,51.012h-24.201c-10.977,0-16.401,6.099-16.401,17.033v21.099
	C115,322.061,120.425,329.679,131.401,329.679z M299.406,237.54c35.146,0,63.605,28.224,63.605,63.017
	c0,34.813-28.459,63.016-63.605,63.016c-35.167,0-63.658-28.244-63.658-63.016C235.727,265.742,264.218,237.54,299.406,237.54z"/>
</svg>
