<?xml version="1.0" encoding="utf-8"?>
<!-- Generator: Adobe Illustrator 15.1.0, SVG Export Plug-In . SVG Version: 6.00 Build 0)  -->
<!DOCTYPE svg PUBLIC "-//W3C//DTD SVG 1.1//EN" "http://www.w3.org/Graphics/SVG/1.1/DTD/svg11.dtd">
<svg version="1.1" id="Layer_3" xmlns="http://www.w3.org/2000/svg" xmlns:xlink="http://www.w3.org/1999/xlink" x="0px" y="0px"
	 width="600px" height="600px" viewBox="0 0 600 600" enable-background="new 0 0 600 600" xml:space="preserve">
<g>
	<g>
		<line fill="#9FADB5" x1="137.343" y1="430.404" x2="430.405" y2="137.342"/>
		<path fill="#9FADB5" d="M137.343,452.747c-5.718,0-11.436-2.182-15.798-6.543c-8.726-8.726-8.726-22.873,0-31.599l293.063-293.062
			c8.726-8.726,22.871-8.726,31.597,0c8.725,8.725,8.725,22.872,0,31.597L153.141,446.204
			C148.779,450.565,143.061,452.747,137.343,452.747z"/>
	</g>
	<g>
		<line fill="#9FADB5" x1="239.638" y1="438.699" x2="438.7" y2="239.638"/>
		<path fill="#9FADB5" d="M239.638,461.042c-5.718,0-11.436-2.182-15.798-6.545c-8.726-8.726-8.726-22.87,0-31.596l199.062-199.062
			c8.726-8.726,22.872-8.726,31.598,0c8.726,8.725,8.726,22.872,0,31.597L255.437,454.497
			C251.074,458.86,245.356,461.042,239.638,461.042z"/>
	</g>
	<g>
		<line fill="#9FADB5" x1="352.158" y1="436.77" x2="436.771" y2="352.158"/>
		<path fill="#9FADB5" d="M352.158,459.111c-5.718,0-11.436-2.182-15.798-6.543c-8.726-8.726-8.726-22.873,0-31.598l84.612-84.611
			c8.725-8.726,22.87-8.726,31.596,0c8.726,8.725,8.726,22.871,0,31.597l-84.611,84.612
			C363.594,456.93,357.877,459.111,352.158,459.111z"/>
	</g>
</g>
</svg>
