<?xml version="1.0" encoding="utf-8"?>
<!-- Generator: Adobe Illustrator 15.1.0, SVG Export Plug-In . SVG Version: 6.00 Build 0)  -->
<!DOCTYPE svg PUBLIC "-//W3C//DTD SVG 1.1//EN" "http://www.w3.org/Graphics/SVG/1.1/DTD/svg11.dtd">
<svg version="1.1" id="Layer_3" xmlns="http://www.w3.org/2000/svg" xmlns:xlink="http://www.w3.org/1999/xlink" x="0px" y="0px"
	 width="600px" height="600px" viewBox="0 0 600 600" enable-background="new 0 0 600 600" xml:space="preserve">
<g>
	<g>
		<path fill="#F1F6F9" d="M249.546,300.017c0-3.997,1.534-7.458,4.392-10.382l171.279-171.246c2.891-2.927,6.382-4.389,10.373-4.389
			c4.036,0,7.494,1.462,10.346,4.389l38.309,38.306c2.925,2.93,4.393,6.387,4.393,10.418c0,3.994-1.468,7.455-4.393,10.382
			l-122.52,122.522l122.52,122.52c2.925,2.936,4.393,6.394,4.393,10.385c0,3.997-1.468,7.466-4.393,10.385l-38.303,38.303
			c-2.852,2.93-6.304,4.392-10.34,4.392c-3.991,0-7.488-1.468-10.385-4.392L253.938,310.396
			C251.08,307.472,249.546,304.014,249.546,300.017z"/>
	</g>
	<g>
		<path fill="#F1F6F9" d="M187.455,486H136.72c-7.045,0-13.02-2.456-17.954-7.392c-4.925-4.924-7.402-10.94-7.402-17.954V139.352
			c0-7.045,2.468-13.02,7.402-17.955C123.7,116.473,129.675,114,136.72,114h50.735c7.045,0,13.03,2.463,17.965,7.397
			c4.925,4.935,7.397,10.909,7.397,17.955v321.302c0,7.014-2.463,13.03-7.397,17.954C200.485,483.544,194.5,486,187.455,486z"/>
	</g>
</g>
</svg>
