<?xml version="1.0" encoding="utf-8"?>
<!-- Generator: Adobe Illustrator 15.1.0, SVG Export Plug-In . SVG Version: 6.00 Build 0)  -->
<!DOCTYPE svg PUBLIC "-//W3C//DTD SVG 1.1//EN" "http://www.w3.org/Graphics/SVG/1.1/DTD/svg11.dtd">
<svg version="1.1" id="Layer_3" xmlns="http://www.w3.org/2000/svg" xmlns:xlink="http://www.w3.org/1999/xlink" x="0px" y="0px"
	 width="100px" height="100px" viewBox="0 0 100 100" enable-background="new 0 0 100 100" xml:space="preserve">
<g>
	<path fill="#FFFFFF" d="M25.978,50c0-0.8,0.305-1.498,0.878-2.086l34.421-34.411c0.58-0.588,1.283-0.882,2.087-0.882
		c0.81,0,1.505,0.294,2.079,0.882l7.697,7.698c0.596,0.588,0.883,1.279,0.883,2.09c0,0.803-0.287,1.498-0.883,2.086L48.518,50
		l24.623,24.619c0.596,0.588,0.883,1.29,0.883,2.093c0,0.804-0.287,1.498-0.883,2.086l-7.697,7.699
		c-0.572,0.588-1.271,0.882-2.077,0.882c-0.806,0-1.509-0.294-2.089-0.882L26.855,52.086C26.282,51.501,25.978,50.803,25.978,50z"/>
</g>
</svg>
