<?xml version="1.0" encoding="utf-8"?>
<!-- Generator: Adobe Illustrator 15.1.0, SVG Export Plug-In . SVG Version: 6.00 Build 0)  -->
<!DOCTYPE svg PUBLIC "-//W3C//DTD SVG 1.1//EN" "http://www.w3.org/Graphics/SVG/1.1/DTD/svg11.dtd">
<svg version="1.1" id="Layer_1" xmlns="http://www.w3.org/2000/svg" xmlns:xlink="http://www.w3.org/1999/xlink" x="0px" y="0px"
	 width="122.08px" height="29.993px" viewBox="0 0 122.08 29.993" enable-background="new 0 0 122.08 29.993" xml:space="preserve">
<g>
	<g>
		<g>
			<path fill="#E1F5FE" d="M15.297,14.917c0.489-0.464,0.907-1.007,1.251-1.628c0.345-0.621,0.609-1.33,0.791-2.126
				c0.182-0.797,0.273-1.691,0.273-2.682c0-1.355-0.198-2.547-0.593-3.577c-0.395-1.028-0.966-1.892-1.712-2.587
				s-1.656-1.323-2.729-1.68C11.505,0.28,10.285,0,8.917,0H0v28h6V18h2.372l4.122,10H18v-0.662l-4.579-11.217
				C14.036,15.782,14.808,15.38,15.297,14.917z M11.25,11.888C10.699,12.622,9.871,13,8.767,13H6V5h2.917
				c0.552,0,1.029,0.002,1.431,0.196c0.401,0.195,0.73,0.423,0.988,0.78c0.258,0.358,0.446,0.767,0.565,1.275
				c0.119,0.508,0.178,1.069,0.178,1.697C12.079,10.178,11.803,11.154,11.25,11.888z"/>
			<rect x="21" fill="#E1F5FE" width="5" height="28"/>
			<path fill="#E1F5FE" d="M42.493,0.27c-7.539,0-13.706,6.167-13.706,13.706c0,7.538,6.167,13.706,13.706,13.706
				c7.538,0,13.706-6.168,13.706-13.706C56.199,6.437,50.031,0.27,42.493,0.27z M51.443,16.758l-5.524-5.523l-5.756,5.758
				l-3.152-3.017l-3.292,3.292c-0.386-1.025-0.598-2.134-0.598-3.292c0-5.168,4.205-9.372,9.372-9.372s9.372,4.204,9.372,9.372
				C51.864,14.944,51.717,15.877,51.443,16.758z"/>
		</g>
	</g>
	<g enable-background="new    ">
		<path fill="#81D4FA" d="M76.422,2.439l2.78,8.691l2.779-8.691h1.727v10.652H82.37V8.943l0.124-4.155l-2.787,8.304h-1.024
			l-2.773-8.274l0.125,4.126v4.148h-1.339V2.439H76.422z"/>
		<path fill="#81D4FA" d="M89.905,13.091c-0.044-0.098-0.079-0.223-0.105-0.377c-0.027-0.153-0.048-0.315-0.062-0.486
			c-0.093,0.137-0.199,0.266-0.318,0.388s-0.254,0.229-0.402,0.322s-0.311,0.165-0.482,0.219c-0.174,0.054-0.357,0.081-0.553,0.081
			c-0.347,0-0.66-0.049-0.94-0.146s-0.521-0.244-0.72-0.438c-0.201-0.195-0.354-0.436-0.461-0.721
			c-0.107-0.286-0.162-0.618-0.162-0.999s0.066-0.731,0.198-1.054c0.132-0.321,0.327-0.6,0.585-0.834
			c0.259-0.233,0.583-0.418,0.973-0.552c0.391-0.135,0.844-0.201,1.361-0.201h0.9V7.451c0-0.473-0.105-0.81-0.315-1.01
			c-0.21-0.199-0.529-0.3-0.958-0.3c-0.21,0-0.396,0.033-0.561,0.099c-0.162,0.066-0.301,0.155-0.412,0.268
			c-0.113,0.112-0.198,0.242-0.256,0.391c-0.059,0.149-0.088,0.307-0.088,0.473h-1.295c0-0.283,0.062-0.564,0.186-0.846
			c0.125-0.28,0.303-0.531,0.535-0.753c0.23-0.222,0.513-0.401,0.844-0.538c0.332-0.137,0.703-0.205,1.112-0.205
			c0.366,0,0.701,0.044,1.007,0.132c0.305,0.088,0.567,0.229,0.789,0.425c0.223,0.195,0.395,0.446,0.516,0.753
			c0.123,0.308,0.184,0.684,0.184,1.127v3.899c0,0.132,0.004,0.271,0.015,0.417c0.01,0.146,0.025,0.29,0.048,0.432
			c0.021,0.142,0.049,0.277,0.08,0.406s0.066,0.247,0.105,0.354v0.117H89.905z M88.179,12.06c0.181,0,0.352-0.027,0.512-0.081
			c0.162-0.054,0.308-0.123,0.439-0.208c0.132-0.086,0.248-0.183,0.348-0.293c0.1-0.109,0.18-0.223,0.238-0.34V9.25h-0.682
			c-0.312,0-0.594,0.034-0.844,0.103c-0.252,0.068-0.467,0.167-0.645,0.296c-0.178,0.13-0.314,0.289-0.41,0.479
			c-0.095,0.19-0.143,0.407-0.143,0.651c0,0.238,0.025,0.439,0.074,0.604c0.049,0.163,0.121,0.295,0.219,0.395
			c0.098,0.101,0.221,0.172,0.369,0.216C87.805,12.038,87.979,12.06,88.179,12.06z"/>
		<path fill="#81D4FA" d="M94.704,3.258v1.917h1.193v1.047h-1.193v4.908c0,0.205,0.02,0.37,0.059,0.494s0.09,0.221,0.154,0.289
			c0.062,0.068,0.135,0.113,0.215,0.135c0.081,0.022,0.165,0.033,0.253,0.033s0.186-0.011,0.293-0.033
			c0.106-0.021,0.183-0.04,0.227-0.055l-0.015,1.098c-0.088,0.029-0.203,0.061-0.348,0.095c-0.144,0.034-0.328,0.052-0.553,0.052
			c-0.209,0-0.409-0.035-0.6-0.106c-0.189-0.07-0.357-0.188-0.501-0.354s-0.259-0.384-0.344-0.655
			c-0.085-0.271-0.128-0.604-0.128-0.998V6.222H92.21V5.175h1.207V3.258H94.704z"/>
		<path fill="#81D4FA" d="M100.265,13.238c-0.474,0-0.9-0.071-1.281-0.212c-0.38-0.142-0.703-0.357-0.969-0.647
			s-0.47-0.657-0.611-1.102c-0.141-0.443-0.212-0.968-0.212-1.573V8.812c0-0.698,0.083-1.287,0.249-1.768s0.384-0.87,0.654-1.17
			c0.271-0.3,0.582-0.516,0.934-0.647c0.351-0.132,0.714-0.198,1.09-0.198c0.497,0,0.922,0.082,1.272,0.245
			c0.352,0.164,0.64,0.404,0.863,0.721c0.225,0.317,0.388,0.708,0.49,1.171s0.153,0.997,0.153,1.603v0.753h-4.418v0.183
			c0,0.849,0.159,1.466,0.479,1.852c0.32,0.385,0.779,0.578,1.379,0.578c0.22,0,0.418-0.022,0.594-0.066
			c0.175-0.044,0.336-0.105,0.482-0.187c0.146-0.08,0.28-0.176,0.402-0.285c0.121-0.109,0.236-0.23,0.344-0.362l0.673,0.819
			c-0.107,0.151-0.236,0.298-0.388,0.439s-0.332,0.267-0.541,0.377c-0.21,0.109-0.45,0.198-0.721,0.267
			C100.911,13.204,100.605,13.238,100.265,13.238z M100.118,6.141c-0.225,0-0.432,0.034-0.622,0.103s-0.357,0.189-0.501,0.362
			c-0.145,0.173-0.26,0.406-0.348,0.698c-0.088,0.293-0.142,0.661-0.161,1.104h3.116V8.234c-0.014-0.308-0.047-0.589-0.098-0.846
			c-0.052-0.256-0.133-0.477-0.242-0.662c-0.109-0.185-0.258-0.329-0.442-0.432C100.635,6.193,100.401,6.141,100.118,6.141z"/>
		<path fill="#81D4FA" d="M107.72,6.39c-0.104-0.02-0.197-0.033-0.285-0.04c-0.088-0.008-0.188-0.012-0.301-0.012
			c-0.352,0-0.641,0.098-0.867,0.293s-0.4,0.461-0.522,0.798v5.662h-1.295V5.175h1.259l0.021,0.805
			c0.16-0.292,0.361-0.523,0.604-0.694c0.241-0.171,0.53-0.257,0.867-0.257c0.039,0,0.084,0.004,0.135,0.012
			c0.051,0.007,0.102,0.016,0.15,0.025s0.094,0.021,0.135,0.033c0.042,0.012,0.072,0.022,0.092,0.032L107.72,6.39z"/>
		<path fill="#81D4FA" d="M109.036,3.076c0-0.22,0.061-0.404,0.183-0.556s0.305-0.227,0.549-0.227c0.243,0,0.428,0.076,0.552,0.23
			c0.125,0.153,0.188,0.337,0.188,0.552c0,0.22-0.062,0.402-0.184,0.549c-0.121,0.146-0.307,0.22-0.556,0.22
			c-0.244,0-0.427-0.073-0.549-0.22S109.036,3.295,109.036,3.076z M110.403,13.091h-1.294V5.175h1.294V13.091z"/>
		<path fill="#81D4FA" d="M116.513,13.091c-0.044-0.098-0.079-0.223-0.105-0.377c-0.027-0.153-0.048-0.315-0.062-0.486
			c-0.093,0.137-0.199,0.266-0.318,0.388s-0.254,0.229-0.402,0.322s-0.311,0.165-0.482,0.219c-0.174,0.054-0.357,0.081-0.553,0.081
			c-0.347,0-0.66-0.049-0.94-0.146s-0.521-0.244-0.72-0.438c-0.201-0.195-0.354-0.436-0.461-0.721
			c-0.107-0.286-0.162-0.618-0.162-0.999s0.066-0.731,0.198-1.054c0.132-0.321,0.327-0.6,0.585-0.834
			c0.259-0.233,0.583-0.418,0.973-0.552c0.391-0.135,0.844-0.201,1.361-0.201h0.9V7.451c0-0.473-0.105-0.81-0.315-1.01
			c-0.21-0.199-0.529-0.3-0.958-0.3c-0.21,0-0.396,0.033-0.561,0.099c-0.162,0.066-0.301,0.155-0.412,0.268
			c-0.113,0.112-0.198,0.242-0.256,0.391c-0.059,0.149-0.088,0.307-0.088,0.473h-1.295c0-0.283,0.062-0.564,0.186-0.846
			c0.125-0.28,0.303-0.531,0.535-0.753c0.23-0.222,0.513-0.401,0.844-0.538c0.332-0.137,0.703-0.205,1.112-0.205
			c0.366,0,0.701,0.044,1.007,0.132c0.305,0.088,0.567,0.229,0.789,0.425c0.223,0.195,0.395,0.446,0.516,0.753
			c0.123,0.308,0.184,0.684,0.184,1.127v3.899c0,0.132,0.004,0.271,0.015,0.417c0.01,0.146,0.025,0.29,0.048,0.432
			c0.021,0.142,0.049,0.277,0.08,0.406s0.066,0.247,0.105,0.354v0.117H116.513z M114.786,12.06c0.181,0,0.352-0.027,0.512-0.081
			c0.162-0.054,0.308-0.123,0.439-0.208c0.132-0.086,0.248-0.183,0.348-0.293c0.1-0.109,0.18-0.223,0.238-0.34V9.25h-0.682
			c-0.312,0-0.594,0.034-0.844,0.103c-0.252,0.068-0.467,0.167-0.645,0.296c-0.178,0.13-0.314,0.289-0.41,0.479
			c-0.095,0.19-0.143,0.407-0.143,0.651c0,0.238,0.025,0.439,0.074,0.604c0.049,0.163,0.121,0.295,0.219,0.395
			c0.098,0.101,0.221,0.172,0.369,0.216C114.412,12.038,114.587,12.06,114.786,12.06z"/>
		<path fill="#81D4FA" d="M121.012,13.091h-1.294V1.854h1.294V13.091z"/>
	</g>
	<g enable-background="new    ">
		<path fill="#81D4FA" d="M74.695,25.934V15.282h2.538c0.601,0,1.143,0.095,1.625,0.282s0.895,0.468,1.236,0.841
			s0.604,0.837,0.79,1.391c0.185,0.554,0.278,1.193,0.278,1.92v1.8c0,0.727-0.094,1.366-0.278,1.917
			c-0.186,0.551-0.451,1.012-0.798,1.383c-0.346,0.37-0.771,0.649-1.272,0.838c-0.503,0.188-1.071,0.281-1.704,0.281H74.695z
			 M76.034,16.438v8.348h1.076c0.95,0,1.643-0.275,2.077-0.827c0.435-0.551,0.651-1.365,0.651-2.443v-1.821
			c0-1.122-0.217-1.945-0.648-2.47c-0.432-0.523-1.084-0.786-1.957-0.786H76.034z"/>
		<path fill="#81D4FA" d="M85.896,26.081c-0.473,0-0.899-0.071-1.279-0.212c-0.381-0.142-0.704-0.357-0.97-0.647
			c-0.267-0.29-0.47-0.657-0.61-1.102c-0.143-0.443-0.213-0.968-0.213-1.573v-0.892c0-0.698,0.083-1.287,0.249-1.768
			c0.165-0.48,0.384-0.87,0.655-1.17c0.27-0.3,0.581-0.516,0.932-0.647c0.352-0.132,0.715-0.198,1.09-0.198
			c0.498,0,0.922,0.082,1.273,0.245c0.352,0.164,0.639,0.404,0.863,0.721c0.225,0.317,0.389,0.708,0.49,1.171
			c0.103,0.463,0.154,0.997,0.154,1.603v0.753h-4.42v0.183c0,0.849,0.16,1.466,0.48,1.852c0.318,0.385,0.778,0.578,1.379,0.578
			c0.219,0,0.416-0.022,0.592-0.066s0.337-0.105,0.482-0.187c0.146-0.08,0.281-0.176,0.402-0.285
			c0.123-0.109,0.237-0.23,0.345-0.362l0.673,0.819c-0.107,0.151-0.236,0.298-0.388,0.439s-0.331,0.267-0.542,0.377
			c-0.209,0.109-0.449,0.198-0.721,0.267C86.544,26.046,86.237,26.081,85.896,26.081z M85.749,18.984
			c-0.224,0-0.432,0.034-0.621,0.103c-0.19,0.068-0.357,0.189-0.501,0.362s-0.26,0.406-0.348,0.698
			c-0.088,0.293-0.142,0.661-0.161,1.104h3.117v-0.175c-0.016-0.308-0.048-0.589-0.1-0.846c-0.051-0.256-0.131-0.477-0.241-0.662
			c-0.109-0.185-0.257-0.329-0.442-0.432C86.267,19.036,86.032,18.984,85.749,18.984z"/>
		<path fill="#81D4FA" d="M93.929,23.908c0-0.146-0.026-0.279-0.08-0.398c-0.054-0.12-0.142-0.234-0.264-0.345
			c-0.121-0.109-0.279-0.218-0.472-0.325s-0.431-0.225-0.714-0.351c-0.365-0.151-0.693-0.301-0.983-0.446
			c-0.29-0.146-0.534-0.309-0.731-0.487c-0.197-0.178-0.349-0.383-0.453-0.614c-0.105-0.231-0.158-0.506-0.158-0.823
			c0-0.312,0.061-0.604,0.18-0.878c0.119-0.272,0.289-0.511,0.508-0.713c0.221-0.202,0.483-0.362,0.791-0.479
			c0.307-0.117,0.65-0.176,1.031-0.176c0.4,0,0.758,0.062,1.075,0.184s0.585,0.291,0.805,0.508c0.22,0.218,0.388,0.473,0.505,0.765
			c0.117,0.293,0.176,0.607,0.176,0.944h-1.287c0-0.161-0.029-0.318-0.084-0.473c-0.057-0.153-0.14-0.291-0.25-0.413
			c-0.109-0.122-0.242-0.22-0.398-0.293c-0.156-0.072-0.336-0.109-0.541-0.109c-0.22,0-0.406,0.03-0.56,0.092
			c-0.153,0.061-0.279,0.142-0.377,0.241s-0.169,0.216-0.216,0.348s-0.069,0.269-0.069,0.409c0,0.146,0.021,0.272,0.062,0.377
			c0.042,0.105,0.113,0.204,0.217,0.297c0.102,0.092,0.242,0.185,0.42,0.277s0.406,0.2,0.685,0.322
			c0.399,0.156,0.755,0.313,1.064,0.472s0.569,0.332,0.778,0.52c0.211,0.188,0.369,0.401,0.477,0.64
			c0.107,0.239,0.16,0.518,0.16,0.834c0,0.347-0.062,0.66-0.186,0.94c-0.125,0.28-0.302,0.52-0.531,0.717
			c-0.229,0.198-0.504,0.349-0.826,0.454c-0.322,0.104-0.678,0.157-1.068,0.157c-0.449,0-0.846-0.069-1.192-0.209
			c-0.347-0.139-0.637-0.324-0.87-0.556c-0.234-0.231-0.412-0.499-0.531-0.801c-0.119-0.303-0.18-0.617-0.18-0.944h1.303
			c0.01,0.278,0.061,0.508,0.154,0.688c0.092,0.181,0.208,0.325,0.348,0.432c0.139,0.107,0.293,0.183,0.464,0.224
			s0.339,0.062,0.505,0.062c0.43,0,0.756-0.097,0.98-0.289C93.817,24.494,93.929,24.235,93.929,23.908z"/>
		<path fill="#81D4FA" d="M96.937,15.918c0-0.22,0.061-0.404,0.182-0.556c0.123-0.151,0.305-0.227,0.549-0.227
			s0.428,0.076,0.553,0.23c0.125,0.153,0.187,0.337,0.187,0.552c0,0.22-0.062,0.402-0.183,0.549c-0.122,0.146-0.308,0.22-0.557,0.22
			c-0.244,0-0.426-0.073-0.549-0.22C96.997,16.321,96.937,16.138,96.937,15.918z M98.304,25.934h-1.295v-7.916h1.295V25.934z"/>
		<path fill="#81D4FA" d="M100.081,21.618c0-0.648,0.062-1.21,0.184-1.683c0.121-0.473,0.297-0.862,0.527-1.167
			c0.229-0.305,0.506-0.53,0.834-0.677c0.326-0.146,0.691-0.22,1.097-0.22c0.425,0,0.785,0.088,1.083,0.264
			c0.297,0.176,0.549,0.432,0.754,0.769l0.065-0.886h1.171V26c0,0.527-0.07,0.981-0.209,1.365c-0.139,0.383-0.336,0.698-0.589,0.947
			c-0.254,0.248-0.556,0.434-0.903,0.556c-0.35,0.122-0.732,0.183-1.152,0.183c-0.151,0-0.334-0.021-0.549-0.062
			c-0.215-0.042-0.436-0.104-0.662-0.187s-0.446-0.187-0.658-0.312c-0.213-0.124-0.392-0.271-0.538-0.442l0.526-0.893
			c0.283,0.278,0.581,0.479,0.893,0.604c0.312,0.124,0.607,0.187,0.886,0.187c0.253,0,0.483-0.033,0.688-0.099
			c0.205-0.065,0.38-0.173,0.523-0.322c0.144-0.148,0.255-0.343,0.333-0.581c0.078-0.239,0.117-0.532,0.117-0.878v-0.915
			c-0.205,0.303-0.453,0.533-0.743,0.691c-0.29,0.159-0.638,0.238-1.042,0.238c-0.4,0-0.763-0.077-1.087-0.23
			s-0.601-0.384-0.83-0.691s-0.406-0.693-0.53-1.159c-0.125-0.466-0.188-1.014-0.188-1.643V21.618z M101.376,22.357
			c0,0.888,0.131,1.54,0.393,1.957c0.26,0.417,0.688,0.625,1.283,0.625c0.366,0,0.664-0.093,0.893-0.278
			c0.229-0.185,0.414-0.421,0.557-0.709v-3.958c-0.146-0.283-0.336-0.516-0.567-0.698c-0.231-0.184-0.521-0.274-0.867-0.274
			c-0.6,0-1.031,0.212-1.295,0.636c-0.263,0.425-0.396,1.078-0.396,1.961V22.357z"/>
		<path fill="#81D4FA" d="M108.94,18.018l0.037,0.856c0.238-0.317,0.521-0.563,0.845-0.739s0.685-0.264,1.079-0.264
			c0.322,0,0.615,0.053,0.878,0.157c0.264,0.105,0.487,0.273,0.673,0.505c0.186,0.232,0.328,0.529,0.428,0.893
			c0.101,0.363,0.15,0.804,0.15,1.321v5.187h-1.287v-5.201c0-0.62-0.104-1.06-0.311-1.321c-0.208-0.261-0.52-0.391-0.934-0.391
			c-0.322,0-0.611,0.106-0.867,0.321s-0.462,0.495-0.617,0.842v5.75h-1.295v-7.916H108.94z"/>
	</g>
	<rect x="64.644" y="0.479" fill="#81D4FA" width="0.909" height="27.25"/>
</g>
</svg>
