<?xml version="1.0" encoding="utf-8"?>
<!-- Generator: Adobe Illustrator 15.1.0, SVG Export Plug-In . SVG Version: 6.00 Build 0)  -->
<!DOCTYPE svg PUBLIC "-//W3C//DTD SVG 1.1//EN" "http://www.w3.org/Graphics/SVG/1.1/DTD/svg11.dtd">
<svg version="1.1" id="Layer_1" xmlns="http://www.w3.org/2000/svg" xmlns:xlink="http://www.w3.org/1999/xlink" x="0px" y="0px"
	 width="150px" height="40px" viewBox="0 0 150 40" enable-background="new 0 0 150 40" xml:space="preserve">
<g>
	<g>
		<path fill="#FFFFFF" d="M3,9.5C1.622,9.5,0.5,8.379,0.5,7V3c0-1.378,1.122-2.5,2.5-2.5h144c1.379,0,2.5,1.122,2.5,2.5v4
			c0,1.379-1.121,2.5-2.5,2.5H3z"/>
		<path fill="#9FADB5" d="M147,1c1.103,0,2,0.897,2,2v4c0,1.103-0.897,2-2,2H3C1.897,9,1,8.103,1,7V3c0-1.103,0.897-2,2-2H147
			 M147,0H3C1.343,0,0,1.343,0,3v4c0,1.657,1.343,3,3,3h144c1.657,0,3-1.343,3-3V3C150,1.343,148.657,0,147,0L147,0z"/>
	</g>
	<g>
		<path fill="#9FADB5" d="M8,5c0,1.657-1.343,3-3,3l0,0C3.343,8,2,6.657,2,5l0,0c0-1.657,1.343-3,3-3l0,0C6.657,2,8,3.343,8,5L8,5z"
			/>
	</g>
	<g opacity="0.7">
		<path fill="#FFFFFF" d="M3,19.5c-1.378,0-2.5-1.121-2.5-2.5v-4c0-1.379,1.122-2.5,2.5-2.5h144c1.379,0,2.5,1.121,2.5,2.5v4
			c0,1.379-1.121,2.5-2.5,2.5H3z"/>
		<path fill="#DA1C5C" d="M147,11c1.103,0,2,0.897,2,2v4c0,1.103-0.897,2-2,2H3c-1.103,0-2-0.897-2-2v-4c0-1.103,0.897-2,2-2H147
			 M147,10H3c-1.657,0-3,1.344-3,3v4c0,1.657,1.343,3,3,3h144c1.657,0,3-1.343,3-3v-4C150,11.344,148.657,10,147,10L147,10z"/>
	</g>
	<g opacity="0.7">
		<path fill="#DA1C5C" d="M8,15c0,1.657-1.343,3-3,3l0,0c-1.657,0-3-1.343-3-3l0,0c0-1.656,1.343-3,3-3l0,0C6.657,12,8,13.344,8,15
			L8,15z"/>
	</g>
	<g opacity="0.7">
		<path fill="#DA1C5C" d="M15,15c0,1.657-1.343,3-3,3l0,0c-1.657,0-3-1.343-3-3l0,0c0-1.656,1.343-3,3-3l0,0
			C13.657,12,15,13.344,15,15L15,15z"/>
	</g>
	<g opacity="0.7">
		<path fill="#DA1C5C" d="M22,15c0,1.657-1.343,3-3,3l0,0c-1.657,0-3-1.343-3-3l0,0c0-1.656,1.343-3,3-3l0,0
			C20.657,12,22,13.344,22,15L22,15z"/>
	</g>
	<g opacity="0.7">
		<path fill="#DA1C5C" d="M29,15c0,1.657-1.343,3-3,3l0,0c-1.657,0-3-1.343-3-3l0,0c0-1.656,1.343-3,3-3l0,0
			C27.657,12,29,13.344,29,15L29,15z"/>
	</g>
	<g opacity="0.7">
		<path fill="#DA1C5C" d="M36,15c0,1.657-1.343,3-3,3l0,0c-1.657,0-3-1.343-3-3l0,0c0-1.656,1.343-3,3-3l0,0
			C34.657,12,36,13.344,36,15L36,15z"/>
	</g>
	<g opacity="0.7">
		<path fill="#DA1C5C" d="M43,15c0,1.657-1.343,3-3,3l0,0c-1.657,0-3-1.343-3-3l0,0c0-1.656,1.343-3,3-3l0,0
			C41.657,12,43,13.344,43,15L43,15z"/>
	</g>
	<g opacity="0.7">
		<path fill="#DA1C5C" d="M50,15c0,1.657-1.343,3-3,3l0,0c-1.657,0-3-1.343-3-3l0,0c0-1.656,1.343-3,3-3l0,0
			C48.657,12,50,13.344,50,15L50,15z"/>
	</g>
	<g opacity="0.7">
		<path fill="#DA1C5C" d="M57,15c0,1.657-1.343,3-3,3l0,0c-1.657,0-3-1.343-3-3l0,0c0-1.656,1.343-3,3-3l0,0
			C55.657,12,57,13.344,57,15L57,15z"/>
	</g>
	<g opacity="0.7">
		<path fill="#FFFFFF" d="M3,29.5c-1.378,0-2.5-1.121-2.5-2.5v-4c0-1.379,1.122-2.5,2.5-2.5h144c1.379,0,2.5,1.121,2.5,2.5v4
			c0,1.379-1.121,2.5-2.5,2.5H3z"/>
		<path fill="#F96632" d="M147,21c1.103,0,2,0.897,2,2v4c0,1.103-0.897,2-2,2H3c-1.103,0-2-0.897-2-2v-4c0-1.103,0.897-2,2-2H147
			 M147,20H3c-1.657,0-3,1.344-3,3v4c0,1.657,1.343,3,3,3h144c1.657,0,3-1.343,3-3v-4C150,21.344,148.657,20,147,20L147,20z"/>
	</g>
	<g opacity="0.7">
		<path fill="#F96632" d="M8,25c0,1.657-1.343,3-3,3l0,0c-1.657,0-3-1.343-3-3l0,0c0-1.656,1.343-3,3-3l0,0C6.657,22,8,23.344,8,25
			L8,25z"/>
	</g>
	<g opacity="0.7">
		<path fill="#F96632" d="M15,25c0,1.657-1.343,3-3,3l0,0c-1.657,0-3-1.343-3-3l0,0c0-1.656,1.343-3,3-3l0,0
			C13.657,22,15,23.344,15,25L15,25z"/>
	</g>
	<g opacity="0.7">
		<path fill="#F96632" d="M22,25c0,1.657-1.343,3-3,3l0,0c-1.657,0-3-1.343-3-3l0,0c0-1.656,1.343-3,3-3l0,0
			C20.657,22,22,23.344,22,25L22,25z"/>
	</g>
	<g opacity="0.7">
		<path fill="#F96632" d="M29,25c0,1.657-1.343,3-3,3l0,0c-1.657,0-3-1.343-3-3l0,0c0-1.656,1.343-3,3-3l0,0
			C27.657,22,29,23.344,29,25L29,25z"/>
	</g>
	<g opacity="0.7">
		<path fill="#F96632" d="M36,25c0,1.657-1.343,3-3,3l0,0c-1.657,0-3-1.343-3-3l0,0c0-1.656,1.343-3,3-3l0,0
			C34.657,22,36,23.344,36,25L36,25z"/>
	</g>
	<g opacity="0.7">
		<path fill="#F96632" d="M43,25c0,1.657-1.343,3-3,3l0,0c-1.657,0-3-1.343-3-3l0,0c0-1.656,1.343-3,3-3l0,0
			C41.657,22,43,23.344,43,25L43,25z"/>
	</g>
	<g opacity="0.7">
		<path fill="#F96632" d="M50,25c0,1.657-1.343,3-3,3l0,0c-1.657,0-3-1.343-3-3l0,0c0-1.656,1.343-3,3-3l0,0
			C48.657,22,50,23.344,50,25L50,25z"/>
	</g>
	<g opacity="0.7">
		<path fill="#F96632" d="M57,25c0,1.657-1.343,3-3,3l0,0c-1.657,0-3-1.343-3-3l0,0c0-1.656,1.343-3,3-3l0,0
			C55.657,22,57,23.344,57,25L57,25z"/>
	</g>
	<g opacity="0.7">
		<path fill="#F96632" d="M64,25c0,1.657-1.343,3-3,3l0,0c-1.657,0-3-1.343-3-3l0,0c0-1.656,1.343-3,3-3l0,0
			C62.657,22,64,23.344,64,25L64,25z"/>
	</g>
	<g opacity="0.7">
		<path fill="#F96632" d="M71,25c0,1.657-1.343,3-3,3l0,0c-1.657,0-3-1.343-3-3l0,0c0-1.656,1.343-3,3-3l0,0
			C69.657,22,71,23.344,71,25L71,25z"/>
	</g>
	<g opacity="0.7">
		<path fill="#F96632" d="M78,25c0,1.657-1.343,3-3,3l0,0c-1.656,0-3-1.343-3-3l0,0c0-1.656,1.344-3,3-3l0,0
			C76.657,22,78,23.344,78,25L78,25z"/>
	</g>
	<g opacity="0.7">
		<path fill="#F96632" d="M85,25c0,1.657-1.343,3-3,3l0,0c-1.656,0-3-1.343-3-3l0,0c0-1.656,1.344-3,3-3l0,0
			C83.657,22,85,23.344,85,25L85,25z"/>
	</g>
	<g opacity="0.7">
		<path fill="#F96632" d="M92,25c0,1.657-1.343,3-3,3l0,0c-1.656,0-3-1.343-3-3l0,0c0-1.656,1.344-3,3-3l0,0
			C90.657,22,92,23.344,92,25L92,25z"/>
	</g>
	<g opacity="0.7">
		<path fill="#F96632" d="M99,25c0,1.657-1.343,3-3,3l0,0c-1.656,0-3-1.343-3-3l0,0c0-1.656,1.344-3,3-3l0,0
			C97.657,22,99,23.344,99,25L99,25z"/>
	</g>
	<g opacity="0.7">
		<path fill="#FFFFFF" d="M3,39.5c-1.378,0-2.5-1.121-2.5-2.5v-4c0-1.379,1.122-2.5,2.5-2.5h144c1.379,0,2.5,1.121,2.5,2.5v4
			c0,1.379-1.121,2.5-2.5,2.5H3z"/>
		<path fill="#2BB673" d="M147,31c1.103,0,2,0.897,2,2v4c0,1.103-0.897,2-2,2H3c-1.103,0-2-0.897-2-2v-4c0-1.103,0.897-2,2-2H147
			 M147,30H3c-1.657,0-3,1.344-3,3v4c0,1.657,1.343,3,3,3h144c1.657,0,3-1.343,3-3v-4C150,31.344,148.657,30,147,30L147,30z"/>
	</g>
	<g opacity="0.7">
		<path fill="#2BB673" d="M8,35c0,1.657-1.343,3-3,3l0,0c-1.657,0-3-1.343-3-3l0,0c0-1.656,1.343-3,3-3l0,0C6.657,32,8,33.344,8,35
			L8,35z"/>
	</g>
	<g opacity="0.7">
		<path fill="#2BB673" d="M15,35c0,1.657-1.343,3-3,3l0,0c-1.657,0-3-1.343-3-3l0,0c0-1.656,1.343-3,3-3l0,0
			C13.657,32,15,33.344,15,35L15,35z"/>
	</g>
	<g opacity="0.7">
		<path fill="#2BB673" d="M22,35c0,1.657-1.343,3-3,3l0,0c-1.657,0-3-1.343-3-3l0,0c0-1.656,1.343-3,3-3l0,0
			C20.657,32,22,33.344,22,35L22,35z"/>
	</g>
	<g opacity="0.7">
		<path fill="#2BB673" d="M29,35c0,1.657-1.343,3-3,3l0,0c-1.657,0-3-1.343-3-3l0,0c0-1.656,1.343-3,3-3l0,0
			C27.657,32,29,33.344,29,35L29,35z"/>
	</g>
	<g opacity="0.7">
		<path fill="#2BB673" d="M36,35c0,1.657-1.343,3-3,3l0,0c-1.657,0-3-1.343-3-3l0,0c0-1.656,1.343-3,3-3l0,0
			C34.657,32,36,33.344,36,35L36,35z"/>
	</g>
	<g opacity="0.7">
		<path fill="#2BB673" d="M43,35c0,1.657-1.343,3-3,3l0,0c-1.657,0-3-1.343-3-3l0,0c0-1.656,1.343-3,3-3l0,0
			C41.657,32,43,33.344,43,35L43,35z"/>
	</g>
	<g opacity="0.7">
		<path fill="#2BB673" d="M50,35c0,1.657-1.343,3-3,3l0,0c-1.657,0-3-1.343-3-3l0,0c0-1.656,1.343-3,3-3l0,0
			C48.657,32,50,33.344,50,35L50,35z"/>
	</g>
	<g opacity="0.7">
		<path fill="#2BB673" d="M57,35c0,1.657-1.343,3-3,3l0,0c-1.657,0-3-1.343-3-3l0,0c0-1.656,1.343-3,3-3l0,0
			C55.657,32,57,33.344,57,35L57,35z"/>
	</g>
	<g opacity="0.7">
		<path fill="#2BB673" d="M64,35c0,1.657-1.343,3-3,3l0,0c-1.657,0-3-1.343-3-3l0,0c0-1.656,1.343-3,3-3l0,0
			C62.657,32,64,33.344,64,35L64,35z"/>
	</g>
	<g opacity="0.7">
		<path fill="#2BB673" d="M71,35c0,1.657-1.343,3-3,3l0,0c-1.657,0-3-1.343-3-3l0,0c0-1.656,1.343-3,3-3l0,0
			C69.657,32,71,33.344,71,35L71,35z"/>
	</g>
	<g opacity="0.7">
		<path fill="#2BB673" d="M78,35c0,1.657-1.343,3-3,3l0,0c-1.656,0-3-1.343-3-3l0,0c0-1.656,1.344-3,3-3l0,0
			C76.657,32,78,33.344,78,35L78,35z"/>
	</g>
	<g opacity="0.7">
		<path fill="#2BB673" d="M85,35c0,1.657-1.343,3-3,3l0,0c-1.656,0-3-1.343-3-3l0,0c0-1.656,1.344-3,3-3l0,0
			C83.657,32,85,33.344,85,35L85,35z"/>
	</g>
	<g opacity="0.7">
		<path fill="#2BB673" d="M92,35c0,1.657-1.343,3-3,3l0,0c-1.656,0-3-1.343-3-3l0,0c0-1.656,1.344-3,3-3l0,0
			C90.657,32,92,33.344,92,35L92,35z"/>
	</g>
	<g opacity="0.7">
		<path fill="#2BB673" d="M99,35c0,1.657-1.343,3-3,3l0,0c-1.656,0-3-1.343-3-3l0,0c0-1.656,1.344-3,3-3l0,0
			C97.657,32,99,33.344,99,35L99,35z"/>
	</g>
	<g opacity="0.7">
		<path fill="#2BB673" d="M106,35c0,1.657-1.343,3-3,3l0,0c-1.656,0-3-1.343-3-3l0,0c0-1.656,1.344-3,3-3l0,0
			C104.657,32,106,33.344,106,35L106,35z"/>
	</g>
	<g opacity="0.7">
		<path fill="#2BB673" d="M113,35c0,1.657-1.343,3-3,3l0,0c-1.656,0-3-1.343-3-3l0,0c0-1.656,1.344-3,3-3l0,0
			C111.657,32,113,33.344,113,35L113,35z"/>
	</g>
	<g opacity="0.7">
		<path fill="#2BB673" d="M120,35c0,1.657-1.343,3-3,3l0,0c-1.656,0-3-1.343-3-3l0,0c0-1.656,1.344-3,3-3l0,0
			C118.657,32,120,33.344,120,35L120,35z"/>
	</g>
	<g opacity="0.7">
		<path fill="#2BB673" d="M127,35c0,1.657-1.343,3-3,3l0,0c-1.656,0-3-1.343-3-3l0,0c0-1.656,1.344-3,3-3l0,0
			C125.657,32,127,33.344,127,35L127,35z"/>
	</g>
	<g opacity="0.7">
		<path fill="#2BB673" d="M134,35c0,1.657-1.343,3-3,3l0,0c-1.656,0-3-1.343-3-3l0,0c0-1.656,1.344-3,3-3l0,0
			C132.657,32,134,33.344,134,35L134,35z"/>
	</g>
	<g opacity="0.7">
		<path fill="#2BB673" d="M141,35c0,1.657-1.343,3-3,3l0,0c-1.656,0-3-1.343-3-3l0,0c0-1.656,1.344-3,3-3l0,0
			C139.657,32,141,33.344,141,35L141,35z"/>
	</g>
	<g opacity="0.7">
		<path fill="#2BB673" d="M148,35c0,1.657-1.343,3-3,3l0,0c-1.656,0-3-1.343-3-3l0,0c0-1.656,1.344-3,3-3l0,0
			C146.657,32,148,33.344,148,35L148,35z"/>
	</g>
</g>
</svg>
