<?xml version="1.0" encoding="utf-8"?>
<!-- Generator: Adobe Illustrator 15.1.0, SVG Export Plug-In . SVG Version: 6.00 Build 0)  -->
<!DOCTYPE svg PUBLIC "-//W3C//DTD SVG 1.1//EN" "http://www.w3.org/Graphics/SVG/1.1/DTD/svg11.dtd">
<svg version="1.1" id="Layer_3" xmlns="http://www.w3.org/2000/svg" xmlns:xlink="http://www.w3.org/1999/xlink" x="0px" y="0px"
	 width="100px" height="100px" viewBox="0 0 100 100" enable-background="new 0 0 100 100" xml:space="preserve">
<g>
	<g>
		<path fill="#9FADB5" d="M50,26.729c1.934,0,3.859,1.224,5.33,3.666l20.398,33.998c2.931,4.883,0.666,8.879-5.027,8.879H29.299
			c-5.693,0-7.961-4-5.024-8.879l20.398-33.998C46.139,27.953,48.065,26.729,50,26.729 M50,19.829
			c-4.471,0-8.563,2.554-11.244,7.009L18.358,60.844c-2.712,4.516-3.009,9.334-0.812,13.215c2.198,3.883,6.484,6.113,11.753,6.113
			h41.402c5.27,0,9.556-2.23,11.753-6.113c2.196-3.881,1.899-8.692-0.81-13.215L61.247,26.847
			C58.564,22.382,54.475,19.829,50,19.829z"/>
	</g>
	<g>
		<circle fill="#9FADB5" cx="50" cy="62.92" r="4.484"/>
	</g>
	<g>
		<path fill="#9FADB5" d="M55.175,42.218c0-2.864-2.312-5.175-5.174-5.175c-2.86,0-5.176,2.312-5.176,5.175
			c0,0.688,0.142,1.341,0.383,1.941C47.12,48.903,50,56.02,50,56.02s2.883-7.113,4.797-11.857
			C55.033,43.56,55.175,42.906,55.175,42.218z"/>
	</g>
</g>
</svg>
