<?xml version="1.0" encoding="utf-8"?>
<!-- Generator: Adobe Illustrator 15.1.0, SVG Export Plug-In . SVG Version: 6.00 Build 0)  -->
<!DOCTYPE svg PUBLIC "-//W3C//DTD SVG 1.1//EN" "http://www.w3.org/Graphics/SVG/1.1/DTD/svg11.dtd">
<svg version="1.1" id="Layer_1" xmlns="http://www.w3.org/2000/svg" xmlns:xlink="http://www.w3.org/1999/xlink" x="0px" y="0px"
	 width="109.002px" height="109.002px" viewBox="201.498 201.5 109.002 109.002"
	 enable-background="new 201.498 201.5 109.002 109.002" xml:space="preserve">
<path opacity="0.5" fill="#EF0F4F" d="M294.537,217.462c-21.283-21.284-55.792-21.284-77.076,0
	c-21.284,21.284-21.284,55.792,0,77.077c21.284,21.283,55.792,21.283,77.076,0C315.821,273.255,315.821,238.747,294.537,217.462z
	 M283.195,269.143c1.164,1.164,1.164,3.052,0,4.216l-9.837,9.838c-1.165,1.164-3.052,1.164-4.217,0L256,270.054l-13.142,13.143
	c-1.164,1.164-3.052,1.164-4.216,0l-9.837-9.837c-1.164-1.165-1.164-3.053,0-4.217L241.946,256l-13.143-13.142
	c-1.164-1.165-1.164-3.052,0-4.216l9.838-9.837c1.164-1.164,3.052-1.164,4.216,0L256,241.947l13.143-13.143
	c1.164-1.164,3.051-1.164,4.216,0l9.837,9.837c1.164,1.165,1.164,3.052,0,4.216L270.053,256L283.195,269.143z"/>
</svg>
