<?xml version="1.0" encoding="utf-8"?>
<!-- Generator: Adobe Illustrator 15.1.0, SVG Export Plug-In . SVG Version: 6.00 Build 0)  -->
<!DOCTYPE svg PUBLIC "-//W3C//DTD SVG 1.1//EN" "http://www.w3.org/Graphics/SVG/1.1/DTD/svg11.dtd">
<svg version="1.1" id="Layer_3" xmlns="http://www.w3.org/2000/svg" xmlns:xlink="http://www.w3.org/1999/xlink" x="0px" y="0px"
	 width="600px" height="600px" viewBox="0 0 600 600" enable-background="new 0 0 600 600" xml:space="preserve">
<g>
	<path fill="#F1F6F9" d="M289.604,415.156L118.391,243.877c-2.924-2.897-4.392-6.396-4.392-10.385c0-4.037,1.462-7.488,4.392-10.341
		l38.303-38.303c2.919-2.926,6.388-4.393,10.385-4.393c3.991,0,7.449,1.467,10.385,4.393l122.521,122.52l122.521-122.521
		c2.927-2.926,6.388-4.393,10.382-4.393c4.03,0,7.488,1.467,10.418,4.393l38.307,38.31c2.927,2.852,4.389,6.309,4.389,10.346
		c0,3.99-1.462,7.481-4.389,10.373L310.366,415.153c-2.925,2.858-6.385,4.393-10.382,4.393
		C295.987,419.546,292.529,418.012,289.604,415.156z"/>
</g>
</svg>
