<?xml version="1.0" encoding="utf-8"?>
<!-- Generator: Adobe Illustrator 15.1.0, SVG Export Plug-In . SVG Version: 6.00 Build 0)  -->
<!DOCTYPE svg PUBLIC "-//W3C//DTD SVG 1.1//EN" "http://www.w3.org/Graphics/SVG/1.1/DTD/svg11.dtd">
<svg version="1.1" id="Layer_3" xmlns="http://www.w3.org/2000/svg" xmlns:xlink="http://www.w3.org/1999/xlink" x="0px" y="0px"
	 width="600px" height="600px" viewBox="0 0 600 600" enable-background="new 0 0 600 600" xml:space="preserve">
<g>
	<path fill="#9FADB5" d="M412.299,190.578V279H485V119.023c0-2.222-1.801-4.023-4.022-4.023H321v72.701h88.422
		C411.011,187.701,412.299,188.989,412.299,190.578z"/>
	<path fill="#9FADB5" d="M412.299,321v88.422c0,1.589-1.288,2.877-2.877,2.877H190.578c-1.589,0-2.877-1.288-2.877-2.877V190.578
		c0-1.588,1.288-2.876,2.877-2.876H279V115H119.022c-2.222,0-4.022,1.801-4.022,4.023v361.955c0,2.223,1.801,4.022,4.022,4.022
		h361.955c2.223,0,4.022-1.801,4.022-4.022V321H412.299z"/>
</g>
<path fill="#9FADB5" d="M449.648,169.416c9.831,9.832,11.785,23.816,4.365,31.236l-131.521,131.52
	c-7.421,7.42-21.404,5.467-31.235-4.363l-17.891-17.893c-9.83-9.83-11.785-23.812-4.364-31.232l131.521-131.522
	c7.419-7.419,21.404-5.466,31.234,4.364L449.648,169.416z"/>
</svg>
