<?xml version="1.0" encoding="utf-8"?>
<!-- Generator: Adobe Illustrator 15.1.0, SVG Export Plug-In . SVG Version: 6.00 Build 0)  -->
<!DOCTYPE svg PUBLIC "-//W3C//DTD SVG 1.1//EN" "http://www.w3.org/Graphics/SVG/1.1/DTD/svg11.dtd">
<svg version="1.1" id="Capa_1" xmlns="http://www.w3.org/2000/svg" xmlns:xlink="http://www.w3.org/1999/xlink" x="0px" y="0px"
	 width="600px" height="600px" viewBox="0 0 600 600" enable-background="new 0 0 600 600" xml:space="preserve">
<path fill="#9FADB5" d="M300,352.857c14.607,0,26.429,11.82,26.429,26.429c0,14.607-11.821,26.428-26.429,26.428
	c-14.608,0-26.429-11.82-26.429-26.428C273.571,364.678,285.392,352.857,300,352.857z M352.856,300
	c0,14.608,11.821,26.429,26.429,26.429c14.608,0,26.429-11.82,26.429-26.429c0-14.608-11.82-26.429-26.429-26.429
	S352.856,285.392,352.856,300z M273.571,300c0,14.608,11.82,26.429,26.429,26.429c14.607,0,26.429-11.82,26.429-26.429
	c0-14.608-11.82-26.429-26.429-26.429S273.571,285.392,273.571,300z M194.286,300c0,14.608,11.82,26.429,26.428,26.429
	c14.608,0,26.429-11.82,26.429-26.429c0-14.608-11.82-26.429-26.429-26.429C206.106,273.571,194.286,285.392,194.286,300z
	 M194.286,220.714c0,14.607,11.82,26.429,26.428,26.429c14.608,0,26.429-11.821,26.429-26.429c0-14.608-11.82-26.429-26.429-26.429
	C206.106,194.286,194.286,206.106,194.286,220.714z M194.286,141.429c0,14.607,11.82,26.428,26.428,26.428
	c14.608,0,26.429-11.821,26.429-26.428c0-14.608-11.82-26.429-26.429-26.429C206.106,115,194.286,126.821,194.286,141.429z
	 M273.571,220.714c0,14.607,11.82,26.429,26.429,26.429c14.607,0,26.429-11.821,26.429-26.429c0-14.608-11.82-26.429-26.429-26.429
	S273.571,206.106,273.571,220.714z M194.286,458.571c0,14.608,11.82,26.429,26.428,26.429c14.608,0,26.429-11.82,26.429-26.429
	s-11.82-26.429-26.429-26.429C206.106,432.143,194.286,443.963,194.286,458.571z M194.286,379.286
	c0,14.607,11.82,26.428,26.428,26.428c14.608,0,26.429-11.82,26.429-26.428c0-14.608-11.82-26.429-26.429-26.429
	C206.106,352.857,194.286,364.678,194.286,379.286z"/>
</svg>
