<?xml version="1.0" encoding="utf-8"?>
<!-- Generator: Adobe Illustrator 15.1.0, SVG Export Plug-In . SVG Version: 6.00 Build 0)  -->
<!DOCTYPE svg PUBLIC "-//W3C//DTD SVG 1.1//EN" "http://www.w3.org/Graphics/SVG/1.1/DTD/svg11.dtd">
<svg version="1.1" id="Layer_1" xmlns="http://www.w3.org/2000/svg" xmlns:xlink="http://www.w3.org/1999/xlink" x="0px" y="0px"
	 width="109.002px" height="109.002px" viewBox="0 0 109.002 109.002" enable-background="new 0 0 109.002 109.002"
	 xml:space="preserve">
<g>
	<g>
		<path fill="#D0525D" d="M27.67,16.166H10.42c-1.039,0-1.938,0.379-2.695,1.138C6.965,18.062,6.581,18.96,6.581,20v38.334
			c0,1.033,0.384,1.938,1.144,2.692c0.758,0.761,1.656,1.142,2.695,1.142h17.25c1.037,0,1.936-0.381,2.695-1.142
			c0.758-0.755,1.133-1.653,1.133-2.692V20c0-1.039-0.375-1.938-1.133-2.695C29.605,16.545,28.707,16.166,27.67,16.166z
			 M20.779,30.361c-0.758,0.759-1.659,1.138-2.695,1.138c-1.081,0-1.985-0.379-2.726-1.138c-0.739-0.757-1.107-1.656-1.107-2.695
			c0-1.077,0.368-1.987,1.107-2.725c0.74-0.74,1.645-1.108,2.726-1.108c1.036,0,1.938,0.368,2.695,1.108
			c0.761,0.738,1.138,1.648,1.138,2.725C21.917,28.706,21.537,29.601,20.779,30.361z"/>
		<path fill="#D0525D" d="M99.123,49.41c0.6-1.758,0.898-3.277,0.893-4.552c0.123-3.037-0.736-5.768-2.575-8.206
			c0.68-2.234,0.68-4.57,0-7.008c-0.599-2.276-1.677-4.152-3.234-5.631c0.362-4.471-0.62-8.084-2.935-10.841
			c-2.555-3.034-6.484-4.593-11.8-4.67h-2.153h-4.552h-1.021c-2.633,0-5.511,0.309-8.625,0.927c-3.111,0.622-5.538,1.2-7.271,1.739
			c-1.74,0.538-4.148,1.328-7.218,2.366c-4.914,1.716-8.068,2.595-9.464,2.634c-1.039,0.041-1.938,0.43-2.698,1.168
			c-0.758,0.74-1.141,1.628-1.141,2.666v38.395c0,0.997,0.362,1.865,1.084,2.603c0.713,0.742,1.575,1.149,2.572,1.23
			c0.959,0.081,2.477,1.261,4.553,3.537c2.078,2.272,4.091,4.689,6.049,7.244c2.717,3.474,4.729,5.867,6.05,7.185
			c0.722,0.719,1.339,1.677,1.854,2.878c0.521,1.195,0.872,2.165,1.055,2.905c0.177,0.736,0.446,1.943,0.806,3.623
			c0.281,1.558,0.526,2.773,0.749,3.654c0.222,0.874,0.61,1.913,1.171,3.111c0.56,1.201,1.236,2.198,2.036,2.998
			c0.755,0.758,1.653,1.138,2.692,1.138c1.842,0,3.486-0.21,4.944-0.632c1.455-0.419,2.656-0.935,3.594-1.552
			c0.94-0.622,1.737-1.431,2.396-2.429c0.659-0.997,1.139-1.896,1.438-2.695c0.3-0.799,0.539-1.797,0.719-2.994
			c0.183-1.198,0.282-2.1,0.3-2.695c0.021-0.6,0.033-1.378,0.033-2.339c0-1.516-0.198-3.04-0.6-4.579
			c-0.404-1.537-0.781-2.708-1.138-3.507c-0.359-0.8-0.898-1.932-1.617-3.414c-0.123-0.24-0.32-0.6-0.602-1.078
			c-0.275-0.479-0.497-0.917-0.659-1.318c-0.159-0.398-0.317-0.877-0.474-1.438h16.589c3.114,0,5.801-1.138,8.053-3.414
			c2.258-2.275,3.408-4.971,3.447-8.086C102.418,54.818,101.321,51.842,99.123,49.41z"/>
	</g>
</g>
</svg>
