<?xml version="1.0" encoding="utf-8"?>
<!-- Generator: Adobe Illustrator 15.1.0, SVG Export Plug-In . SVG Version: 6.00 Build 0)  -->
<!DOCTYPE svg PUBLIC "-//W3C//DTD SVG 1.1//EN" "http://www.w3.org/Graphics/SVG/1.1/DTD/svg11.dtd">
<svg version="1.1" id="Layer_3" xmlns="http://www.w3.org/2000/svg" xmlns:xlink="http://www.w3.org/1999/xlink" x="0px" y="0px"
	 width="600px" height="600px" viewBox="0 0 600 600" enable-background="new 0 0 600 600" xml:space="preserve">
<g>
	<path fill="#546E7A" d="M289.676,414.538l-170.32-170.362c-2.89-2.848-4.355-6.366-4.355-10.302c0-4.021,1.465-7.456,4.355-10.304
		l38.111-38.108c2.931-2.932,6.366-4.355,10.301-4.355c4.021,0,7.455,1.423,10.386,4.355L300,307.328l121.868-121.866
		c2.909-2.932,6.344-4.355,10.321-4.355c4,0,7.436,1.423,10.345,4.355l38.089,38.11c2.91,2.848,4.377,6.282,4.377,10.303
		c0,3.936-1.467,7.453-4.377,10.301L310.322,414.538c-2.909,2.848-6.365,4.354-10.322,4.354
		C296.022,418.895,292.566,417.386,289.676,414.538z"/>
</g>
</svg>
