<?xml version="1.0" encoding="utf-8"?>
<!-- Generator: Adobe Illustrator 15.1.0, SVG Export Plug-In . SVG Version: 6.00 Build 0)  -->
<!DOCTYPE svg PUBLIC "-//W3C//DTD SVG 1.1//EN" "http://www.w3.org/Graphics/SVG/1.1/DTD/svg11.dtd">
<svg version="1.1" id="Layer_3" xmlns="http://www.w3.org/2000/svg" xmlns:xlink="http://www.w3.org/1999/xlink" x="0px" y="0px"
	 width="100px" height="100px" viewBox="0 0 100 100" enable-background="new 0 0 100 100" xml:space="preserve">
<g>
	<path fill="#9FADB5" d="M29.77,48.177L59.86,18.093c0.503-0.51,1.124-0.77,1.819-0.77c0.71,0,1.316,0.26,1.82,0.77l6.73,6.731
		c0.518,0.518,0.77,1.125,0.77,1.82c0,0.71-0.252,1.316-0.77,1.834L48.706,50L70.23,71.525c0.518,0.514,0.77,1.12,0.77,1.823
		c0,0.706-0.252,1.313-0.77,1.827l-6.73,6.728c-0.504,0.514-1.11,0.773-1.82,0.773c-0.695,0-1.316-0.26-1.819-0.773L29.77,51.823
		C29.266,51.31,29,50.699,29,50C29,49.297,29.266,48.688,29.77,48.177z"/>
</g>
</svg>
