<?xml version="1.0" encoding="utf-8"?>
<!-- Generator: Adobe Illustrator 15.1.0, SVG Export Plug-In . SVG Version: 6.00 Build 0)  -->
<!DOCTYPE svg PUBLIC "-//W3C//DTD SVG 1.1//EN" "http://www.w3.org/Graphics/SVG/1.1/DTD/svg11.dtd">
<svg version="1.1" id="Layer_3" xmlns="http://www.w3.org/2000/svg" xmlns:xlink="http://www.w3.org/1999/xlink" x="0px" y="0px"
	 width="100px" height="100px" viewBox="0 0 100 100" enable-background="new 0 0 100 100" xml:space="preserve">
<g>
	<path fill="#F1F6F9" d="M29,50.003c0-0.702,0.269-1.31,0.771-1.824l30.088-30.082c0.508-0.514,1.121-0.771,1.822-0.771
		c0.709,0,1.315,0.257,1.816,0.771l6.729,6.729C70.742,25.341,71,25.948,71,26.656c0,0.702-0.258,1.31-0.771,1.824L48.706,50.003
		l21.522,21.522C70.742,72.041,71,72.648,71,73.35c0,0.702-0.258,1.312-0.771,1.824L63.5,81.902
		c-0.501,0.515-1.107,0.771-1.816,0.771c-0.701,0-1.314-0.258-1.824-0.771L29.771,51.826C29.269,51.312,29,50.705,29,50.003z"/>
</g>
</svg>
