<?xml version="1.0" encoding="utf-8"?>
<!-- Generator: Adobe Illustrator 15.1.0, SVG Export Plug-In . SVG Version: 6.00 Build 0)  -->
<!DOCTYPE svg PUBLIC "-//W3C//DTD SVG 1.1//EN" "http://www.w3.org/Graphics/SVG/1.1/DTD/svg11.dtd">
<svg version="1.1" id="Layer_1" xmlns="http://www.w3.org/2000/svg" xmlns:xlink="http://www.w3.org/1999/xlink" x="0px" y="0px"
	 width="49.625px" height="49.625px" viewBox="0 0 49.625 49.625" enable-background="new 0 0 49.625 49.625" xml:space="preserve">
<path fill="#231F20" d="M21.538,28.109"/>
<g>
	<path fill="#FFFFFF" d="M42.111,22.454v4.719c0,0.655-0.229,1.211-0.688,1.67c-0.458,0.458-1.019,0.688-1.67,0.688H9.87
		c-0.655,0-1.211-0.229-1.67-0.688c-0.458-0.459-0.688-1.015-0.688-1.67v-4.719c0-0.655,0.229-1.212,0.688-1.671
		c0.459-0.458,1.015-0.688,1.67-0.688h29.884c0.652,0,1.212,0.229,1.67,0.688C41.883,21.242,42.111,21.799,42.111,22.454z"/>
</g>
</svg>
