<?xml version="1.0" encoding="utf-8"?>
<!-- Generator: Adobe Illustrator 15.1.0, SVG Export Plug-In . SVG Version: 6.00 Build 0)  -->
<!DOCTYPE svg PUBLIC "-//W3C//DTD SVG 1.1//EN" "http://www.w3.org/Graphics/SVG/1.1/DTD/svg11.dtd">
<svg version="1.1" id="Layer_3" xmlns="http://www.w3.org/2000/svg" xmlns:xlink="http://www.w3.org/1999/xlink" x="0px" y="0px"
	 width="600px" height="600px" viewBox="0 0 600 600" enable-background="new 0 0 600 600" xml:space="preserve">
<g>
	<g>
		<path fill="#F1F6F9" d="M350.454,299.983c0,3.997-1.534,7.457-4.392,10.382L174.783,481.611
			c-2.891,2.927-6.382,4.389-10.373,4.389c-4.036,0-7.494-1.462-10.346-4.389l-38.309-38.306c-2.925-2.93-4.393-6.388-4.393-10.418
			c0-3.994,1.468-7.455,4.393-10.382l122.52-122.522l-122.52-122.52c-2.925-2.936-4.393-6.394-4.393-10.385
			c0-3.997,1.468-7.466,4.393-10.385l38.303-38.303c2.852-2.93,6.304-4.392,10.34-4.392c3.991,0,7.488,1.468,10.385,4.392
			l171.279,171.213C348.92,292.528,350.454,295.986,350.454,299.983z"/>
	</g>
	<g>
		<path fill="#F1F6F9" d="M412.545,114h50.735c7.045,0,13.02,2.456,17.954,7.392c4.925,4.924,7.402,10.94,7.402,17.954v321.302
			c0,7.046-2.468,13.021-7.402,17.955C476.3,483.526,470.325,486,463.28,486h-50.735c-7.045,0-13.03-2.463-17.965-7.397
			c-4.925-4.935-7.397-10.909-7.397-17.954V139.346c0-7.014,2.463-13.03,7.397-17.954C399.515,116.456,405.5,114,412.545,114z"/>
	</g>
</g>
</svg>
