<?xml version="1.0" encoding="utf-8"?>
<!-- Generator: Adobe Illustrator 15.1.0, SVG Export Plug-In . SVG Version: 6.00 Build 0)  -->
<!DOCTYPE svg PUBLIC "-//W3C//DTD SVG 1.1//EN" "http://www.w3.org/Graphics/SVG/1.1/DTD/svg11.dtd">
<svg version="1.1" id="Layer_3" xmlns="http://www.w3.org/2000/svg" xmlns:xlink="http://www.w3.org/1999/xlink" x="0px" y="0px"
	 width="100px" height="100px" viewBox="0 0 100 100" enable-background="new 0 0 100 100" xml:space="preserve">
<g>
	<path fill="#FFFFFF" d="M73.145,52.086L38.723,86.497c-0.58,0.588-1.283,0.882-2.086,0.882c-0.81,0-1.505-0.294-2.079-0.882
		l-7.698-7.699c-0.595-0.588-0.882-1.282-0.882-2.086c0-0.803,0.287-1.505,0.882-2.093L51.482,50L26.859,25.377
		c-0.595-0.588-0.882-1.283-0.882-2.086c0-0.811,0.287-1.502,0.882-2.09l7.698-7.698c0.574-0.588,1.27-0.882,2.079-0.882
		c0.803,0,1.506,0.294,2.086,0.882l34.422,34.411c0.57,0.588,0.877,1.286,0.877,2.086C74.021,50.803,73.718,51.501,73.145,52.086z"
		/>
</g>
</svg>
