<?xml version="1.0" encoding="utf-8"?>
<!-- Generator: Adobe Illustrator 15.1.0, SVG Export Plug-In . SVG Version: 6.00 Build 0)  -->
<!DOCTYPE svg PUBLIC "-//W3C//DTD SVG 1.1//EN" "http://www.w3.org/Graphics/SVG/1.1/DTD/svg11.dtd">
<svg version="1.1" id="Layer_3" xmlns="http://www.w3.org/2000/svg" xmlns:xlink="http://www.w3.org/1999/xlink" x="0px" y="0px"
	 width="600px" height="600px" viewBox="0 0 600 600" enable-background="new 0 0 600 600" xml:space="preserve">
<g>
	<path fill="#546E7A" d="M300,530.453c-6.63,0-13.261-2.526-18.317-7.575L122.59,363.781c-10.121-10.126-10.121-26.531,0-36.647
		c10.116-10.116,26.521-10.116,36.642,0L300,467.909l140.764-140.772c10.118-10.115,26.53-10.115,36.646,0
		c10.121,10.117,10.121,26.527,0,36.646l-159.091,159.1C313.263,527.936,306.631,530.453,300,530.453z"/>
	<path fill="#546E7A" d="M318.319,77.117L477.41,236.218c10.121,10.118,10.121,26.528,0,36.646
		c-10.116,10.115-26.528,10.115-36.646,0L300,132.091L159.232,272.866c-10.121,10.116-26.526,10.116-36.642,0
		c-10.121-10.116-10.121-26.521,0-36.647L281.683,77.122c5.056-5.049,11.687-7.575,18.317-7.575
		C306.631,69.547,313.263,72.064,318.319,77.117z"/>
</g>
</svg>
