<?xml version="1.0" encoding="utf-8"?>
<!-- Generator: Adobe Illustrator 15.1.0, SVG Export Plug-In . SVG Version: 6.00 Build 0)  -->
<!DOCTYPE svg PUBLIC "-//W3C//DTD SVG 1.1//EN" "http://www.w3.org/Graphics/SVG/1.1/DTD/svg11.dtd">
<svg version="1.1" id="Layer_3" xmlns="http://www.w3.org/2000/svg" xmlns:xlink="http://www.w3.org/1999/xlink" x="0px" y="0px"
	 width="100px" height="100px" viewBox="0 0 100 100" enable-background="new 0 0 100 100" xml:space="preserve">
<g>
	<g>
		<g>
			<path fill="#FFFFFF" d="M49.622,13.072L34.889,27.806c-1.467,1.435-1.141,2.444,0.908,2.444h8.222v17.903
				c0,3.091,2.504,5.6,5.6,5.6l0,0c3.092,0,5.6-2.508,5.6-5.6V30.249h8.229c2.045,0.001,2.367-1.012,0.902-2.446L49.622,13.072z"/>
			<path fill="#FFFFFF" d="M81.705,49.149h-8.467c-0.777,0-1.4,0.625-1.4,1.4v25.112H28.163V50.55c0-0.775-0.626-1.4-1.4-1.4h-8.468
				c-0.775,0-1.4,0.625-1.4,1.4v28.648c0,4.263,3.471,7.729,7.733,7.729h50.746c4.264,0,7.732-3.47,7.732-7.729V50.55
				C83.105,49.774,82.482,49.149,81.705,49.149z"/>
		</g>
	</g>
</g>
</svg>
