<?xml version="1.0" encoding="utf-8"?>
<!-- Generator: Adobe Illustrator 15.1.0, SVG Export Plug-In . SVG Version: 6.00 Build 0)  -->
<!DOCTYPE svg PUBLIC "-//W3C//DTD SVG 1.1//EN" "http://www.w3.org/Graphics/SVG/1.1/DTD/svg11.dtd">
<svg version="1.1" id="Layer_3" xmlns="http://www.w3.org/2000/svg" xmlns:xlink="http://www.w3.org/1999/xlink" x="0px" y="0px"
	 width="100px" height="100px" viewBox="0 0 100 100" enable-background="new 0 0 100 100" xml:space="preserve">
<g>
	<path fill="#63BCE2" d="M50,19.894c-16.626,0-30.105,13.479-30.105,30.106c0,16.626,13.479,30.105,30.105,30.105
		c16.627,0,30.106-13.479,30.106-30.105C80.105,33.373,66.627,19.894,50,19.894z M49.993,32.69c2.521,0,4.566,2.044,4.566,4.565
		c0,2.522-2.045,4.566-4.566,4.566c-2.522,0-4.567-2.044-4.567-4.566C45.425,34.734,47.47,32.69,49.993,32.69z M57.834,66.965
		c0,0.457-0.369,0.826-0.824,0.826h-2.656h-8.724h-2.654c-0.455,0-0.825-0.369-0.825-0.826v-1.693c0-0.457,0.37-0.824,0.825-0.824
		h2.654V48.38h-2.735c-0.456,0-0.826-0.37-0.826-0.826v-1.696c0-0.456,0.37-0.826,0.826-0.826h2.735h7.898h0.027
		c0.457,0,0.826,0.37,0.826,0.826v18.589h2.629c0.455,0,0.824,0.367,0.824,0.824V66.965L57.834,66.965z"/>
</g>
</svg>
